<svg xmlns="http://www.w3.org/2000/svg" width="31.19" height="33.134" viewBox="0 0 31.19 33.134">
  <path id="home" d="M173.988,72.865a4.173,4.173,0,0,0-1.644-3.33l-11.38-8.809a4.214,4.214,0,0,0-5.184,0L144.4,69.535h0a4.173,4.173,0,0,0-1.6,3.33V88.333a4.636,4.636,0,0,0,4.636,4.636h21.918a4.636,4.636,0,0,0,4.636-4.636ZM162.65,91.284h-8.514v-5.69a2.529,2.529,0,0,1,2.529-2.529h3.414a2.529,2.529,0,0,1,2.529,2.529Zm9.652-2.95h0a2.95,2.95,0,0,1-2.95,2.95h-5.016v-5.69a4.215,4.215,0,0,0-4.215-4.215h-3.456a4.215,4.215,0,0,0-4.215,4.215v5.69h-5.016a2.95,2.95,0,0,1-2.95-2.95V72.865a2.529,2.529,0,0,1,.969-1.981l11.38-8.809a2.528,2.528,0,0,1,3.119,0l11.38,8.809h0a2.529,2.529,0,0,1,.969,1.981Z" transform="translate(-142.8 -59.835)" fill="#4dcc86"/>
</svg>
