<svg xmlns="http://www.w3.org/2000/svg" width="31.188" height="38.971" viewBox="0 0 31.188 38.971">
  <g id="GasStation" transform="translate(1515.532 -2078.897)">
    <path id="Path_128" data-name="Path 128" d="M213.038,79.074H200.756a2.263,2.263,0,0,0-2.261,2.261v6.32a2.263,2.263,0,0,0,2.261,2.261h12.282a2.263,2.263,0,0,0,2.261-2.261v-6.32A2.263,2.263,0,0,0,213.038,79.074Zm.663,8.581a.663.663,0,0,1-.663.663H200.756a.663.663,0,0,1-.663-.663v-6.32a.664.664,0,0,1,.663-.663h12.282a.663.663,0,0,1,.663.663Z" transform="translate(-1709.5 2004.629)" fill="#4dcc86"/>
    <path id="Path_129" data-name="Path 129" d="M167.729,26.473V23.092a9.946,9.946,0,0,0-2.62-6.737l-2.423-2.643a.8.8,0,0,0-1.178,1.08l1.767,1.928v5.442a.8.8,0,0,0,.133.442l2.723,4.1V45.47a1.354,1.354,0,1,1-2.708,0V30.886a3.56,3.56,0,0,0-2.756-3.463V17.343a4.067,4.067,0,0,0-4.062-4.062h-14.27a4.067,4.067,0,0,0-4.062,4.062V50.652h-.932a.8.8,0,1,0,0,1.6H161.6a.8.8,0,1,0,0-1.6h-.932V29.1a1.959,1.959,0,0,1,1.158,1.786V45.47a2.952,2.952,0,1,0,5.9,0v-19h0ZM139.87,50.651V17.343a2.467,2.467,0,0,1,2.464-2.464H156.6a2.467,2.467,0,0,1,2.464,2.464V50.651Zm25-28.731V18.677a8.349,8.349,0,0,1,1.258,4.416v.725Z" transform="translate(-1652.073 2065.616)" fill="#4dcc86"/>
  </g>
</svg>
