<svg xmlns="http://www.w3.org/2000/svg" width="14" height="20" viewBox="0 0 14 20">
  <path id="accessible_FILL0_wght400_GRAD0_opsz48" d="M17.05,7.65a1.835,1.835,0,0,1-1.825-1.825,1.825,1.825,0,1,1,3.112,1.288A1.756,1.756,0,0,1,17.05,7.65ZM22.4,24V18.775H17.05a1.793,1.793,0,0,1-1.8-1.8V10.8A1.793,1.793,0,0,1,17.05,9a1.962,1.962,0,0,1,.975.225,3.887,3.887,0,0,1,.95.875,11.045,11.045,0,0,0,2.3,2.05A5.178,5.178,0,0,0,24,13.025v1.5a6.228,6.228,0,0,1-2.625-.625,11.67,11.67,0,0,1-2.6-1.675V16.8H22.1a1.793,1.793,0,0,1,1.8,1.8V24Zm-7.5,0a4.815,4.815,0,0,1-3.663-8.038A4.84,4.84,0,0,1,14.5,14.3v1.525a3.045,3.045,0,0,0-2.162,1.113,3.414,3.414,0,0,0,.15,4.587A3.251,3.251,0,0,0,14.9,22.5a3.378,3.378,0,0,0,2.175-.812,2.944,2.944,0,0,0,1.1-2.163H19.7a4.7,4.7,0,0,1-1.65,3.238A4.757,4.757,0,0,1,14.9,24Z" transform="translate(-10 -4)" fill="#fff"/>
</svg>
