<svg xmlns="http://www.w3.org/2000/svg" width="48.813" height="21.113" viewBox="0 0 48.813 21.113">
  <path id="Car" d="M139.424,193.693l-2.063-1.746a15.89,15.89,0,0,0-9.946-3.227h-3.068c-5.872,0-11.48,1.587-15.395,4.285l-2.8,1.957h-.688c-5.766.053-10.792,3.122-12.326,7.565l-.476,1.27a.676.676,0,0,0,.106.635l1.428,1.64a.735.735,0,0,0,.529.265h4.126a4.094,4.094,0,0,0,4.021,3.28,4.183,4.183,0,0,0,4.021-3.28h22.748a4.184,4.184,0,0,0,8.253,0,3.33,3.33,0,0,0,3.544-3.016v-5.607a5.419,5.419,0,0,0-2.01-4.021Zm-36.556,14.6a2.732,2.732,0,0,1-2.751-2.751,2.147,2.147,0,0,1,.211-1.005,2.8,2.8,0,0,1,2.592-1.693,2.851,2.851,0,0,1,1.957.793,2.679,2.679,0,0,1,.741,1.9,2.8,2.8,0,0,1-2.751,2.751Zm30.842.211a2.842,2.842,0,1,1,2.024-.832,2.857,2.857,0,0,1-2.024.832Zm6.348-5.184c0,.9-1.005,1.64-2.222,1.693v-.106a.2.2,0,0,0-.053-.159c0-.053-.053-.159-.053-.211s-.053-.106-.053-.159a.4.4,0,0,0-.106-.211c0-.053-.053-.106-.053-.159-.053-.053-.053-.159-.106-.211a.186.186,0,0,0-.053-.106c-.053-.053-.106-.159-.159-.211,0-.053-.053-.053-.053-.106-.053-.106-.159-.211-.211-.317l-.053-.053c-.053-.106-.159-.159-.211-.265l-.106-.106a.731.731,0,0,0-.211-.159l-.106-.106-.159-.159c-.053-.053-.106-.053-.159-.106s-.106-.053-.211-.106a.2.2,0,0,0-.159-.053c-.053-.053-.159-.053-.211-.106-.053,0-.106-.053-.159-.053a.318.318,0,0,0-.211-.053c-.053,0-.106-.053-.159-.053s-.159-.053-.211-.053a.2.2,0,0,1-.159-.053c-.106,0-.159-.053-.265-.053H133.13a.478.478,0,0,0-.265.053.2.2,0,0,0-.159.053c-.053,0-.159.053-.211.053s-.106.053-.159.053-.159.053-.211.053-.106.053-.159.053c-.053.053-.159.053-.211.106-.053,0-.106.053-.159.053-.053.053-.106.053-.211.106-.053.053-.106.053-.159.106l-.159.159c-.053.053-.106.053-.106.106a.731.731,0,0,1-.211.159l-.106.106c-.053.106-.159.159-.211.265l-.053.053a1.1,1.1,0,0,0-.211.317c0,.053-.053.053-.053.106-.053.053-.106.159-.159.211a.186.186,0,0,1-.053.106c-.053.053-.053.159-.106.211,0,.053-.053.106-.053.159-.053.053-.053.159-.106.211,0,.053-.053.106-.053.159s-.053.159-.053.211a.2.2,0,0,1-.053.159v.106H106.993a4.268,4.268,0,0,0-1.164-2.275,4.093,4.093,0,0,0-6.771,1.323,6.411,6.411,0,0,0-.265.952H95.038l-.952-1.111.317-.952c1.323-3.915,5.872-6.666,11-6.666h.9a.764.764,0,0,0,.371-.106l3.016-2.063c3.7-2.592,9.047-4.074,14.654-4.074h3.068a14.3,14.3,0,0,1,9.1,2.91l2.063,1.746a3.924,3.924,0,0,1,1.534,2.962v5.661Z" transform="translate(-92.625 -188.716)" fill="#4dcc86"/>
</svg>
