<svg width="24" height="24" viewBox="0 0 24 24" fill="none" xmlns="http://www.w3.org/2000/svg">
<path d="M14.1657 9.41153C14.7889 9.86022 15.5066 10 16 10H21V19C21 20.1259 20.5085 20.9261 19.8343 21.4115C19.2111 21.8602 18.4934 22 18 22H9.98835C11.2009 21.0786 12 19.5031 12 17.7143C12 16.6551 11.7198 15.6708 11.2396 14.8527C11.7126 14.2466 12 13.4474 12 12.5714C12 10.6779 10.6569 9.14286 9 9.14286H8.23611C7.68679 8.44143 6.8885 8 6 8C5.078 8 4.25314 8.47535 3.70282 9.22331C3.46132 9.27265 3.2265 9.344 3 9.4355V5C3 3.87408 3.49153 3.07386 4.1657 2.58846C4.78887 2.13978 5.50664 2 6 2H13V7C13 8.12592 13.4915 8.92614 14.1657 9.41153Z" fill="black"/>
<path d="M20.7071 7.29289C20.8946 7.48043 21 7.73478 21 8H16C15.8267 8 15.5445 7.93978 15.3343 7.78847C15.1751 7.67386 15 7.47408 15 7V2C15.2652 2 15.5196 2.10536 15.7071 2.29289L20.7071 7.29289Z" fill="black"/>
<path fill-rule="evenodd" clip-rule="evenodd" d="M6 10.2857C6.55228 10.2857 7 10.7974 7 11.4286H9C9.55228 11.4286 10 11.9402 10 12.5714C10 13.2026 9.55228 13.7143 9 13.7143H4.5C4.22386 13.7143 4 13.9701 4 14.2857C4 14.6013 4.22386 14.8571 4.5 14.8571H7.5C8.88071 14.8571 10 16.1363 10 17.7143C10 19.2922 8.88071 20.5714 7.5 20.5714H7C7 21.2026 6.55228 21.7143 6 21.7143C5.44772 21.7143 5 21.2026 5 20.5714H3C2.44772 20.5714 2 20.0597 2 19.4286C2 18.7974 2.44772 18.2857 3 18.2857H7.5C7.77614 18.2857 8 18.0299 8 17.7143C8 17.3987 7.77614 17.1428 7.5 17.1428H4.5C3.11929 17.1428 2 15.8637 2 14.2857C2 12.7077 3.11929 11.4286 4.5 11.4286H5C5 10.7974 5.44772 10.2857 6 10.2857Z" fill="black"/>
</svg>
