<svg xmlns="http://www.w3.org/2000/svg" width="44.001" height="34.761" viewBox="0 0 44.001 34.761">
  <g id="Wedding" transform="translate(1578.937 -2020.117)">
    <path id="Path_124" data-name="Path 124" d="M150.069,148.551l2.766-4.481a.665.665,0,0,0,.015-.673l-.975-1.756a.665.665,0,0,0-.582-.343H146.53a.665.665,0,0,0-.582.343l-.975,1.756a.666.666,0,0,0,.015.673l2.766,4.481a13.648,13.648,0,0,0-5.278,1.549,14.612,14.612,0,1,0-1.193,23.564,13.739,13.739,0,1,0,8.785-25.113Zm-3.147-5.921H150.9l.6,1.072-2.586,4.188-2.586-4.188ZM120,161.443a13.272,13.272,0,0,1,21.254-10.614,13.845,13.845,0,0,0-2.99,2.729,9.334,9.334,0,1,0-.326,15.958.61.61,0,0,0,.065-.023.57.57,0,0,0,.056-.051,9.387,9.387,0,0,0,3.284-3.324.65.65,0,0,0,.235-.429,9.222,9.222,0,0,0,.44-7.489,8.051,8.051,0,0,1,3.011-2.948A13.282,13.282,0,1,1,120,161.444Zm17.473-6.814a13.707,13.707,0,0,0-.723,14.009,7.991,7.991,0,1,1,.723-14.009Zm3.441,7.609a7.952,7.952,0,0,1,.266-2.011,8.1,8.1,0,0,1,.1,1.214,7.947,7.947,0,0,1-.266,2.011,8.082,8.082,0,0,1-.1-1.214Zm5.335-7.532a8,8,0,1,1-.752,14.748A14.578,14.578,0,0,0,146.249,154.706Zm2.663,19.948a12.327,12.327,0,0,1-6.48-1.825,14.765,14.765,0,0,0,2.262-2.269,9.335,9.335,0,1,0,.326-16.787c-.017.009-.037.009-.054.019s-.011.011-.017.016a9.375,9.375,0,0,0-4.1,3.759.654.654,0,0,0-.235.426,9.219,9.219,0,0,0-.442,7.49,8.053,8.053,0,0,1-2.277,2.482,12.414,12.414,0,1,1,11.016,6.689Z" transform="translate(-1697.593 1878.819)" fill="#4dcc86"/>
  </g>
</svg>
