<svg xmlns="http://www.w3.org/2000/svg" width="46.564" height="46.568" viewBox="0 0 46.564 46.568">
  <path id="Mosque" d="M115.835,23.283h-.728V15.7a3.411,3.411,0,0,0,.248-5.4l-3.419-2.852a.726.726,0,0,0-.932,0l-3.42,2.852a3.358,3.358,0,0,0-1.208,2.576v.051h0a3.34,3.34,0,0,0,1.455,2.772v7.588H107.1a.728.728,0,1,0,0,1.455h.728v2.91h-2.91V22.2a2.2,2.2,0,0,0-1.586-2.1l-2.845-.807.066-.066h0a4.981,4.981,0,0,0-.175-7.2l-6.37-5.8V5.721a2.97,2.97,0,0,0,1.331-.749.731.731,0,1,0-1.033-1.033A1.453,1.453,0,1,1,93.28,1.458.728.728,0,0,0,93.28,0a2.9,2.9,0,0,0-.728,5.718V6.23L86.18,12.021h0A5,5,0,0,0,84.55,15.7a4.948,4.948,0,0,0,1.455,3.521l.066.066-2.845.807h0a2.2,2.2,0,0,0-1.586,2.1v5.449H78.73v-2.91h.728a.728.728,0,1,0,0-1.455H78.73V15.7a3.34,3.34,0,0,0,1.455-2.772v-.051h0A3.358,3.358,0,0,0,78.977,10.3L75.558,7.445a.726.726,0,0,0-.932,0L71.207,10.3A3.385,3.385,0,0,0,70,12.923,3.34,3.34,0,0,0,71.454,15.7v7.588h-.728a.728.728,0,0,0,0,1.455h.728v21.1a.73.73,0,0,0,.728.728h42.2a.73.73,0,0,0,.728-.728v-21.1h.728a.728.728,0,0,0,0-1.455ZM86,15.7a3.549,3.549,0,0,1,1.149-2.6L93.28,7.534,99.407,13.1a3.549,3.549,0,0,1,1.149,2.6,3.477,3.477,0,0,1-1.033,2.488l-.72.728H87.759l-.72-.728h0A3.477,3.477,0,0,1,86.006,15.7Zm-2.9,6.5a.725.725,0,0,1,.531-.7l3.936-1.128H99l3.936,1.128h0a.725.725,0,0,1,.531.7v5.449H83.1ZM77.275,45.11H72.909V43.655h4.365Zm0-2.91H72.909V24.739h4.365Zm0-18.916H72.909V16.008h4.365Zm.539-8.731H72.371a1.956,1.956,0,0,1-.233-3.143l2.954-2.459,2.954,2.459a1.9,1.9,0,0,1,.684,1.463v.051h0a1.893,1.893,0,0,1-.917,1.63ZM86,45.11H81.64V38.926a1.464,1.464,0,0,1,.582-1.164l1.6-1.2,1.6,1.2A1.465,1.465,0,0,1,86,38.926Zm10.186,0h-5.82V36.162a1.465,1.465,0,0,1,.706-1.251l2.2-1.317,2.2,1.317a1.465,1.465,0,0,1,.706,1.251Zm8.731,0h-4.365V38.926a1.464,1.464,0,0,1,.582-1.164l1.6-1.2,1.6,1.2a1.464,1.464,0,0,1,.582,1.164Zm2.91,0h-1.455V38.926a2.929,2.929,0,0,0-1.164-2.328l-2.037-1.528a.72.72,0,0,0-.873,0l-2.038,1.53A2.929,2.929,0,0,0,99.1,38.926V45.11H97.646V36.162a2.918,2.918,0,0,0-1.413-2.5l-2.582-1.55a.715.715,0,0,0-.742,0l-2.583,1.55a2.918,2.918,0,0,0-1.412,2.5V45.11H87.46V38.926A2.929,2.929,0,0,0,86.3,36.6l-2.041-1.53a.72.72,0,0,0-.873,0L81.349,36.6a2.929,2.929,0,0,0-1.164,2.328V45.11H78.73V29.1h29.1Zm5.82,0h-4.365V43.655h4.365Zm0-2.91h-4.365V24.739h4.365Zm0-18.916h-4.365V16.008h4.365Zm.539-8.731h-5.442a1.892,1.892,0,0,1-.917-1.63v-.051h0a1.905,1.905,0,0,1,.684-1.463L111.47,8.95l2.954,2.459a1.933,1.933,0,0,1,.684,1.513,1.893,1.893,0,0,1-.917,1.63Z" transform="translate(-70 -0.003)" fill="#4dcc86"/>
</svg>
