<svg width="30" height="30" viewBox="0 0 30 30" fill="none" xmlns="http://www.w3.org/2000/svg">
<path d="M25 11.25V8.75C25 7.36929 23.8807 6.25 22.5 6.25H20M25 11.25H5M25 11.25V12.5M20 6.25H10M20 6.25V3.75M5 11.25V8.75C5 7.36929 6.11929 6.25 7.5 6.25H10M5 11.25V23.75C5 25.1307 6.11929 26.25 7.5 26.25H12.5M10 6.25V3.75M21.25 20V22.5H23.75M27.5 21.875C27.5 24.9816 24.9816 27.5 21.875 27.5C18.7684 27.5 16.25 24.9816 16.25 21.875C16.25 18.7684 18.7684 16.25 21.875 16.25C24.9816 16.25 27.5 18.7684 27.5 21.875Z" stroke="black" stroke-width="2" stroke-linecap="round" stroke-linejoin="round"/>
</svg>
