<svg xmlns="http://www.w3.org/2000/svg" width="356.664" height="296.875" viewBox="0 0 356.664 296.875">
  <g id="walkthrough2" transform="translate(-9.168 -181.5)">
    <g id="Group_10620" data-name="Group 10620">
      <path id="path122" d="M371.125-36.089c0,10.141-79.842,18.362-178.332,18.362S14.461-25.948,14.461-36.089,94.3-54.45,192.794-54.45s178.331,8.222,178.331,18.361" transform="translate(-5.293 496.102)" fill="#e7e8e5"/>
      <g id="Group_10617" data-name="Group 10617" transform="translate(75.784 181.5)">
        <g id="Group_10529" data-name="Group 10529" transform="translate(0 0)">
          <path id="Path_1037" data-name="Path 1037" d="M1.665.767C1.521.154,2.383-.253,2.91.175,8.267,4.519,21.137,17.526,17.93,40.257c-4.024,28.52,2.856,38.926,11.42,45.274A36.929,36.929,0,0,1,10.189,71.986C-7.979,46.06,4.223,11.655,1.665.767Z" transform="translate(0.001 0.002)" fill="#b3cfd5"/>
          <path id="Path_1038" data-name="Path 1038" d="M118.428,195.791c.67,3.175,1.267,6.36,1.729,9.559q.721,4.794,1.1,9.617c.238,3.213.406,6.43.415,9.648.026,3.218-.108,6.433-.255,9.661a87.308,87.308,0,0,0-.039,9.749,28.9,28.9,0,0,0,2.284,9.649c.341.77.7,1.537,1.107,2.279.392.748.822,1.482,1.267,2.208a34.866,34.866,0,0,0,3.039,4.18,38.343,38.343,0,0,0,8,7,.8.8,0,0,0,1.013-.115.568.568,0,0,0-.116-.863h0c-.716-.5-1.423-1.011-2.1-1.546-.345-.263-.675-.538-1.011-.808s-.661-.55-.975-.839a34.767,34.767,0,0,1-8.73-11.977,28.157,28.157,0,0,1-1.514-4.548,31.081,31.081,0,0,1-.731-4.71,86.534,86.534,0,0,1-.042-9.622c.095-3.228.164-6.472.079-9.714q-.056-2.431-.214-4.859c-.047-.809-.112-1.618-.175-2.426s-.15-1.615-.235-2.422q-.522-4.839-1.388-9.64c-.6-3.2-1.291-6.377-2.126-9.53a.2.2,0,0,0-.232-.126A.17.17,0,0,0,118.428,195.791Z" transform="translate(-112.686 -186.115)" fill="#fff"/>
        </g>
        <g id="Group_10531" data-name="Group 10531" transform="translate(21.823 23.107)">
          <g id="Group_10530" data-name="Group 10530">
            <path id="Path_1039" data-name="Path 1039" d="M208.987,207a1.349,1.349,0,0,1-2.207-.376,41.119,41.119,0,0,1,1.034-35.3c6.88-13.781,9.3-21.908,10.145-25.673a.846.846,0,0,1,1.6-.156C223.192,153.735,232.786,181.749,208.987,207Z" transform="translate(-203.298 -144.993)" fill="#c3e1e5"/>
            <path id="Path_1040" data-name="Path 1040" d="M287.43,553.642a.352.352,0,0,1-.072.006.374.374,0,0,1-.368-.38c0-.234.459-23.628,9.16-43.221a.374.374,0,0,1,.683.3c-8.637,19.451-9.092,42.7-9.1,42.93A.373.373,0,0,1,287.43,553.642Z" transform="translate(-282.933 -492.144)" fill="#fff"/>
          </g>
        </g>
      </g>
      <g id="Group_10551" data-name="Group 10551" transform="translate(9.168 226.671)">
        <g id="Group_10550" data-name="Group 10550" transform="translate(0 0)">
          <g id="Group_10549" data-name="Group 10549" transform="translate(0 0)">
            <g id="Group_10545" data-name="Group 10545" transform="translate(200.828)">
              <g id="Group_10543" data-name="Group 10543">
                <path id="Path_1097" data-name="Path 1097" d="M571.666,126.785H557.431c-1.9,0-3.441-2.033-3.441-4.542h0c0-2.509,1.54-4.542,3.441-4.542h14.235c1.9,0,3.441,2.033,3.441,4.542h0C575.107,124.751,573.566,126.785,571.666,126.785Z" transform="translate(-553.99 -117.7)" fill="#2e2e2e"/>
              </g>
              <g id="Group_10544" data-name="Group 10544" transform="translate(5.907 3.649)">
                <path id="Path_1098" data-name="Path 1098" d="M566.406,123.216a.878.878,0,1,1-.881-.876A.879.879,0,0,1,566.406,123.216Z" transform="translate(-564.65 -122.318)" fill="#fff"/>
                <path id="Path_1099" data-name="Path 1099" d="M573.227,123.2a.878.878,0,1,1-.881-.875A.878.878,0,0,1,573.227,123.2Z" transform="translate(-567.691 -122.309)" fill="#fff"/>
                <path id="Path_1100" data-name="Path 1100" d="M580.036,123.175a.878.878,0,1,1-.881-.875A.878.878,0,0,1,580.036,123.175Z" transform="translate(-570.728 -122.3)" fill="#fff"/>
              </g>
            </g>
            <g id="Group_10548" data-name="Group 10548" transform="translate(20 11.673)">
              <g id="Group_10546" data-name="Group 10546" transform="translate(11.794 12.095)">
                <path id="Path_1101" data-name="Path 1101" d="M75.4,115.99H45.12a3.091,3.091,0,0,1-3.09-3.09V86.38a3.091,3.091,0,0,1,3.09-3.09H75.4a3.091,3.091,0,0,1,3.09,3.09V112.9A3.09,3.09,0,0,1,75.4,115.99Z" transform="translate(-42.03 -83.29)" fill="#fff"/>
                <path id="Path_1102" data-name="Path 1102" d="M76.54,135.388l9.371,8.838a.734.734,0,0,0,1.236-.534V132.72Z" transform="translate(-58.309 -106.608)" fill="#fff"/>
              </g>
              <g id="Group_10547" data-name="Group 10547" transform="translate(-10)">
                <circle id="Ellipse_47" data-name="Ellipse 47" cx="8.553" cy="8.553" r="8.553" transform="translate(0 12.095) rotate(-45)" fill="#6fe147"/>
                <path id="Path_1103" data-name="Path 1103" d="M35.4,81.869l3.2,2.34L42.41,79.37" transform="translate(-27.108 -69.346)" fill="none" stroke="#fff" stroke-linecap="round" stroke-linejoin="round" stroke-miterlimit="10" stroke-width="2.793"/>
              </g>
              <path id="Path_1104" data-name="Path 1104" d="M76.622,104.158l-1.268-.222a6.564,6.564,0,0,0-.655-1.58l.74-1.051a.971.971,0,0,0-.111-1.247l-.761-.761a.976.976,0,0,0-1.247-.09l-1.051.74a6.564,6.564,0,0,0-1.58-.655L70.473,98a.977.977,0,0,0-.94-.808H68.439a.971.971,0,0,0-.961.808l-.222,1.263a6.564,6.564,0,0,0-1.58.655l-1.051-.708a.971.971,0,0,0-1.247.111l-.761.761a.977.977,0,0,0-.111,1.247l.74,1.051a6.563,6.563,0,0,0-.655,1.58l-1.263.222a.975.975,0,0,0-.808.961v1.072a.971.971,0,0,0,.808.961l1.263.222a6.563,6.563,0,0,0,.655,1.58l-.74,1.051a.971.971,0,0,0,.111,1.247l.761.761a.977.977,0,0,0,1.247.111l1.051-.74a6.563,6.563,0,0,0,1.58.655l.222,1.263a.976.976,0,0,0,.961.808h1.088a.971.971,0,0,0,.961-.808l.222-1.263a6.563,6.563,0,0,0,1.58-.655l1.03.724a.971.971,0,0,0,1.247-.111l.761-.761a.977.977,0,0,0,.111-1.247l-.74-1.062a6.564,6.564,0,0,0,.655-1.58l1.268-.222a.976.976,0,0,0,.808-.961v-1.072A.975.975,0,0,0,76.622,104.158Zm-7.644,4.39a2.895,2.895,0,1,1,2.895-2.895v.016A2.893,2.893,0,0,1,68.978,108.548Z" transform="translate(-38.958 -77.752)" fill="#273e47"/>
            </g>
          </g>
        </g>
      </g>
      <g id="Group_10613" data-name="Group 10613" transform="translate(131.073 388.84)">
        <g id="XMLID_2_" transform="translate(36.209 0.404)">
          <path id="XMLID_3_" d="M382.432,397.53H381.7" transform="translate(-381.7 -397.53)" fill="#1c1c1b"/>
        </g>
        <g id="Group_10612" data-name="Group 10612" transform="translate(0 0)">
          <path id="Path_1154" data-name="Path 1154" d="M286.68,396.817m0-.347" transform="translate(-286.68 -396.47)" fill="#1c1c1b"/>
          <path id="Path_1155" data-name="Path 1155" d="M326.9,397.318a1.371,1.371,0,0,1-.309-.038" transform="translate(-311.381 -396.971)" fill="#1c1c1b"/>
        </g>
      </g>
      <g id="check_circle-24px_3_" data-name="check_circle-24px (3)" transform="translate(172 305.577)">
        <path id="Path_590" data-name="Path 590" d="M0,0H12.543V12.543H0Z" fill="none"/>
      </g>
      <g id="Group_10619" data-name="Group 10619">
        <g id="Group_10576" data-name="Group 10576" transform="translate(27.168 246.175)">
          <g id="Group_10565" data-name="Group 10565" transform="translate(68.376 0)">
            <g id="Group_10560" data-name="Group 10560">
              <g id="Group_10554" data-name="Group 10554" transform="translate(0 12.997)">
                <g id="Group_10552" data-name="Group 10552" transform="translate(8.629 0.029)">
                  <path id="Path_1105" data-name="Path 1105" d="M196,224.1a5.5,5.5,0,0,0,5.5,5.5H310.432a5.5,5.5,0,0,0,5.5-5.5V125.78H196Z" transform="translate(-196 -94.631)" fill="#273e47"/>
                  <path id="Path_1106" data-name="Path 1106" d="M310.462,62.1H201.528a5.5,5.5,0,0,0-5.5,5.5V93.283H315.955V67.6A5.5,5.5,0,0,0,310.462,62.1Z" transform="translate(-196.015 -62.1)" fill="#273e47"/>
                </g>
                <g id="Group_10553" data-name="Group 10553">
                  <path id="Path_1107" data-name="Path 1107" d="M178.37,224.1a5.5,5.5,0,0,0,5.5,5.5H292.8a5.5,5.5,0,0,0,5.5-5.5V125.78H178.37Z" transform="translate(-178.365 -94.601)" fill="#fff"/>
                  <path id="Path_1108" data-name="Path 1108" d="M292.792,62.04H183.858a5.5,5.5,0,0,0-5.5,5.5V93.223H298.285V67.533A5.488,5.488,0,0,0,292.792,62.04Z" transform="translate(-178.36 -62.04)" fill="#273e47"/>
                </g>
              </g>
              <g id="Group_10559" data-name="Group 10559" transform="translate(23.152)">
                <g id="Group_10556" data-name="Group 10556">
                  <ellipse id="Ellipse_48" data-name="Ellipse 48" cx="6.31" cy="6.31" rx="6.31" ry="6.31" transform="translate(3.855 23.035)" fill="#100c25"/>
                  <g id="Group_10555" data-name="Group 10555">
                    <path id="Path_1109" data-name="Path 1109" d="M234.524,61.434h0a3.28,3.28,0,0,1-3.282-3.282V44.431a3.367,3.367,0,0,1,2.627-3.346,3.289,3.289,0,0,1,3.938,3.219v4.163h5.557v-3.85a9.046,9.046,0,0,0-8.232-9.128,8.846,8.846,0,0,0-9.441,8.819V57.873a9.029,9.029,0,0,0,8,9.084,9.569,9.569,0,0,0,1.448.02c3.5-.24,3.209-5.532-.3-5.532h-.318Z" transform="translate(-225.69 -35.469)" fill="#fff"/>
                  </g>
                </g>
                <g id="Group_10558" data-name="Group 10558" transform="translate(50.314)">
                  <ellipse id="Ellipse_49" data-name="Ellipse 49" cx="6.31" cy="6.31" rx="6.31" ry="6.31" transform="translate(3.855 23.035)" fill="#100c25"/>
                  <g id="Group_10557" data-name="Group 10557">
                    <path id="Path_1110" data-name="Path 1110" d="M337.384,61.434h0a3.28,3.28,0,0,1-3.282-3.282V44.431a3.367,3.367,0,0,1,2.627-3.346,3.289,3.289,0,0,1,3.938,3.219v4.163h5.557v-3.85a9.046,9.046,0,0,0-8.232-9.128,8.846,8.846,0,0,0-9.441,8.819V57.873a9.029,9.029,0,0,0,8,9.084,9.568,9.568,0,0,0,1.448.02c3.5-.24,3.209-5.532-.3-5.532h-.318Z" transform="translate(-328.55 -35.469)" fill="#fff"/>
                  </g>
                </g>
              </g>
            </g>
            <g id="Group_10564" data-name="Group 10564" transform="translate(18.02 59.046)">
              <g id="Group_10561" data-name="Group 10561">
                <rect id="Rectangle_929" data-name="Rectangle 929" width="17.937" height="17.937" fill="#d2d2d2"/>
                <rect id="Rectangle_930" data-name="Rectangle 930" width="17.937" height="17.937" transform="translate(0 26.409)" fill="rgba(210,210,210,0.5)"/>
                <rect id="Rectangle_931" data-name="Rectangle 931" width="17.937" height="17.937" transform="translate(0 52.819)" fill="rgba(210,210,210,0.5)"/>
              </g>
              <g id="Group_10562" data-name="Group 10562" transform="translate(30.435)">
                <rect id="Rectangle_932" data-name="Rectangle 932" width="17.937" height="17.937" fill="#b4b4b4"/>
                <rect id="Rectangle_933" data-name="Rectangle 933" width="17.937" height="17.937" transform="translate(0 26.409)" fill="rgba(180,180,180,0.93)"/>
                <rect id="Rectangle_934" data-name="Rectangle 934" width="17.937" height="17.937" transform="translate(0 52.819)" fill="#b4b4b4"/>
              </g>
              <g id="Group_10563" data-name="Group 10563" transform="translate(60.87)">
                <path id="Path_1157" data-name="Path 1157" d="M0,0H17.937V17.937H0Z" transform="translate(0 26.409)" fill="#273e47"/>
                <rect id="Rectangle_937" data-name="Rectangle 937" width="17.937" height="17.937" transform="translate(0 52.819)" fill="#b4b4b4"/>
              </g>
            </g>
          </g>
          <g id="Group_10575" data-name="Group 10575" transform="translate(0 50.623)">
            <g id="Group_10566" data-name="Group 10566" transform="translate(45.997 8.78)">
              <rect id="Rectangle_938" data-name="Rectangle 938" width="12.107" height="7.973" transform="translate(5.131 2.793)" fill="#100c25"/>
              <rect id="Rectangle_939" data-name="Rectangle 939" width="22.369" height="4.862" fill="#100c25"/>
            </g>
            <g id="Group_10574" data-name="Group 10574" transform="translate(0 0)">
              <circle id="Ellipse_50" data-name="Ellipse 50" cx="40.331" cy="40.331" r="40.331" transform="translate(0 57.036) rotate(-45)" fill="#100c25"/>
              <ellipse id="Ellipse_51" data-name="Ellipse 51" cx="33.125" cy="33.125" rx="33.125" ry="33.125" transform="matrix(0.227, -0.974, 0.974, 0.227, 17.269, 81.797)" fill="#fff"/>
              <g id="Group_10573" data-name="Group 10573" transform="translate(27.527 27.397)">
                <g id="Group_10572" data-name="Group 10572">
                  <g id="Group_10569" data-name="Group 10569" transform="translate(8.583 8.745)">
                    <g id="Group_10567" data-name="Group 10567">
                      <path id="Path_1111" data-name="Path 1111" d="M114.615,215.9a.826.826,0,0,1-.587-.245l-1.384-1.384a.834.834,0,1,1,1.179-1.179l1.384,1.384a.83.83,0,0,1,0,1.179A.846.846,0,0,1,114.615,215.9Z" transform="translate(-112.398 -212.847)" fill="#b4b4b4"/>
                      <path id="Path_1112" data-name="Path 1112" d="M194.625,295.9a.826.826,0,0,1-.587-.245l-1.384-1.384a.834.834,0,1,1,1.179-1.179l1.384,1.384a.834.834,0,0,1-.592,1.423Z" transform="translate(-153.27 -253.715)" fill="#b4b4b4"/>
                    </g>
                    <g id="Group_10568" data-name="Group 10568">
                      <path id="Path_1113" data-name="Path 1113" d="M113.23,295.9a.834.834,0,0,1-.587-1.423l1.384-1.384a.834.834,0,1,1,1.179,1.179l-1.384,1.384A.825.825,0,0,1,113.23,295.9Z" transform="translate(-112.398 -253.715)" fill="#b4b4b4"/>
                      <path id="Path_1114" data-name="Path 1114" d="M193.24,215.9a.834.834,0,0,1-.587-1.423l1.384-1.384a.834.834,0,0,1,1.179,1.179l-1.384,1.384A.854.854,0,0,1,193.24,215.9Z" transform="translate(-153.27 -212.847)" fill="#b4b4b4"/>
                    </g>
                  </g>
                  <g id="Group_10570" data-name="Group 10570" transform="translate(27.74)">
                    <ellipse id="Ellipse_52" data-name="Ellipse 52" cx="1.908" cy="1.908" rx="1.908" ry="1.908" fill="#100c25"/>
                    <ellipse id="Ellipse_53" data-name="Ellipse 53" cx="1.908" cy="1.908" rx="1.908" ry="1.908" transform="translate(0 55.48)" fill="#100c25"/>
                  </g>
                  <g id="Group_10571" data-name="Group 10571" transform="translate(0 27.74)">
                    <path id="Path_1115" data-name="Path 1115" d="M96.758,251.68a1.908,1.908,0,1,1-1.908,1.908A1.91,1.91,0,0,1,96.758,251.68Z" transform="translate(-94.85 -251.68)" fill="#100c25"/>
                    <path id="Path_1116" data-name="Path 1116" d="M210.188,251.68a1.908,1.908,0,1,1-1.908,1.908A1.91,1.91,0,0,1,210.188,251.68Z" transform="translate(-152.795 -251.68)" fill="#100c25"/>
                  </g>
                </g>
                <path id="Path_1117" data-name="Path 1117" d="M164.827,220.328l-13.613,15.956a2.122,2.122,0,0,0-.611,1.663,2.143,2.143,0,0,0,4.177.489L165.3,220.671A.294.294,0,0,0,164.827,220.328Z" transform="translate(-123.327 -207.87)" fill="#41bb16"/>
              </g>
            </g>
          </g>
        </g>
        <g id="Group_10618" data-name="Group 10618">
          <rect id="Rectangle_935" data-name="Rectangle 935" width="17.937" height="17.937" transform="translate(174 305)" fill="#273e47"/>
          <path id="Path_1158" data-name="Path 1158" d="M8.249,2A6.249,6.249,0,1,0,14.5,8.249,6.251,6.251,0,0,0,8.249,2ZM7,11.374,3.875,8.249l.881-.881L7,9.605l4.743-4.743.881.887Z" transform="translate(175 306)" fill="#6fe147"/>
        </g>
      </g>
      <g id="Group_10615" data-name="Group 10615" transform="translate(-31.858 -35.34)">
        <g id="A_Human_Standing" data-name="A Human/Standing" transform="translate(210.13 262.178)">
          <g id="Bottom_Skinny_Jeans_1" data-name="Bottom/Skinny Jeans 1" transform="translate(23.591 70.165)">
            <path id="Skirt_Shadow" data-name="Skirt Shadow" d="M65.469,9.333s-21.3,5.958-36.757,5.958S0,6.116,0,6.116,20.846,0,34.335,0,65.469,9.333,65.469,9.333Z" transform="translate(34.816 51.279)" fill="#1f28cf"/>
            <path id="Leg" d="M28.123,69.75a3.348,3.348,0,0,0,.344-.672C30.365,64.057,60.771,9.9,63.8,0H29.568C27.265,7.528,16.9,54.77,15.44,64.2,10.837,79.063,1.36,127.214.151,130.55c-1.273,3.509,5.888,7.165,7.8,2.851A367.048,367.048,0,0,0,21.439,95.945C24.459,85.072,26.918,75.291,28.123,69.75Z" transform="translate(23.111 2.546)" fill="#f68c95"/>
            <path id="Leg-2" data-name="Leg" d="M20.745,76.362c13.9,3.513,64.747,9.865,68.236,10.861,3.589,1.025,6.737-6.374,2.3-7.976A367.049,367.049,0,0,0,52.975,68.4c-9.486-1.934-18.143-3.512-23.954-4.436C29.513,47.639,31.764,8.462,30.289,0H0C1.415,8.114,13.373,67.319,15.6,73.245c.705,2.116,2.81,3.051,5.149,3.117Z" transform="translate(58.495 2.546)" fill="#f68c95"/>
            <g id="Left_Shoe" data-name="Left Shoe" transform="matrix(-0.174, 0.985, -0.985, -0.174, 158.137, 80.345)">
              <path id="shoe" d="M2.648,9.452a1.184,1.184,0,0,1-1.518-.8L0,4.673A38.03,38.03,0,0,1,.534,0H33.922s1.3,4.3-1.5,4.646-4.659.62-4.659.62L12.242,12.184a.592.592,0,0,1-.788-.315l-1-2.42A13.417,13.417,0,0,0,6.238,8.238Z" transform="translate(0 0)" fill="#e4e4e4"/>
            </g>
            <g id="Right_Shoe" data-name="Right Shoe" transform="translate(0 131.794)">
              <path id="shoe-2" data-name="shoe" d="M31.576,3.115a1.184,1.184,0,0,1,1.518.8l1.13,3.981a38.03,38.03,0,0,1-.534,4.673H.3S-1,8.264,1.8,7.921,6.463,7.3,6.463,7.3L21.982.383A.592.592,0,0,1,22.77.7l1,2.42a13.417,13.417,0,0,0,4.219,1.211Z" transform="translate(0 -0.332)" fill="#e4e4e4"/>
            </g>
            <path id="Skirt" d="M53.87,3.083s-20.021-5.728-37.887,0C11.84,21.99,1.771,29.494,0,58.48c20.127,10,44.991-7.132,65.71,2.62C71.63,47.459,63.342,14.606,53.87,3.083Z" transform="translate(34.816 -0.538)" fill="#273e47"/>
          </g>
          <g id="Body_Long_Sleeve_1" data-name="Body/Long Sleeve 1" transform="translate(0 0)">
            <path id="Arm" d="M4.709,27.231,22.84,12.4A50.83,50.83,0,0,0,35.389,6.573c.772-.781,1.673-2.328-1.675-1.894S26.825,5.42,26.3,4.3s1.438-2.6.42-4.1Q25.7-1.3,18.268,8.423L0,17.145Z" transform="translate(33.712 77.702) rotate(-159)" fill="#f68c95"/>
            <path id="Arm-2" data-name="Arm" d="M32.335,51.4S17.188,17.879,14.76,14.8c-1.187-1.507-8.414-5.315-13.3-7.33-1.959-.809-1.571-2.46-1.009-3C5.02.113,9.294,3.211,14.29,4.36c5.474,1.259,3.663-5.2,7.987-4.268-.635,2.975-2.4,8.635-.35,11.671,1.364,2.024,20.76,37.385,20.76,37.385Z" transform="matrix(-1, -0.017, 0.017, -1, 169.346, 106.385)" fill="#f68c95"/>
            <path id="Clothes_Back" data-name="Clothes Back" d="M0,64.349l6.285,2.707c10.7-21.164,25.649-41.239,49.094-57.249L50.786,0C30.568,9.644,11.6,16.849,2.725,33.2-.252,38.685.394,57.511,0,64.349Z" transform="translate(73.124 80.317) rotate(-163)" fill="#6fe147"/>
            <path id="Shirt" d="M45.017,66.425s-27.916,3.067-43.947,0C-.254,66.171-.2,60.464.418,58.9,9.98,34.63,16.27,16.86,16.27,0c2.632,1.375,9.211.412,9.211.412C37.27,17.787,42.689,37.723,45.017,66.425Z" transform="translate(70.221 11.561)" fill="#191847"/>
            <path id="Coat_Front" data-name="Coat Front" d="M55.145,133.788h-.921S20.485,113.077,4.034,66.062A13.08,13.08,0,0,1,.372,64.813c-1.09-.565.436-3.952,1.73-4.665q-.7-2.3-1.342-4.686L11.94,52.17c8.1,21.346,17.7,33.661,25.624,40.724.143-6.69,1.865-13.494.745-20.426q-.212-1.313-.511-2.646a2.665,2.665,0,0,1-2.308-2.183l-.309-1.749a2.664,2.664,0,0,1,.8-2.4C28.88,42.805,10.679,19.683,9.77,0,23.848,5.623,38.147,3.947,51.1,2.27c9.515-1.231,18.3-2.463,25.745-.8,9.507,48.876-17.872,106.106-15.89,132.319Z" transform="translate(154.677 144.341) rotate(180)" fill="#6fe147"/>
            <path id="Shade_Lapel" data-name="Shade Lapel" d="M10.985,0l3.054,9.392-6.15,7.041,5.558,5.533L0,44.991,16.444,22.012l-5.459-5.579,5.459-6.222Z" transform="translate(87.022 11.145)" fill="rgba(0,0,0,0.1)"/>
            <path id="Buttons" d="M3.6,2.352a2.4,2.4,0,0,0,4.8,0,2.4,2.4,0,0,0-4.8,0ZM3,15.878a2.4,2.4,0,1,0,2.4-2.352A2.377,2.377,0,0,0,3,15.878ZM0,29.4a2.377,2.377,0,0,0,2.4,2.352,2.353,2.353,0,1,0,0-4.7A2.377,2.377,0,0,0,0,29.4Z" transform="translate(93 91.843) rotate(180)" fill="rgba(0,0,0,0.4)"/>
          </g>
        </g>
        <g id="Group_10614" data-name="Group 10614" transform="translate(279.78 232.839)">
          <path id="path570" d="M58.7-331.827a.334.334,0,0,0,.268.351c.385.029.846.057,1.365.09,1.224-3.184,2.543-5.713,2.2-4.725a16.373,16.373,0,0,0-.856,4.808c.6.034,2,.1,2.7.134,1.063-5.606,2.426-9.764,2.34-8.48-.344,5.174-.038,6.839.321,8.616,6.5.306,15.037.613,21.21.7.714-3.1,1.338-6.454,1.447-6.219a16.02,16.02,0,0,1,1.087,6.25c1.965.015,3.536-.01,4.493-.072,0,0,.46-2.606.526-3.463a17.906,17.906,0,0,0-.687-6.53,32.207,32.207,0,0,0-2.852-6.06l-.026-.043-.009-.017a18.451,18.451,0,0,1-1.641-4.044l-.011-.031a17.8,17.8,0,0,1-.507-3.106c-.285-3.828-2.44-7.141-6.037-8.155-6.792-6.4-13.6-3.719-15.657,1.187-.2.478-.39,1.027-.578,1.625l-.005.018c-.7,2.212-1.321,5.082-1.9,7.3l0,.012-.007.025,0,.006a20.9,20.9,0,0,1-.808,2.563c-1.717,3.991-5.641,6.257-6.368,17.257" transform="translate(-57.517 372.031)" fill="#17282f"/>
          <path id="path572" d="M57.566-357.077a7.235,7.235,0,0,1,4.172,5.827,18.667,18.667,0,0,0,.945,4.756A16.842,16.842,0,0,0,65.4-342.3a12.387,12.387,0,0,1,3.089,6.867,21.025,21.025,0,0,1-.813,8.669l-.023-.008a22.329,22.329,0,0,0,.316-9.041c-.514-3.032-2.23-4.941-3.984-7.247a12.652,12.652,0,0,1-2.579-6.19,15.089,15.089,0,0,0-.71-4.119,8.21,8.21,0,0,0-3.3-3.421.164.164,0,0,1,.167-.282" transform="translate(-29.488 368.344)" fill="#17282f"/>
          <path id="path574" d="M111.78-339.757c1.666-2.168,3.4-4.016,4.379-6.708.89-2.452,1.4-5.045,2.305-7.494l.06.019c-1.4,4.35-1.668,8.741-4.48,12.4a28.265,28.265,0,0,0-4.063,6.212,21.253,21.253,0,0,0-1.585,7.868.067.067,0,1,1-.134,0,17.591,17.591,0,0,1,3.518-12.292" transform="translate(-108.186 366.982)" fill="#17282f"/>
          <path id="path656" d="M90.815-319.39c-.2,1.117-2.844,6.184-6.249,6.07-1.751-.059-1.786-6.192-1.786-6.192l-.087-.45-1.207-6.312,8.593-5.088s.792,11.654.735,11.973" transform="translate(-65.373 357.171)" fill="#f68c95"/>
          <path id="path658" d="M91.164-327.015a12.913,12.913,0,0,1-7.679,7.051l-1.207-6.312,8.6-5.09s.136,1.99.287,4.351" transform="translate(-66.167 357.172)" fill="#17282f"/>
          <path id="path660" d="M77.634-349.54c-.986,11.235,5.631,13.094,8.054,13.3,2.2.191,9.713.561,11.855-10.513s-2.77-15.083-7.778-15.785S78.62-360.776,77.634-349.54" transform="translate(-70.378 370.753)" fill="#f68c95"/>
          <path id="path662" d="M107.839-344.858a7.11,7.11,0,0,0,.767-.139,1.254,1.254,0,0,0,.755-.29.4.4,0,0,0,.013-.49,1,1,0,0,0-.974-.26,1.462,1.462,0,0,0-.932.49.428.428,0,0,0,.371.689" transform="translate(-98.65 363.552)" fill="#17282f"/>
          <path id="path664" d="M98.164-344.473a7.385,7.385,0,0,1-.757-.182,1.258,1.258,0,0,1-.737-.333.4.4,0,0,1,.015-.49,1,1,0,0,1,.987-.2,1.463,1.463,0,0,1,.9.543.428.428,0,0,1-.41.667" transform="translate(-81.763 363.407)" fill="#17282f"/>
          <path id="path666" d="M99.07-338.562l.055.071c-.065.765-.009,1.653.671,1.944l-.009.042c-.84-.164-.9-1.342-.718-2.057" transform="translate(-84.252 360.296)" fill="#17282f"/>
          <path id="path668" d="M98.136-339.914c1.238-.029,1.205,2.45.058,2.476-1.129.027-1.1-2.452-.058-2.476" transform="translate(-82.591 360.883)" fill="#17282f"/>
          <path id="path670" d="M95.694-339.707c.215.143.423.393.684.423.3.034.533-.223.734-.469l.042.029c0,.475-.189.96-.7,1.025-.465.058-.793-.367-.906-.846-.021-.089.058-.219.144-.161" transform="translate(-79.665 360.814)" fill="#17282f"/>
          <path id="path672" d="M108.487-338.892l-.059.068c.02.768-.086,1.651-.782,1.9l.006.043c.848-.115.978-1.289.835-2.013" transform="translate(-97.893 360.44)" fill="#17282f"/>
          <path id="path674" d="M108.672-340.319c-1.235-.1-1.345,2.376-.2,2.469,1.126.091,1.236-2.385.2-2.469" transform="translate(-98.759 361.06)" fill="#17282f"/>
          <path id="path676" d="M110.952-340.206c-.2.123-.405.352-.64.358-.271.005-.46-.271-.622-.536l-.04.025c-.034.473.1.973.551,1.084.411.1.734-.291.868-.757.025-.087-.036-.223-.117-.173" transform="translate(-101.563 361.087)" fill="#17282f"/>
          <path id="path680" d="M102.537-338.541s-.187,1.142-.2,1.683a2.91,2.91,0,0,0,2.855-.8l-.079-.077a3.875,3.875,0,0,1-2.365.614c-.034-.151.386-1.946.3-1.955a4.722,4.722,0,0,0-1.235.247c.321-2.391,1.022-4.712,1.306-7.1a.074.074,0,0,0-.14-.038,39.015,39.015,0,0,0-1.732,7.585c-.052.306,1.071-.072,1.29-.158" transform="translate(-90.926 363.531)" fill="#17282f"/>
          <path id="path682" d="M100.751-330.533a2.8,2.8,0,0,0,1.113.875,1.257,1.257,0,0,0,.763.052c.553-.141.571-.648.472-1.083a3.019,3.019,0,0,0-.243-.665,3.622,3.622,0,0,1-2.106.821" transform="translate(-88.601 357.167)" fill="#17282f"/>
          <path id="path684" d="M100.751-329.147a1.259,1.259,0,0,0,.763.052c.553-.141.571-.648.472-1.082a1.3,1.3,0,0,0-1.235,1.031" transform="translate(-87.488 345.448)" fill="#f578ba"/>
          <path id="path686" d="M68.406-367.347c-.995-.286-2.325-5.616,1.028-8.46,3.3-2.8,8.125-.254,6.557,4.317-.992,2.889-5.481,4.749-7.585,4.142" transform="translate(-42.818 376.975)" fill="#17282f"/>
          <path id="path688" d="M71.077-376.144a6.061,6.061,0,0,1,2.309,3.267,3.656,3.656,0,0,1-.811,3.562,7.392,7.392,0,0,1-3.4,2,11.232,11.232,0,0,1-2.007.4,5.586,5.586,0,0,1-2.062-.069,4.921,4.921,0,0,0,2.076.447,9.158,9.158,0,0,0,2.142-.2,7.123,7.123,0,0,0,3.821-2.063,4.251,4.251,0,0,0,1.021-2.027,4.3,4.3,0,0,0-.213-2.232,5.347,5.347,0,0,0-2.881-3.085" transform="translate(-39.523 376.615)" fill="#17282f"/>
          <path id="path690" d="M93.93-347.926c-2.1.3-2.721-4.512-2.721-4.512s-8.995-1.371-9.877-8.661a12.359,12.359,0,0,1-6.122,6.867s.179-8.012,6.5-9.674c0,0,7.829-3,12.362,3.178s1.267,12.6-.143,12.8" transform="translate(-67.396 371.617)" fill="#17282f"/>
          <path id="path692" d="M87.523-359.341a7.941,7.941,0,0,0,.456,3.327,8.269,8.269,0,0,0,1.742,2.921,7.14,7.14,0,0,0,.615.6l.316.289c.113.087.23.17.347.25.235.161.464.332.7.483.25.135.5.265.756.392.127.063.251.13.38.188l.4.146.793.29c.544.142,1.1.256,1.641.36-.519-.216-1.05-.376-1.557-.595l-.749-.348-.373-.174c-.12-.066-.234-.142-.351-.212-.233-.145-.465-.287-.7-.423-.224-.155-.434-.327-.652-.49l-.325-.245-.3-.278a6.823,6.823,0,0,1-.575-.572,9.486,9.486,0,0,1-1.754-2.72,9.869,9.869,0,0,1-.528-1.553,9.585,9.585,0,0,1-.29-1.633" transform="translate(-73.627 369.318)" fill="#17282f"/>
          <path id="path694" d="M74.306-337.943s2.465-3.518,4.062-2.638-.26,5.98-2.136,6.676a1.907,1.907,0,0,1-2.555-1.028l.629-3.011" transform="translate(-49.111 361.234)" fill="#f68c95"/>
          <path id="path696" d="M78.827-337.913l.009.051a4.82,4.82,0,0,0-2.495,3.014,1.053,1.053,0,0,1,1.576-.287l-.036.071a1.173,1.173,0,0,0-1.291.407,5.68,5.68,0,0,0-.62,1.044c-.061.118-.273.054-.229-.082l.011-.03c-.031-1.676,1.274-4.021,3.074-4.189" transform="translate(-50.138 360.014)" fill="#17282f"/>
          <path id="path698" d="M79.821-329.882a.484.484,0,0,1-.594.34.484.484,0,0,1-.34-.594.484.484,0,0,1,.594-.34.484.484,0,0,1,.34.594" transform="translate(-52.912 356.793)" fill="#33535f"/>
          <path id="path700" d="M79.77-329.753a.229.229,0,0,1-.281.161.23.23,0,0,1-.161-.281.229.229,0,0,1,.281-.161.229.229,0,0,1,.161.281" transform="translate(-53.108 356.597)" fill="#17282f"/>
          <path id="path702" d="M78.053-330.787a.343.343,0,0,1-.42.241.343.343,0,0,1-.241-.42.342.342,0,0,1,.42-.241.343.343,0,0,1,.241.42" transform="translate(-50.297 357.108)" fill="#33535f"/>
        </g>
      </g>
    </g>
  </g>
</svg>
