<svg width="30" height="30" viewBox="0 0 30 30" fill="none" xmlns="http://www.w3.org/2000/svg">
<path d="M23.75 11.25V23.75C23.75 24.4404 23.1904 25 22.5 25H7.5C6.80965 25 6.25 24.4404 6.25 23.75V11.25M23.75 11.25L15.8135 4.44728C15.3454 4.04604 14.6546 4.04604 14.1865 4.44728L6.25 11.25M23.75 11.25L26.875 13.75M6.25 11.25L3.125 13.75M15 20C17.0711 20 18.75 18.3211 18.75 16.25C18.75 14.1789 17.0711 12.5 15 12.5C12.9289 12.5 11.25 14.1789 11.25 16.25C11.25 18.3211 12.9289 20 15 20ZM15 20C12.2386 20 10 22.2386 10 25M15 20C17.7614 20 20 22.2386 20 25" stroke="black" stroke-width="2" stroke-linecap="round" stroke-linejoin="round"/>
</svg>
