<svg xmlns="http://www.w3.org/2000/svg" width="21.56" height="20.181" viewBox="0 0 21.56 20.181">
  <g id="Group_14" data-name="Group 14" transform="translate(0.652 0.5)">
    <path id="Path_2" data-name="Path 2" d="M307.8,120.512a2.595,2.595,0,1,1-2.595-2.595,2.595,2.595,0,0,1,2.595,2.595" transform="translate(-295.081 -117.917)" fill="none" stroke="#142741" stroke-width="1"/>
    <path id="Path_3" data-name="Path 3" d="M295.662,239.534,298.81,227.8h-6.3Z" transform="translate(-285.534 -221.783)" fill="none" stroke="#142741" stroke-width="1"/>
    <path id="Path_4" data-name="Path 4" d="M180.333,120.512a2.595,2.595,0,1,1-2.595-2.595,2.595,2.595,0,0,1,2.595,2.595" transform="translate(-174.591 -117.917)" fill="none" stroke="#142741" stroke-width="1"/>
    <path id="Path_5" data-name="Path 5" d="M168.2,239.534l3.148-11.734h-6.3Z" transform="translate(-165.048 -221.783)" fill="none" stroke="#142741" stroke-width="1"/>
    <path id="Path_6" data-name="Path 6" d="M435.284,120.512a2.595,2.595,0,1,1-2.595-2.595,2.595,2.595,0,0,1,2.595,2.595" transform="translate(-415.58 -117.917)" fill="none" stroke="#142741" stroke-width="1"/>
    <path id="Path_7" data-name="Path 7" d="M419.99,227.8l3.148,11.734,3.148-11.734Z" transform="translate(-406.029 -221.783)" fill="none" stroke="#142741" stroke-width="1"/>
  </g>
</svg>
