<svg xmlns="http://www.w3.org/2000/svg" width="36.901" height="33.275" viewBox="0 0 36.901 33.275">
  <path id="Map" d="M228.985,143.859l-10.637-5.712a1.717,1.717,0,0,0-1.773,0l-10.768,5.778a.834.834,0,0,1-.394-.065l-9.455-5.056a1.693,1.693,0,0,0-1.839.066,1.872,1.872,0,0,0-.919,1.642v23.047a1.855,1.855,0,0,0,.985,1.642l10.637,5.712a2.134,2.134,0,0,0,.919.262,1.641,1.641,0,0,0,.919-.262l10.768-5.778a.835.835,0,0,1,.394.065l9.455,5.056a2.094,2.094,0,0,0,.919.2,1.851,1.851,0,0,0,.985-.262,1.872,1.872,0,0,0,.919-1.642V145.566a2.087,2.087,0,0,0-1.117-1.707Zm-24.032,25.673-10.178-5.45a.67.67,0,0,1-.328-.525V140.51a.645.645,0,0,1,.262-.525.6.6,0,0,1,.591,0l9.455,5.056c.065,0,.131.066.2.066Zm11.95-5.581h-.065l-.2.131L206.332,169.6V145.172l.262-.131,10.309-5.515Zm11.819,4.662a.645.645,0,0,1-.262.525.6.6,0,0,1-.591,0l-9.455-5.056c-.065,0-.131-.065-.2-.065V139.591l10.178,5.45a.67.67,0,0,1,.328.525Z" transform="translate(-193.2 -137.9)" fill="#4dcc86"/>
</svg>
