<svg xmlns="http://www.w3.org/2000/svg" width="48.866" height="42.014" viewBox="0 0 48.866 42.014">
  <path id="College" d="M151.771,43.717,129.547,35.17a1.708,1.708,0,0,0-1.231,0l-22.223,8.547a1.707,1.707,0,0,0-.017,3.179l7.471,2.923v7.932a3.419,3.419,0,0,0,2.137,3.231l12.155,4.53a3.091,3.091,0,0,0,1.094.2,3.236,3.236,0,0,0,1.077-.188l10.89-4.068V63.6l-3.128,4.7a1.708,1.708,0,0,0,0,1.88l3.419,5.128a1.709,1.709,0,0,0,2.837,0l3.419-5.128a1.708,1.708,0,0,0,0-1.88l-3.128-4.7V49.82L151.79,46.9a1.707,1.707,0,0,0-.017-3.179Zm-9.163,27.574L141.24,69.24l1.368-2.051,1.368,2.051ZM140.984,56.88a1.707,1.707,0,0,0-.085.393v.53l-11.966,4.479-11.966-4.531v-6.58L128.3,55.564a1.71,1.71,0,0,0,1.265,0l11.333-4.41ZM142.5,46.863l-12.97-4.872a1.715,1.715,0,1,0-1.2,3.214l9.419,3.522-8.821,3.419-17.5-6.838,17.5-6.718,17.505,6.718Z" transform="translate(-104.5 -34.55)" fill="none" stroke="#4dcc86" stroke-width="1"/>
</svg>
