<svg xmlns="http://www.w3.org/2000/svg" width="33.054" height="26.392" viewBox="0 0 33.054 26.392">
  <g id="Group_15" data-name="Group 15" transform="translate(747.039 -100)">
    <path id="Path_9" data-name="Path 9" d="M0,2.654A1.471,1.471,0,0,1,1.471,1.183H31.583a1.471,1.471,0,1,1,0,2.942H1.471A1.471,1.471,0,0,1,0,2.654Z" transform="translate(-747.039 98.817)" fill="#fff"/>
    <path id="Path_10" data-name="Path 10" d="M0,249.829a1.471,1.471,0,0,1,1.471-1.471H31.583a1.471,1.471,0,0,1,0,2.942H1.471A1.471,1.471,0,0,1,0,249.829Z" transform="translate(-747.039 -136.635)" fill="#fff"/>
    <path id="Path_11" data-name="Path 11" d="M0,497.1a1.471,1.471,0,0,1,1.471-1.471H31.583a1.471,1.471,0,1,1,0,2.942H1.471A1.471,1.471,0,0,1,0,497.1Z" transform="translate(-747.039 -372.178)" fill="#fff"/>
  </g>
</svg>
