<svg xmlns="http://www.w3.org/2000/svg" width="18.421" height="20" viewBox="0 0 18.421 20">
  <path id="stroller_FILL0_wght400_GRAD0_opsz48" d="M20.842,26a1.572,1.572,0,1,1,1.118-.461A1.523,1.523,0,0,1,20.842,26ZM10.579,26a1.572,1.572,0,1,1,1.118-.461A1.523,1.523,0,0,1,10.579,26Zm2.237-6.316h7.237v-8.5Zm-1.158,1.579a.975.975,0,0,1-.961-.605.991.991,0,0,1,.171-1.132L21.316,7.237a3.656,3.656,0,0,1,1.145-.882A3.124,3.124,0,0,1,23.895,6a3.5,3.5,0,0,1,3.526,3.526v.684H25.842V9.526a1.932,1.932,0,0,0-1.947-1.947,1.476,1.476,0,0,0-.789.211,3.226,3.226,0,0,0-.711.632l-.763.868V19.684a1.572,1.572,0,0,1-1.579,1.579ZM15,10.605l2.132-2.526a5.159,5.159,0,0,0-1.039-.263,7.909,7.909,0,0,0-1.145-.079,8.3,8.3,0,0,0-1.224.092,7.667,7.667,0,0,0-1.2.276Zm.105,2.316L9.868,7.684a7.3,7.3,0,0,1,2.316-1.118,9.715,9.715,0,0,1,2.789-.408,9.441,9.441,0,0,1,2.461.329,11.074,11.074,0,0,1,2.355.934ZM16.447,15.421ZM15,10.605Z" transform="translate(-9 -6)" fill="#fff"/>
</svg>
