<svg xmlns="http://www.w3.org/2000/svg" width="32.631" height="29.116" viewBox="0 0 32.631 29.116">
  <path id="Message" d="M73.782,31.171a2.684,2.684,0,0,0-2.689,2.67V50.018a2.684,2.684,0,0,0,2.689,2.67h1.051V59.81h0a.477.477,0,0,0,.288.437.484.484,0,0,0,.519-.088l8.1-7.472h17.295a2.684,2.684,0,0,0,2.689-2.67V33.84a2.684,2.684,0,0,0-2.689-2.67H73.782Zm0,.954h27.257a1.708,1.708,0,0,1,1.728,1.716V50.018a1.708,1.708,0,0,1-1.728,1.716H83.556a.483.483,0,0,0-.327.127l-7.435,6.855V52.21h0a.479.479,0,0,0-.481-.477H73.781a1.708,1.708,0,0,1-1.728-1.716V33.84a1.708,1.708,0,0,1,1.728-1.716Z" transform="translate(-71.093 -31.17)" fill="#4dcc86"/>
</svg>
