<svg width="374" height="261" viewBox="0 0 374 261" fill="none" xmlns="http://www.w3.org/2000/svg">
<path d="M23.1762 224.308C23.1762 224.308 -23.6508 166.267 15.8182 107.702C35.9072 77.873 81.2742 73.365 109.84 84.749C124.386 90.549 153.463 81.573 191.216 33.149C238.808 -27.897 382.805 -2.94602 357.258 109.776C345.08 163.521 389.258 173.559 367.196 224.426L23.1762 224.308Z" fill="#2F3445"/>
<path d="M194.866 34.264V218.604C194.862 219.998 194.306 221.333 193.321 222.319C192.335 223.304 191 223.86 189.606 223.864H97.426C96.0323 223.86 94.6968 223.304 93.7113 222.319C92.7258 221.333 92.1702 219.998 92.166 218.604V34.264C92.1702 32.8703 92.7258 31.5348 93.7113 30.5493C94.6968 29.5637 96.0323 29.0082 97.426 29.004H189.605C190.997 29.0142 192.329 29.5716 193.313 30.5558C194.298 31.54 194.856 32.872 194.866 34.264Z" fill="#484D60"/>
<path d="M189.392 41.012H98.333V203.098H189.392V41.012Z" fill="#EAFCFC"/>
<path d="M182.772 159.575H104.939C104.535 159.575 104.135 159.496 103.762 159.341C103.388 159.187 103.049 158.96 102.763 158.675C102.478 158.389 102.251 158.05 102.097 157.676C101.942 157.303 101.863 156.903 101.863 156.499V112.237C101.863 111.833 101.942 111.433 102.097 111.06C102.251 110.686 102.478 110.347 102.763 110.061C103.049 109.776 103.388 109.549 103.762 109.395C104.135 109.24 104.535 109.161 104.939 109.161H182.785C183.189 109.161 183.589 109.24 183.963 109.395C184.336 109.549 184.675 109.776 184.961 110.061C185.246 110.347 185.473 110.686 185.627 111.06C185.782 111.433 185.861 111.833 185.861 112.237V156.498C185.855 157.314 185.527 158.095 184.949 158.671C184.371 159.247 183.588 159.572 182.772 159.575Z" fill="#2F3445"/>
<path d="M128.29 149.395L110.342 149.537C110.161 149.538 109.98 149.504 109.812 149.435C109.644 149.367 109.491 149.266 109.362 149.138C109.233 149.01 109.13 148.858 109.06 148.691C108.99 148.523 108.954 148.344 108.953 148.162V147.992C108.952 147.811 108.987 147.63 109.055 147.462C109.124 147.294 109.225 147.141 109.352 147.012C109.48 146.883 109.632 146.781 109.799 146.71C109.967 146.64 110.147 146.604 110.328 146.603L128.276 146.461C128.458 146.46 128.638 146.494 128.806 146.563C128.974 146.631 129.127 146.732 129.256 146.86C129.385 146.988 129.488 147.14 129.558 147.307C129.628 147.475 129.665 147.654 129.665 147.836V148.006C129.668 148.188 129.634 148.369 129.566 148.537C129.498 148.706 129.397 148.86 129.269 148.989C129.141 149.118 128.988 149.221 128.82 149.29C128.652 149.36 128.472 149.396 128.29 149.395Z" fill="white"/>
<path d="M151.951 149.211L134.003 149.353C133.822 149.354 133.642 149.32 133.473 149.251C133.305 149.182 133.152 149.081 133.023 148.954C132.894 148.826 132.792 148.674 132.721 148.507C132.651 148.339 132.615 148.16 132.614 147.978V147.808C132.613 147.626 132.648 147.446 132.716 147.278C132.785 147.11 132.886 146.957 133.013 146.828C133.141 146.699 133.293 146.597 133.46 146.526C133.628 146.456 133.807 146.42 133.989 146.419L151.937 146.277C152.119 146.276 152.299 146.311 152.467 146.379C152.635 146.448 152.788 146.549 152.917 146.676C153.046 146.804 153.149 146.956 153.219 147.123C153.289 147.291 153.325 147.47 153.326 147.652V147.822C153.326 148.188 153.182 148.539 152.924 148.799C152.667 149.059 152.317 149.207 151.951 149.211Z" fill="white"/>
<path d="M112.17 131.56C112.195 132.117 112.083 132.672 111.844 133.176C111.723 133.422 111.536 133.628 111.302 133.771C111.069 133.914 110.8 133.988 110.526 133.984C110.252 133.997 109.981 133.93 109.744 133.791C109.507 133.653 109.316 133.449 109.193 133.204C108.965 132.702 108.845 132.158 108.84 131.607C108.835 131.056 108.946 130.51 109.165 130.004C109.294 129.762 109.486 129.56 109.72 129.418C109.954 129.275 110.222 129.199 110.496 129.196C110.77 129.193 111.04 129.264 111.277 129.401C111.514 129.538 111.71 129.737 111.844 129.976C112.079 130.47 112.191 131.013 112.17 131.56ZM111.348 131.56C111.352 131.21 111.304 130.861 111.206 130.525C111.064 130.114 110.823 129.901 110.497 129.901C110.171 129.901 109.93 130.113 109.788 130.525C109.683 130.86 109.635 131.209 109.646 131.56C109.66 132.68 109.946 133.233 110.511 133.233C110.837 133.233 111.078 133.02 111.206 132.595C111.314 132.261 111.361 131.911 111.347 131.56H111.348Z" fill="white"/>
<path d="M115.856 131.533C115.881 132.09 115.769 132.645 115.53 133.149C115.409 133.395 115.222 133.601 114.988 133.744C114.755 133.887 114.486 133.961 114.212 133.957C113.938 133.97 113.667 133.903 113.43 133.764C113.193 133.626 113.002 133.422 112.879 133.177C112.651 132.675 112.531 132.131 112.526 131.58C112.521 131.029 112.632 130.483 112.851 129.977C112.98 129.735 113.172 129.533 113.406 129.391C113.64 129.248 113.908 129.172 114.182 129.169C114.456 129.166 114.726 129.237 114.963 129.374C115.2 129.511 115.396 129.71 115.53 129.949C115.758 130.445 115.87 130.987 115.856 131.533ZM115.034 131.533C115.038 131.183 114.99 130.834 114.892 130.498C114.75 130.087 114.509 129.874 114.183 129.874C113.857 129.874 113.616 130.087 113.474 130.498C113.369 130.833 113.321 131.182 113.332 131.533C113.346 132.653 113.632 133.206 114.197 133.206C114.523 133.206 114.764 132.993 114.892 132.568C114.999 132.234 115.046 131.883 115.033 131.533H115.034Z" fill="white"/>
<path d="M119.542 131.504C119.567 132.061 119.455 132.616 119.216 133.12C119.096 133.366 118.908 133.572 118.674 133.715C118.441 133.858 118.172 133.932 117.898 133.928C117.624 133.941 117.353 133.874 117.116 133.736C116.879 133.597 116.688 133.393 116.565 133.148C116.337 132.646 116.217 132.102 116.212 131.551C116.207 131 116.318 130.454 116.537 129.948C116.666 129.706 116.858 129.504 117.092 129.362C117.327 129.22 117.595 129.143 117.869 129.14C118.143 129.137 118.413 129.208 118.65 129.345C118.887 129.483 119.083 129.681 119.217 129.92C119.445 130.416 119.556 130.958 119.542 131.504ZM118.72 131.504C118.724 131.154 118.676 130.805 118.578 130.469C118.436 130.058 118.195 129.845 117.869 129.845C117.543 129.845 117.302 130.058 117.16 130.469C117.055 130.804 117.007 131.153 117.018 131.504C117.032 132.624 117.318 133.177 117.883 133.177C118.209 133.177 118.45 132.964 118.578 132.539C118.685 132.205 118.732 131.855 118.719 131.504H118.72Z" fill="white"/>
<path d="M123.228 131.475C123.253 132.032 123.141 132.587 122.902 133.091C122.782 133.337 122.594 133.543 122.36 133.686C122.127 133.829 121.858 133.903 121.584 133.899C121.31 133.912 121.039 133.845 120.802 133.706C120.565 133.568 120.374 133.364 120.251 133.119C120.023 132.617 119.903 132.073 119.898 131.522C119.893 130.971 120.004 130.425 120.223 129.919C120.352 129.677 120.544 129.475 120.778 129.333C121.013 129.19 121.281 129.114 121.555 129.111C121.829 129.108 122.099 129.179 122.336 129.316C122.573 129.454 122.769 129.652 122.903 129.891C123.131 130.387 123.242 130.929 123.228 131.475ZM122.406 131.475C122.41 131.125 122.362 130.776 122.264 130.44C122.122 130.029 121.881 129.816 121.555 129.816C121.229 129.816 120.988 130.029 120.846 130.44C120.741 130.775 120.693 131.124 120.704 131.475C120.718 132.595 121.004 133.148 121.569 133.148C121.895 133.148 122.136 132.935 122.264 132.51C122.371 132.176 122.418 131.825 122.405 131.475H122.406Z" fill="white"/>
<path d="M128.814 131.433C128.839 131.99 128.727 132.545 128.488 133.049C128.368 133.295 128.18 133.501 127.946 133.644C127.713 133.787 127.444 133.861 127.17 133.857C126.896 133.87 126.625 133.803 126.388 133.665C126.151 133.526 125.96 133.322 125.837 133.077C125.609 132.575 125.489 132.031 125.484 131.48C125.479 130.929 125.59 130.383 125.809 129.877C125.938 129.635 126.13 129.433 126.364 129.291C126.599 129.149 126.867 129.072 127.141 129.069C127.415 129.066 127.685 129.137 127.922 129.274C128.159 129.412 128.355 129.61 128.489 129.849C128.71 130.347 128.821 130.888 128.814 131.433ZM127.992 131.433C127.996 131.083 127.948 130.734 127.85 130.398C127.708 129.987 127.467 129.774 127.141 129.774C126.815 129.774 126.574 129.987 126.432 130.398C126.327 130.733 126.279 131.082 126.29 131.433C126.304 132.553 126.59 133.106 127.155 133.106C127.481 133.106 127.722 132.893 127.85 132.468C127.957 132.134 128.004 131.784 127.991 131.433H127.992Z" fill="white"/>
<path d="M132.5 131.404C132.525 131.961 132.413 132.516 132.174 133.02C132.053 133.266 131.865 133.472 131.632 133.615C131.399 133.758 131.13 133.832 130.856 133.828C130.582 133.841 130.311 133.774 130.074 133.635C129.837 133.497 129.646 133.293 129.523 133.048C129.295 132.546 129.175 132.002 129.17 131.451C129.165 130.9 129.276 130.354 129.495 129.848C129.624 129.606 129.816 129.404 130.05 129.262C130.284 129.119 130.552 129.043 130.826 129.04C131.1 129.037 131.37 129.108 131.607 129.245C131.844 129.382 132.04 129.581 132.174 129.82C132.396 130.318 132.507 130.859 132.5 131.404ZM131.678 131.404C131.682 131.054 131.634 130.705 131.536 130.369C131.394 129.958 131.153 129.745 130.827 129.745C130.501 129.745 130.26 129.958 130.118 130.369C130.013 130.704 129.965 131.053 129.976 131.404C129.99 132.524 130.276 133.077 130.841 133.077C131.167 133.077 131.408 132.864 131.536 132.439C131.643 132.105 131.69 131.754 131.677 131.404H131.678Z" fill="white"/>
<path d="M136.186 131.377C136.211 131.934 136.099 132.489 135.86 132.993C135.739 133.239 135.551 133.445 135.318 133.588C135.085 133.731 134.816 133.805 134.542 133.801C134.268 133.814 133.996 133.747 133.76 133.609C133.523 133.47 133.332 133.266 133.209 133.021C132.981 132.519 132.86 131.975 132.856 131.424C132.851 130.873 132.962 130.327 133.181 129.821C133.31 129.579 133.502 129.377 133.736 129.235C133.97 129.092 134.239 129.016 134.513 129.013C134.787 129.01 135.056 129.081 135.294 129.218C135.531 129.356 135.727 129.554 135.861 129.793C136.082 130.291 136.193 130.832 136.186 131.377ZM135.364 131.377C135.368 131.027 135.32 130.678 135.222 130.342C135.08 129.931 134.839 129.718 134.513 129.718C134.187 129.718 133.946 129.931 133.804 130.342C133.699 130.677 133.651 131.026 133.662 131.377C133.676 132.497 133.962 133.05 134.527 133.05C134.853 133.05 135.094 132.837 135.222 132.412C135.328 132.078 135.376 131.728 135.363 131.377H135.364Z" fill="white"/>
<path d="M139.871 131.347C139.896 131.904 139.784 132.459 139.545 132.963C139.424 133.209 139.236 133.415 139.003 133.558C138.77 133.701 138.501 133.775 138.227 133.771C137.953 133.784 137.681 133.717 137.445 133.579C137.208 133.44 137.017 133.236 136.894 132.991C136.666 132.489 136.545 131.945 136.54 131.394C136.535 130.843 136.646 130.297 136.865 129.791C136.994 129.549 137.186 129.347 137.42 129.205C137.654 129.063 137.923 128.986 138.197 128.983C138.471 128.98 138.74 129.051 138.978 129.188C139.215 129.326 139.411 129.524 139.545 129.763C139.767 130.261 139.878 130.802 139.871 131.347ZM139.049 131.347C139.053 130.997 139.005 130.648 138.907 130.312C138.765 129.901 138.524 129.688 138.198 129.688C137.872 129.688 137.631 129.901 137.489 130.312C137.384 130.647 137.336 130.996 137.347 131.347C137.361 132.467 137.647 133.02 138.212 133.02C138.538 133.02 138.779 132.807 138.907 132.382C139.014 132.048 139.062 131.698 139.049 131.347Z" fill="white"/>
<path d="M145.457 131.306C145.482 131.863 145.37 132.418 145.131 132.922C145.011 133.168 144.823 133.374 144.589 133.517C144.356 133.66 144.087 133.734 143.813 133.73C143.539 133.746 143.266 133.68 143.029 133.542C142.792 133.403 142.601 133.197 142.48 132.95C142.252 132.448 142.132 131.904 142.127 131.353C142.122 130.802 142.233 130.256 142.452 129.75C142.581 129.508 142.773 129.306 143.007 129.163C143.241 129.021 143.509 128.945 143.783 128.942C144.057 128.939 144.327 129.01 144.564 129.147C144.801 129.284 144.997 129.483 145.131 129.722C145.353 130.22 145.464 130.761 145.457 131.306ZM144.635 131.306C144.639 130.956 144.591 130.607 144.493 130.271C144.351 129.86 144.11 129.647 143.784 129.647C143.458 129.647 143.217 129.86 143.075 130.271C142.97 130.606 142.922 130.955 142.933 131.306C142.947 132.426 143.233 132.979 143.798 132.979C144.124 132.979 144.365 132.766 144.493 132.341C144.6 132.007 144.648 131.657 144.635 131.306Z" fill="white"/>
<path d="M149.143 131.276C149.168 131.833 149.056 132.388 148.817 132.892C148.696 133.138 148.509 133.344 148.275 133.487C148.042 133.63 147.773 133.704 147.499 133.7C147.225 133.713 146.954 133.646 146.717 133.507C146.48 133.369 146.289 133.165 146.166 132.92C145.938 132.418 145.817 131.874 145.813 131.323C145.808 130.772 145.919 130.226 146.138 129.72C146.267 129.478 146.459 129.276 146.693 129.134C146.927 128.991 147.195 128.915 147.469 128.912C147.743 128.909 148.013 128.98 148.25 129.117C148.487 129.254 148.683 129.453 148.817 129.692C149.039 130.19 149.15 130.731 149.143 131.276ZM148.307 131.276C148.311 130.926 148.263 130.577 148.165 130.241C148.023 129.83 147.782 129.617 147.456 129.617C147.13 129.617 146.889 129.83 146.747 130.241C146.642 130.576 146.594 130.925 146.605 131.276C146.619 132.396 146.905 132.949 147.47 132.949C147.796 132.949 148.037 132.736 148.165 132.311C148.286 131.98 148.334 131.627 148.307 131.276Z" fill="white"/>
<path d="M152.816 131.248C152.841 131.805 152.729 132.36 152.49 132.864C152.369 133.11 152.181 133.316 151.948 133.459C151.714 133.602 151.445 133.676 151.171 133.672C150.897 133.685 150.626 133.618 150.389 133.48C150.152 133.341 149.961 133.137 149.838 132.892C149.61 132.39 149.49 131.846 149.485 131.295C149.48 130.744 149.591 130.198 149.81 129.692C149.939 129.45 150.131 129.248 150.365 129.105C150.599 128.963 150.867 128.887 151.141 128.884C151.415 128.881 151.685 128.952 151.922 129.089C152.159 129.226 152.355 129.425 152.489 129.664C152.724 130.158 152.836 130.701 152.816 131.248ZM151.994 131.248C151.998 130.898 151.95 130.549 151.852 130.213C151.71 129.802 151.469 129.589 151.143 129.589C150.817 129.589 150.576 129.802 150.434 130.213C150.329 130.548 150.281 130.897 150.292 131.248C150.306 132.368 150.592 132.921 151.157 132.921C151.483 132.921 151.724 132.708 151.852 132.283C151.972 131.952 152.021 131.599 151.993 131.248H151.994Z" fill="white"/>
<path d="M156.502 131.22C156.527 131.777 156.415 132.332 156.176 132.836C156.055 133.082 155.867 133.288 155.634 133.431C155.4 133.574 155.131 133.648 154.857 133.644C154.583 133.657 154.312 133.59 154.075 133.452C153.838 133.313 153.647 133.109 153.524 132.864C153.296 132.362 153.176 131.818 153.171 131.267C153.166 130.716 153.277 130.17 153.496 129.664C153.625 129.423 153.817 129.22 154.051 129.078C154.285 128.936 154.553 128.86 154.827 128.857C155.101 128.854 155.371 128.925 155.608 129.062C155.845 129.199 156.041 129.397 156.175 129.636C156.41 130.13 156.522 130.673 156.502 131.22ZM155.68 131.22C155.684 130.87 155.636 130.521 155.538 130.185C155.396 129.774 155.155 129.561 154.829 129.561C154.503 129.561 154.262 129.774 154.12 130.185C154.015 130.52 153.967 130.869 153.978 131.22C153.992 132.34 154.278 132.893 154.843 132.893C155.169 132.893 155.41 132.68 155.538 132.255C155.652 131.922 155.699 131.571 155.679 131.22H155.68Z" fill="white"/>
<path d="M162.088 131.177C162.113 131.734 162.001 132.289 161.762 132.793C161.641 133.039 161.453 133.245 161.22 133.388C160.987 133.531 160.718 133.605 160.444 133.601C160.17 133.614 159.898 133.547 159.662 133.409C159.425 133.27 159.234 133.066 159.111 132.821C158.883 132.319 158.763 131.775 158.758 131.224C158.753 130.673 158.864 130.127 159.083 129.621C159.212 129.379 159.404 129.177 159.638 129.035C159.872 128.893 160.14 128.817 160.414 128.814C160.688 128.811 160.958 128.882 161.195 129.019C161.432 129.156 161.628 129.354 161.762 129.593C161.997 130.087 162.109 130.63 162.088 131.177ZM161.266 131.177C161.27 130.827 161.222 130.478 161.124 130.142C160.982 129.731 160.741 129.518 160.415 129.518C160.089 129.518 159.848 129.731 159.706 130.142C159.601 130.477 159.553 130.826 159.564 131.177C159.578 132.297 159.864 132.85 160.429 132.85C160.755 132.85 160.996 132.637 161.124 132.212C161.237 131.879 161.285 131.528 161.265 131.177H161.266Z" fill="white"/>
<path d="M165.774 131.15C165.799 131.707 165.687 132.262 165.448 132.766C165.327 133.012 165.139 133.218 164.906 133.361C164.673 133.504 164.404 133.578 164.13 133.574C163.856 133.587 163.584 133.52 163.348 133.382C163.111 133.243 162.92 133.039 162.797 132.794C162.569 132.292 162.449 131.748 162.444 131.197C162.439 130.646 162.55 130.1 162.769 129.594C162.898 129.352 163.09 129.15 163.324 129.008C163.558 128.865 163.826 128.789 164.1 128.786C164.374 128.783 164.644 128.854 164.881 128.991C165.118 129.129 165.314 129.327 165.448 129.566C165.683 130.06 165.795 130.603 165.774 131.15ZM164.952 131.15C164.956 130.8 164.908 130.451 164.81 130.115C164.668 129.704 164.427 129.491 164.101 129.491C163.775 129.491 163.534 129.704 163.392 130.115C163.287 130.45 163.239 130.799 163.25 131.15C163.264 132.27 163.55 132.823 164.115 132.823C164.441 132.823 164.682 132.61 164.81 132.185C164.916 131.851 164.964 131.501 164.951 131.15H164.952Z" fill="white"/>
<path d="M169.459 131.12C169.484 131.677 169.372 132.232 169.133 132.736C169.012 132.982 168.825 133.188 168.591 133.331C168.358 133.474 168.089 133.548 167.815 133.544C167.541 133.557 167.27 133.49 167.033 133.352C166.796 133.213 166.605 133.009 166.482 132.764C166.254 132.262 166.133 131.718 166.128 131.167C166.123 130.616 166.234 130.07 166.453 129.564C166.582 129.323 166.774 129.12 167.008 128.978C167.242 128.836 167.51 128.76 167.784 128.757C168.058 128.754 168.328 128.825 168.565 128.962C168.802 129.099 168.998 129.297 169.132 129.536C169.367 130.03 169.479 130.573 169.459 131.12ZM168.637 131.12C168.641 130.77 168.593 130.421 168.495 130.085C168.353 129.674 168.112 129.461 167.786 129.461C167.46 129.461 167.219 129.674 167.077 130.085C166.972 130.42 166.924 130.769 166.935 131.12C166.949 132.24 167.235 132.793 167.8 132.793C168.126 132.793 168.367 132.58 168.495 132.155C168.602 131.821 168.65 131.471 168.637 131.12Z" fill="white"/>
<path d="M173.145 131.093C173.17 131.65 173.058 132.205 172.819 132.709C172.698 132.955 172.51 133.161 172.277 133.304C172.044 133.447 171.775 133.521 171.501 133.517C171.227 133.53 170.955 133.463 170.719 133.325C170.482 133.186 170.291 132.982 170.168 132.737C169.94 132.235 169.819 131.691 169.814 131.14C169.809 130.589 169.92 130.043 170.139 129.537C170.268 129.295 170.46 129.093 170.694 128.951C170.928 128.809 171.197 128.732 171.471 128.729C171.745 128.726 172.014 128.797 172.252 128.934C172.489 129.072 172.685 129.27 172.819 129.509C173.054 130.003 173.166 130.546 173.145 131.093ZM172.323 131.093C172.327 130.743 172.279 130.394 172.181 130.058C172.039 129.647 171.798 129.434 171.472 129.434C171.146 129.434 170.905 129.646 170.763 130.058C170.658 130.393 170.61 130.742 170.621 131.093C170.635 132.213 170.921 132.766 171.486 132.766C171.812 132.766 172.053 132.553 172.181 132.128C172.288 131.794 172.336 131.444 172.323 131.093Z" fill="white"/>
<path d="M127.68 119.142L110.115 119.284C109.934 119.285 109.754 119.251 109.585 119.182C109.417 119.114 109.264 119.013 109.135 118.885C109.006 118.757 108.904 118.605 108.833 118.438C108.763 118.27 108.727 118.091 108.726 117.909C108.725 117.727 108.76 117.547 108.828 117.379C108.897 117.211 108.998 117.058 109.125 116.929C109.253 116.8 109.405 116.698 109.572 116.627C109.74 116.557 109.92 116.521 110.101 116.52L127.666 116.378C127.848 116.377 128.028 116.412 128.196 116.48C128.364 116.549 128.517 116.65 128.646 116.777C128.775 116.905 128.878 117.057 128.948 117.224C129.018 117.392 129.054 117.571 129.055 117.753C129.05 118.117 128.904 118.466 128.648 118.725C128.391 118.984 128.045 119.134 127.68 119.142Z" fill="white"/>
<path d="M177.952 117.37C177.95 116.888 177.78 116.421 177.47 116.052C177.449 116.028 177.424 116.008 177.395 115.994C177.366 115.98 177.335 115.972 177.303 115.971C177.271 115.969 177.239 115.975 177.209 115.986C177.18 115.998 177.153 116.015 177.13 116.038L177.045 116.123C177.005 116.162 176.981 116.214 176.979 116.27C176.976 116.326 176.995 116.381 177.031 116.423C177.249 116.696 177.368 117.035 177.371 117.385C177.374 117.734 177.259 118.074 177.045 118.351C177.012 118.395 176.996 118.449 176.998 118.503C177.001 118.558 177.022 118.61 177.059 118.651L177.144 118.736C177.167 118.758 177.194 118.776 177.224 118.788C177.253 118.799 177.285 118.805 177.317 118.803C177.349 118.802 177.38 118.794 177.409 118.78C177.438 118.766 177.463 118.746 177.484 118.722C177.799 118.343 177.966 117.863 177.952 117.37Z" fill="white"/>
<path d="M179.101 117.355C179.097 116.562 178.799 115.799 178.265 115.214C178.245 115.191 178.22 115.172 178.192 115.159C178.164 115.146 178.133 115.14 178.102 115.14C178.071 115.14 178.041 115.146 178.013 115.159C177.984 115.172 177.959 115.191 177.939 115.214L177.897 115.257C177.856 115.298 177.833 115.355 177.833 115.413C177.833 115.471 177.856 115.527 177.897 115.569C178.336 116.067 178.582 116.705 178.592 117.369C178.599 118.031 178.362 118.671 177.926 119.169C177.89 119.214 177.872 119.27 177.874 119.328C177.877 119.385 177.9 119.439 177.94 119.481L177.983 119.524C178.005 119.545 178.031 119.561 178.06 119.572C178.088 119.583 178.119 119.587 178.149 119.586C178.179 119.585 178.209 119.577 178.237 119.564C178.264 119.551 178.289 119.533 178.309 119.51C178.824 118.911 179.105 118.145 179.101 117.355Z" fill="white"/>
<path d="M180.093 117.355C180.083 116.293 179.679 115.272 178.959 114.491C178.939 114.468 178.914 114.449 178.886 114.436C178.857 114.423 178.827 114.416 178.796 114.416C178.765 114.416 178.734 114.423 178.706 114.436C178.678 114.449 178.653 114.468 178.633 114.491C178.592 114.533 178.569 114.589 178.569 114.647C178.569 114.705 178.592 114.761 178.633 114.803C179.278 115.498 179.642 116.407 179.654 117.355C179.664 118.303 179.314 119.22 178.676 119.921C178.637 119.965 178.617 120.022 178.619 120.08C178.622 120.138 178.647 120.193 178.69 120.233C178.712 120.254 178.738 120.27 178.767 120.281C178.795 120.291 178.825 120.296 178.856 120.295C178.886 120.293 178.916 120.286 178.944 120.273C178.971 120.26 178.996 120.242 179.016 120.219C179.711 119.427 180.094 118.409 180.093 117.355Z" fill="white"/>
<path d="M181.17 117.341C181.158 115.991 180.636 114.695 179.71 113.712C179.69 113.689 179.665 113.67 179.637 113.657C179.608 113.644 179.578 113.638 179.547 113.638C179.516 113.638 179.486 113.644 179.457 113.657C179.429 113.67 179.404 113.689 179.384 113.712L179.299 113.797C179.258 113.839 179.235 113.895 179.235 113.953C179.235 114.011 179.258 114.067 179.299 114.109C180.127 114.984 180.593 116.14 180.604 117.344C180.614 118.549 180.168 119.713 179.356 120.602C179.315 120.644 179.292 120.7 179.292 120.758C179.292 120.816 179.315 120.872 179.356 120.914L179.441 120.999C179.485 121.04 179.544 121.063 179.604 121.063C179.664 121.063 179.723 121.04 179.767 120.999C180.681 120.001 181.182 118.694 181.17 117.341Z" fill="white"/>
<path d="M110.609 152.713C110.617 152.982 110.563 153.248 110.453 153.493C110.395 153.611 110.304 153.71 110.19 153.778C110.077 153.846 109.947 153.88 109.815 153.876C109.683 153.882 109.552 153.849 109.438 153.781C109.325 153.713 109.234 153.612 109.177 153.493C109.053 153.252 108.995 152.983 109.007 152.713C108.994 152.444 109.047 152.176 109.163 151.933C109.226 151.817 109.32 151.721 109.433 151.653C109.547 151.586 109.676 151.55 109.808 151.55C109.94 151.55 110.07 151.586 110.183 151.653C110.297 151.721 110.39 151.817 110.453 151.933C110.552 152.182 110.604 152.446 110.609 152.713ZM110.209 152.713C110.212 152.544 110.188 152.375 110.138 152.213C110.067 152.013 109.954 151.913 109.798 151.913C109.642 151.913 109.529 152.013 109.458 152.213C109.409 152.375 109.385 152.544 109.387 152.713C109.387 153.252 109.529 153.521 109.812 153.521C109.968 153.521 110.081 153.421 110.152 153.209C110.191 153.046 110.212 152.88 110.214 152.713H110.209Z" fill="white"/>
<path d="M112.381 152.699C112.389 152.967 112.335 153.234 112.225 153.479C112.167 153.597 112.076 153.696 111.962 153.764C111.849 153.832 111.719 153.866 111.587 153.862C111.455 153.868 111.324 153.835 111.21 153.767C111.097 153.699 111.006 153.598 110.949 153.479C110.825 153.238 110.767 152.969 110.779 152.699C110.764 152.43 110.818 152.162 110.935 151.919C110.998 151.803 111.092 151.707 111.205 151.639C111.319 151.572 111.448 151.536 111.58 151.536C111.712 151.536 111.842 151.572 111.955 151.639C112.068 151.707 112.162 151.803 112.225 151.919C112.337 152.163 112.39 152.43 112.381 152.699ZM111.981 152.699C111.984 152.53 111.96 152.361 111.91 152.199C111.839 151.999 111.726 151.899 111.57 151.899C111.414 151.899 111.301 151.999 111.23 152.199C111.181 152.361 111.157 152.53 111.159 152.699C111.159 153.238 111.301 153.507 111.584 153.507C111.74 153.507 111.853 153.407 111.924 153.195C111.97 153.034 111.991 152.866 111.986 152.699H111.981Z" fill="white"/>
<path d="M113.716 151.678C113.712 151.717 113.703 151.755 113.688 151.791L112.781 153.719C112.738 153.819 112.681 153.861 112.611 153.861C112.59 153.862 112.569 153.859 112.55 153.852C112.53 153.845 112.512 153.833 112.498 153.819C112.483 153.804 112.471 153.786 112.464 153.766C112.457 153.747 112.454 153.726 112.455 153.705C112.458 153.666 112.467 153.628 112.483 153.592L113.405 151.678C113.448 151.593 113.505 151.536 113.575 151.536C113.617 151.535 113.657 151.55 113.688 151.578C113.708 151.607 113.718 151.642 113.716 151.678Z" fill="white"/>
<path d="M115.372 152.67C115.38 152.938 115.326 153.205 115.216 153.45C115.158 153.568 115.067 153.668 114.953 153.735C114.84 153.803 114.71 153.837 114.578 153.833C114.446 153.839 114.315 153.806 114.201 153.738C114.088 153.67 113.997 153.57 113.94 153.45C113.816 153.209 113.758 152.94 113.77 152.67C113.757 152.401 113.81 152.133 113.926 151.89C113.989 151.774 114.083 151.678 114.196 151.61C114.31 151.543 114.439 151.507 114.571 151.507C114.703 151.507 114.833 151.543 114.946 151.61C115.059 151.678 115.153 151.774 115.216 151.89C115.325 152.135 115.378 152.402 115.372 152.67ZM114.972 152.67C114.975 152.501 114.951 152.332 114.901 152.17C114.83 151.97 114.717 151.87 114.561 151.87C114.405 151.87 114.292 151.97 114.221 152.17C114.172 152.332 114.148 152.501 114.15 152.67C114.15 153.209 114.292 153.478 114.575 153.478C114.731 153.478 114.844 153.378 114.915 153.166C114.961 153.005 114.982 152.838 114.977 152.67H114.972Z" fill="white"/>
<path d="M117.145 152.656C117.153 152.924 117.1 153.191 116.989 153.436C116.931 153.554 116.84 153.653 116.727 153.721C116.613 153.789 116.483 153.823 116.351 153.819C116.219 153.825 116.088 153.792 115.974 153.724C115.861 153.656 115.77 153.556 115.713 153.436C115.589 153.195 115.531 152.926 115.543 152.656C115.53 152.387 115.584 152.119 115.699 151.876C115.762 151.76 115.856 151.664 115.969 151.596C116.083 151.529 116.212 151.493 116.344 151.493C116.476 151.493 116.606 151.529 116.719 151.596C116.833 151.664 116.926 151.76 116.989 151.876C117.098 152.121 117.151 152.388 117.145 152.656ZM116.745 152.656C116.748 152.487 116.724 152.318 116.674 152.156C116.604 151.956 116.49 151.856 116.334 151.856C116.178 151.856 116.065 151.956 115.994 152.156C115.945 152.318 115.921 152.487 115.923 152.656C115.923 153.195 116.065 153.464 116.348 153.464C116.504 153.464 116.618 153.364 116.688 153.152C116.739 152.992 116.759 152.823 116.745 152.656Z" fill="white"/>
<path d="M118.931 152.642C118.939 152.911 118.886 153.177 118.775 153.422C118.717 153.54 118.626 153.639 118.512 153.707C118.399 153.775 118.269 153.809 118.137 153.805C118.005 153.811 117.874 153.778 117.76 153.71C117.647 153.642 117.556 153.541 117.499 153.422C117.375 153.181 117.317 152.912 117.329 152.642C117.316 152.373 117.37 152.105 117.485 151.862C117.548 151.746 117.642 151.65 117.755 151.582C117.869 151.515 117.998 151.479 118.13 151.479C118.262 151.479 118.392 151.515 118.505 151.582C118.619 151.65 118.712 151.746 118.775 151.862C118.884 152.107 118.937 152.374 118.931 152.642ZM118.531 152.642C118.534 152.473 118.51 152.304 118.46 152.142C118.389 151.942 118.276 151.842 118.12 151.842C117.964 151.842 117.851 151.942 117.78 152.142C117.731 152.304 117.707 152.473 117.709 152.642C117.709 153.181 117.851 153.45 118.134 153.45C118.29 153.45 118.403 153.35 118.474 153.138C118.513 152.975 118.534 152.809 118.536 152.642H118.531Z" fill="white"/>
<path d="M120.703 152.627C120.711 152.895 120.658 153.162 120.547 153.407C120.489 153.525 120.398 153.624 120.284 153.692C120.171 153.76 120.041 153.794 119.909 153.79C119.777 153.796 119.646 153.763 119.532 153.695C119.419 153.627 119.328 153.527 119.271 153.407C119.147 153.166 119.089 152.897 119.101 152.627C119.088 152.358 119.141 152.09 119.257 151.847C119.32 151.731 119.414 151.635 119.527 151.567C119.641 151.5 119.77 151.464 119.902 151.464C120.034 151.464 120.164 151.5 120.277 151.567C120.391 151.635 120.484 151.731 120.547 151.847C120.656 152.092 120.709 152.359 120.703 152.627ZM120.303 152.627C120.306 152.458 120.282 152.289 120.232 152.127C120.161 151.927 120.048 151.827 119.892 151.827C119.736 151.827 119.623 151.927 119.552 152.127C119.503 152.289 119.479 152.458 119.481 152.627C119.481 153.166 119.623 153.435 119.906 153.435C120.062 153.435 120.175 153.335 120.246 153.123C120.292 152.962 120.313 152.794 120.308 152.627H120.303Z" fill="white"/>
<path opacity="0.4" d="M158.571 36.39H131.871C131.598 36.3871 131.337 36.277 131.144 36.0834C130.951 35.8898 130.843 35.6281 130.841 35.355C130.843 35.081 130.952 34.8186 131.146 34.6249C131.34 34.4311 131.602 34.3216 131.876 34.32H158.576C158.85 34.3216 159.112 34.4311 159.306 34.6249C159.5 34.8186 159.61 35.081 159.611 35.355C159.609 35.6299 159.499 35.893 159.304 36.0869C159.11 36.2808 158.846 36.3897 158.571 36.39Z" fill="white"/>
<path opacity="0.4" d="M127.141 36.39C126.867 36.3884 126.605 36.2789 126.411 36.0851C126.217 35.8914 126.108 35.629 126.106 35.355C126.108 35.081 126.217 34.8186 126.411 34.6249C126.605 34.4311 126.867 34.3216 127.141 34.32C127.415 34.3216 127.677 34.4311 127.871 34.6249C128.065 34.8186 128.174 35.081 128.176 35.355C128.174 35.629 128.065 35.8914 127.871 36.0851C127.677 36.2789 127.415 36.3884 127.141 36.39Z" fill="white"/>
<path d="M118.672 181.87C118.672 182.809 118.373 183.571 117.776 184.158C117.179 184.734 116.4 185.081 115.44 185.198V186.606H114.368V185.214C113.472 185.15 112.704 184.899 112.064 184.462C111.424 184.025 110.965 183.433 110.688 182.686L112.592 181.582C112.933 182.435 113.525 182.921 114.368 183.038V180.27C114.357 180.27 114.352 180.27 114.352 180.27L114.32 180.254C113.947 180.115 113.643 179.993 113.408 179.886C113.173 179.779 112.896 179.625 112.576 179.422C112.267 179.219 112.021 179.011 111.84 178.798C111.669 178.574 111.515 178.291 111.376 177.95C111.248 177.609 111.184 177.235 111.184 176.83C111.184 175.891 111.488 175.139 112.096 174.574C112.715 174.009 113.472 173.683 114.368 173.598V172.206H115.44V173.63C116.891 173.801 117.915 174.553 118.512 175.886L116.656 176.974C116.4 176.334 115.995 175.945 115.44 175.806V178.478C116.432 178.873 117.099 179.187 117.44 179.422C118.261 180.009 118.672 180.825 118.672 181.87ZM113.376 176.846C113.376 177.081 113.451 177.289 113.6 177.47C113.749 177.641 114.005 177.817 114.368 177.998V175.758C114.048 175.822 113.803 175.95 113.632 176.142C113.461 176.334 113.376 176.569 113.376 176.846ZM115.44 183.006C116.123 182.857 116.464 182.483 116.464 181.886C116.464 181.619 116.379 181.395 116.208 181.214C116.048 181.033 115.792 180.862 115.44 180.702V183.006ZM126.189 173.806H128.109V185.006H125.901V176.142L123.789 176.734L123.245 174.846L126.189 173.806ZM134.297 185.23C132.9 185.23 131.801 184.702 131.001 183.646C130.212 182.579 129.817 181.166 129.817 179.406C129.817 177.646 130.212 176.238 131.001 175.182C131.801 174.115 132.9 173.582 134.297 173.582C135.705 173.582 136.804 174.115 137.593 175.182C138.382 176.238 138.777 177.646 138.777 179.406C138.777 181.166 138.382 182.579 137.593 183.646C136.804 184.702 135.705 185.23 134.297 185.23ZM132.601 182.142C132.985 182.761 133.55 183.07 134.297 183.07C135.044 183.07 135.609 182.755 135.993 182.126C136.388 181.497 136.585 180.59 136.585 179.406C136.585 178.211 136.388 177.299 135.993 176.67C135.609 176.041 135.044 175.726 134.297 175.726C133.55 175.726 132.985 176.041 132.601 176.67C132.217 177.299 132.025 178.211 132.025 179.406C132.025 180.601 132.217 181.513 132.601 182.142ZM144.375 185.23C142.978 185.23 141.879 184.702 141.079 183.646C140.29 182.579 139.895 181.166 139.895 179.406C139.895 177.646 140.29 176.238 141.079 175.182C141.879 174.115 142.978 173.582 144.375 173.582C145.783 173.582 146.882 174.115 147.671 175.182C148.46 176.238 148.855 177.646 148.855 179.406C148.855 181.166 148.46 182.579 147.671 183.646C146.882 184.702 145.783 185.23 144.375 185.23ZM142.679 182.142C143.063 182.761 143.628 183.07 144.375 183.07C145.122 183.07 145.687 182.755 146.071 182.126C146.466 181.497 146.663 180.59 146.663 179.406C146.663 178.211 146.466 177.299 146.071 176.67C145.687 176.041 145.122 175.726 144.375 175.726C143.628 175.726 143.063 176.041 142.679 176.67C142.295 177.299 142.103 178.211 142.103 179.406C142.103 180.601 142.295 181.513 142.679 182.142ZM152.033 184.814C151.766 185.081 151.446 185.214 151.073 185.214C150.699 185.214 150.379 185.081 150.113 184.814C149.846 184.547 149.713 184.227 149.713 183.854C149.713 183.481 149.846 183.161 150.113 182.894C150.379 182.627 150.699 182.494 151.073 182.494C151.446 182.494 151.766 182.627 152.033 182.894C152.299 183.161 152.433 183.481 152.433 183.854C152.433 184.227 152.299 184.547 152.033 184.814ZM157.766 185.23C156.368 185.23 155.27 184.702 154.47 183.646C153.68 182.579 153.286 181.166 153.286 179.406C153.286 177.646 153.68 176.238 154.47 175.182C155.27 174.115 156.368 173.582 157.766 173.582C159.174 173.582 160.272 174.115 161.062 175.182C161.851 176.238 162.246 177.646 162.246 179.406C162.246 181.166 161.851 182.579 161.062 183.646C160.272 184.702 159.174 185.23 157.766 185.23ZM156.07 182.142C156.454 182.761 157.019 183.07 157.766 183.07C158.512 183.07 159.078 182.755 159.462 182.126C159.856 181.497 160.054 180.59 160.054 179.406C160.054 178.211 159.856 177.299 159.462 176.67C159.078 176.041 158.512 175.726 157.766 175.726C157.019 175.726 156.454 176.041 156.07 176.67C155.686 177.299 155.494 178.211 155.494 179.406C155.494 180.601 155.686 181.513 156.07 182.142ZM167.844 185.23C166.446 185.23 165.348 184.702 164.548 183.646C163.758 182.579 163.364 181.166 163.364 179.406C163.364 177.646 163.758 176.238 164.548 175.182C165.348 174.115 166.446 173.582 167.844 173.582C169.252 173.582 170.35 174.115 171.14 175.182C171.929 176.238 172.324 177.646 172.324 179.406C172.324 181.166 171.929 182.579 171.14 183.646C170.35 184.702 169.252 185.23 167.844 185.23ZM166.148 182.142C166.532 182.761 167.097 183.07 167.844 183.07C168.59 183.07 169.156 182.755 169.54 182.126C169.934 181.497 170.132 180.59 170.132 179.406C170.132 178.211 169.934 177.299 169.54 176.67C169.156 176.041 168.59 175.726 167.844 175.726C167.097 175.726 166.532 176.041 166.148 176.67C165.764 177.299 165.572 178.211 165.572 179.406C165.572 180.601 165.764 181.513 166.148 182.142Z" fill="#4DCC86"/>
<path d="M282.064 150.202C281.349 151.718 280.634 154.186 281.025 154.221C281.297 154.238 282.013 153.608 282.387 153.199C282.722 155.029 283.224 156.824 283.887 158.563C284.296 159.563 284.977 161.117 285.555 161.304C285.827 161.389 286.321 161.389 286.713 160.418C287.34 159.114 287.688 157.693 287.734 156.246C288.092 152.687 286.763 149.691 286.014 147.409L285.674 146.66L282.166 147.324C282.268 148.283 282.234 149.252 282.064 150.202Z" fill="#F7A491"/>
<path d="M283.66 148.499C281.497 148.874 281.191 148.669 281.191 148.669C281.191 148.669 273.716 128.883 272.932 127.044C272.149 125.222 254.457 103.41 254.457 103.41L262.477 84.629C262.477 84.629 281.394 117.952 283.284 122.617C286.4 130.33 286.484 147.205 286.484 147.205C285.668 147.87 284.696 148.315 283.66 148.499Z" fill="#3DAE70"/>
<path d="M262.583 82.28C262.583 82.28 255.721 87.95 249.029 83.847C248.55 81.616 248.418 79.3244 248.637 77.053C248.688 76.712 248.756 76.389 248.807 76.065C249.335 72.949 249.539 71.195 249.539 71.195C249.896 71.11 261.356 68.675 261.288 69.033C259.585 77.407 262.583 82.28 262.583 82.28Z" fill="#F7A491"/>
<path d="M259.875 70.859C256.969 73.9152 253.03 75.7788 248.824 76.086C249.352 72.97 249.556 71.216 249.556 71.216C249.863 71.178 260.266 70.344 259.875 70.859Z" fill="#F47458"/>
<path d="M247.377 70.4629C247.377 70.4629 258.871 75.469 261.867 68.263C264.863 61.057 268.367 56.855 261.167 53.363C253.967 49.871 251.376 52.018 249.793 54.18C248.195 56.33 244.465 68.9809 247.377 70.4629Z" fill="#F7A491"/>
<path d="M278.553 260.216H285.943C287.493 260.216 289.213 258.666 289.643 255.823C290.073 252.98 293.253 251.43 293.951 249.114C294.632 246.798 291.107 243.514 291.107 243.514L290.507 242.748L289.894 241.965L284.036 243.344C284.036 243.344 283.9 244.744 283.798 246.511C283.716 247.866 283.71 249.225 283.781 250.581C283.951 253.681 282.912 257.017 280.154 257.613C277.413 258.224 278.553 260.216 278.553 260.216Z" fill="#17282F"/>
<path d="M227.131 260.216H246.713C246.853 260.191 246.99 260.151 247.122 260.097C248.433 259.45 248.022 254.444 247.872 252.897C247.838 252.608 247.821 252.437 247.821 252.437C247.821 252.437 240.942 246.937 239.988 251.143C239.954 251.279 239.92 251.398 239.888 251.535C238.696 255.485 233.35 257.273 230.268 257.767C227.897 258.159 227.284 259.534 227.131 260.216Z" fill="#17282F"/>
<path d="M231.082 147.307C231.082 147.307 232.121 160.35 233.363 176.032C235.032 197.332 237.041 223.504 237.245 228.459C237.586 237.075 238.965 250.833 238.965 250.833C238.965 250.833 242.234 254.102 248.773 252.723C252.497 239.494 255.005 225.952 256.265 212.266C256.299 211.925 256.316 211.585 256.35 211.244C257.9 190.079 260.3 145.484 260.3 145.484L231.082 147.307Z" fill="#444444"/>
<path d="M231.082 147.302C231.082 147.302 232.121 160.345 233.363 176.027L256.263 212.278C256.297 211.937 256.314 211.597 256.348 211.256C257.898 190.091 260.298 145.496 260.298 145.496L231.082 147.302Z" fill="#3B3B3B"/>
<path d="M235.849 148.857C235.849 148.857 254.698 196.108 267.094 218.312C279.49 240.516 283.355 246.712 283.355 246.712C283.355 246.712 290.455 243.868 291.102 241.927C291.102 241.927 286.369 199.069 278.059 188.614C273.376 182.706 267.859 164.997 267.604 158.799C267.349 152.601 265.918 140.341 265.918 140.341L235.849 148.857Z" fill="#444444"/>
<path d="M230.093 151.837C230.291 152.04 230.559 152.161 230.842 152.177C233.601 152.33 241.552 154.408 248.397 154.169C255.31 153.969 267.434 150.712 267.485 148.703C267.638 144.736 267.093 132.731 268.898 118.377C270.298 107.156 270.941 85.6669 262.751 78.6349C262.257 78.2259 258.988 79.571 255.991 80.797C253.46 81.837 250.65 81.9872 248.022 81.2229C243.152 84.9689 238.368 88.596 236.122 96.837C232.324 110.579 229.617 151.411 230.093 151.837Z" fill="#4DCC86"/>
<path d="M258.342 100.857C258.342 100.857 258.972 93.212 254.868 89.483C252.927 87.729 254.153 86.146 249.76 84.715C246.082 86.094 238.641 90.862 236.853 94.506C236.581 95.238 236.325 96.006 236.104 96.822C236.07 96.941 236.036 97.077 236.004 97.197C235.987 97.282 235.953 97.367 235.936 97.452C235.936 97.469 235.919 97.486 235.919 97.503C234.046 104.774 232.446 118.515 231.39 130.366C249.011 118.804 258.342 100.857 258.342 100.857Z" fill="#3DAE70"/>
<path d="M198.304 118.786C197.18 118.139 194.915 117.373 194.304 117.628C194.685 117.937 195.048 118.267 195.394 118.615C195.854 119.279 196.364 121.254 195.649 121.561C194.9 121.884 193.149 120.216 190.575 119.892C188.804 119.654 187.204 119.33 187.085 119.552C186.864 119.995 187.647 121.578 190.269 122.957C192.891 124.336 196.314 125.034 198.817 123.604L201.201 122.974L201.133 118.955C201.113 118.922 199.717 118.889 198.304 118.786Z" fill="#F7A491"/>
<path d="M199.086 120.983C198.711 118.683 199.869 118.19 199.869 118.19C199.869 118.19 222.993 111.72 224.934 110.902C226.875 110.084 242.302 90.69 242.302 90.69C242.302 90.69 248.159 82.69 253.676 83.811C258.476 84.799 260.64 88.255 261.576 91.661C262.117 93.6504 262.048 95.7566 261.377 97.7061C260.706 99.6555 259.464 101.358 257.813 102.593C250.253 108.263 235.082 119.484 231.403 120.949C223.213 124.201 200.362 124.065 200.362 124.065C199.705 123.149 199.269 122.095 199.086 120.983Z" fill="#4DCC86"/>
<path d="M254.177 45.254C256.927 45.8402 259.425 47.2704 261.323 49.345C263.057 49.537 265.39 50.5 267.796 54.519C270.78 59.452 268.567 64.9389 265.102 67.6099C261.637 70.2809 261.685 73.3859 261.685 73.3859L261.13 71.7739C260.711 70.5615 260.563 69.2718 260.697 67.996C260.756 67.2166 260.943 66.4522 261.251 65.7339C262.092 63.934 259.47 62.7499 258.724 61.2579C258.145 60.1029 258.124 57.48 257.231 55.579L256.172 54.1349C256.172 54.1349 253.717 52.2099 251.311 52.7629C248.954 53.3159 249.292 44.243 254.177 45.254Z" fill="#184655"/>
<path d="M110.216 54.806C111.293 54.806 112.2 55.1687 112.936 55.894C113.672 56.6193 114.04 57.51 114.04 58.566C114.04 59.622 113.672 60.5127 112.936 61.238C112.2 61.9633 111.293 62.326 110.216 62.326H108.248V66.006H106.04V54.806H110.216ZM110.216 60.262C110.685 60.262 111.075 60.102 111.384 59.782C111.693 59.4513 111.848 59.046 111.848 58.566C111.848 58.0753 111.693 57.67 111.384 57.35C111.075 57.03 110.685 56.87 110.216 56.87H108.248V60.262H110.216ZM121.537 66.006L120.865 63.99H116.401L115.729 66.006H113.345L117.265 54.806H120.001L123.937 66.006H121.537ZM117.105 61.926H120.177L118.641 57.35L117.105 61.926ZM132.435 54.806L128.595 61.638V66.006H126.403V61.638L122.579 54.806H125.075L127.507 59.478L129.939 54.806H132.435ZM144.469 54.806V66.006H142.277V58.742L139.125 63.942H138.869L135.717 58.758V66.006H133.509V54.806H135.781L138.997 60.102L142.197 54.806H144.469ZM148.764 63.894H153.484V66.006H146.556V54.806H153.404V56.918H148.764V59.302H153.004V61.382H148.764V63.894ZM161.52 54.806H163.728V66.006H162.048L157.248 59.158V66.006H155.04V54.806H156.72L161.52 61.638V54.806ZM173.214 54.806V56.918H170.19V66.006H167.982V56.918H164.974V54.806H173.214ZM112.184 86.006L109.928 82.118H108.248V86.006H106.04V74.806H110.52C111.555 74.806 112.435 75.1687 113.16 75.894C113.885 76.6193 114.248 77.494 114.248 78.518C114.248 79.2113 114.051 79.8567 113.656 80.454C113.261 81.0407 112.739 81.4833 112.088 81.782L114.568 86.006H112.184ZM108.248 76.87V80.182H110.52C110.936 80.182 111.293 80.022 111.592 79.702C111.891 79.3713 112.04 78.9767 112.04 78.518C112.04 78.0593 111.891 77.67 111.592 77.35C111.293 77.03 110.936 76.87 110.52 76.87H108.248ZM118.076 83.894H122.796V86.006H115.868V74.806H122.716V76.918H118.076V79.302H122.316V81.382H118.076V83.894ZM129.586 86.23C127.901 86.23 126.509 85.67 125.41 84.55C124.312 83.43 123.762 82.0487 123.762 80.406C123.762 78.7527 124.312 77.3713 125.41 76.262C126.509 75.142 127.901 74.582 129.586 74.582C130.6 74.582 131.533 74.822 132.386 75.302C133.25 75.7713 133.922 76.4113 134.402 77.222L132.498 78.326C132.221 77.8247 131.826 77.4353 131.314 77.158C130.802 76.87 130.226 76.726 129.586 76.726C128.498 76.726 127.618 77.0673 126.946 77.75C126.285 78.4327 125.954 79.318 125.954 80.406C125.954 81.4833 126.285 82.3633 126.946 83.046C127.618 83.7287 128.498 84.07 129.586 84.07C130.226 84.07 130.802 83.9313 131.314 83.654C131.837 83.366 132.232 82.9767 132.498 82.486L134.402 83.59C133.922 84.4007 133.256 85.046 132.402 85.526C131.549 85.9953 130.61 86.23 129.586 86.23ZM137.967 83.894H142.687V86.006H135.759V74.806H142.607V76.918H137.967V79.302H142.207V81.382H137.967V83.894ZM144.243 74.806H146.451V86.006H144.243V74.806ZM151.292 86.006L147.532 74.806H149.932L152.668 83.414L155.388 74.806H157.804L154.028 86.006H151.292ZM161.092 83.894H165.812V86.006H158.884V74.806H165.732V76.918H161.092V79.302H165.332V81.382H161.092V83.894ZM171.816 74.806C173.352 74.806 174.632 75.3447 175.656 76.422C176.691 77.4993 177.208 78.8273 177.208 80.406C177.208 81.9847 176.691 83.3127 175.656 84.39C174.632 85.4673 173.352 86.006 171.816 86.006H167.368V74.806H171.816ZM171.816 83.894C172.787 83.894 173.576 83.574 174.184 82.934C174.792 82.2833 175.096 81.4407 175.096 80.406C175.096 79.3713 174.792 78.534 174.184 77.894C173.576 77.2433 172.787 76.918 171.816 76.918H169.576V83.894H171.816Z" fill="#4DCC86"/>
</svg>
