<svg xmlns="http://www.w3.org/2000/svg" width="23.874" height="20.802" viewBox="0 0 23.874 20.802">
  <g id="Layer_15" data-name="Layer 15" transform="translate(-2.593 -6.46)">
    <path id="Path_1" data-name="Path 1" d="M22.871,31.565a4.68,4.68,0,0,0-6.436,0l-3.882,3.671a3.334,3.334,0,0,0,2.384,5.737c1.629-.044,2.952-.878,4.712-.846,1.824-.032,3.178.7,4.815.846a3.333,3.333,0,0,0,2.284-5.737Zm3.933,7.02a2.5,2.5,0,0,1-2.423,1.589c-1.53-.222-2.876-.866-4.728-.842s-3.178.795-4.815.846a2.523,2.523,0,0,1-1.736-4.37l3.878-3.651a3.893,3.893,0,0,1,5.348,0L26.2,35.828A2.5,2.5,0,0,1,26.8,38.585Z" transform="translate(-5.115 -14.117)" fill="#fff" stroke="#fff" stroke-width="0.8"/>
    <path id="Path_2" data-name="Path 2" d="M52.213,19.878c-1.518-.3-2.678,1.391-2.98,2.845-.906,4.5,3.456,5.359,4.477.993C54.128,21.844,53.469,20.156,52.213,19.878Zm.723,3.667c-.85,3.377-3.576,2.781-2.928-.648h0c.691-3.071,3.552-3.111,2.928.648Z" transform="translate(-27.774 -7.825)" fill="#fff" stroke="#fff" stroke-width="0.8"/>
    <path id="Path_3" data-name="Path 3" d="M36.583,14.484c1.51,0,2.737-1.716,2.737-3.822-.151-5.069-5.324-5.069-5.471,0C33.85,12.768,35.078,14.484,36.583,14.484Zm0-6.849c2.563.175,2.563,5.88,0,6.055-2.563-.175-2.559-5.88,0-6.055Z" transform="translate(-18.577 0)" fill="#fff" stroke="#fff" stroke-width="0.8"/>
    <path id="Path_4" data-name="Path 4" d="M7.618,22.722c-.3-1.454-1.462-3.143-2.98-2.845-2.813.711-1.621,6.706,1.128,6.722C7.324,26.548,8.043,24.74,7.618,22.722ZM5.949,25.785c-1.959.294-3.039-4.573-1.14-5.129C5.953,20.545,6.6,21.892,6.843,22.9h0C7.153,24.276,6.744,25.611,5.949,25.785Z" transform="translate(0 -7.825)" fill="#fff" stroke="#fff" stroke-width="0.8"/>
    <path id="Path_5" data-name="Path 5" d="M19.117,14.484c1.506,0,2.733-1.716,2.733-3.822-.147-5.069-5.32-5.069-5.471,0C16.38,12.768,17.608,14.484,19.117,14.484Zm0-6.849c2.563.175,2.559,5.88,0,6.055-2.563-.175-2.563-5.88,0-6.055Z" transform="translate(-8.047 0)" fill="#fff" stroke="#fff" stroke-width="0.8"/>
  </g>
</svg>
