<svg xmlns="http://www.w3.org/2000/svg" width="16.7" height="31.491" viewBox="0 0 16.7 31.491">
  <g id="Group_2" data-name="Group 2" transform="translate(-7.861 2.121) rotate(-15)">
    <g id="Group_9545" data-name="Group 9545" transform="translate(24.271 4.322) rotate(105.009)">
      <g id="Group_9533" data-name="Group 9533" transform="translate(0 0.942)">
        <path id="Path_378" data-name="Path 378" d="M30.862,2.272C30.381.766,29.633,0,28.591,0H4.082a3.137,3.137,0,0,0-2.83,2.272A10.126,10.126,0,0,0,0,7.514a8.922,8.922,0,0,0,1.252,5.038,3.4,3.4,0,0,0,2.829,2.272h24.51c1,0,1.915-1.216,2.272-2.272a16.671,16.671,0,0,0,.6-5.038,19.164,19.164,0,0,0-.6-5.242Z" fill="#dbdcde"/>
        <path id="Path_379" data-name="Path 379" d="M3.344,13.505a2.835,2.835,0,0,1-2.122-1.769A9.6,9.6,0,0,1,0,6.857,9.636,9.636,0,0,1,1.228,1.751,2.164,2.164,0,0,1,3.344,0h25.11C28.7,0,29.442,0,30,1.756a19.19,19.19,0,0,1,.57,5.1,16.689,16.689,0,0,1-.563,4.873c-.315.933-1.056,1.776-1.556,1.776Z" transform="translate(0.443 0.659)" fill="#e7e8e9"/>
        <path id="Path_380" data-name="Path 380" d="M2.941,12.7a2.463,2.463,0,0,1-1.734-1.474A9.347,9.347,0,0,1,0,6.454,9.729,9.729,0,0,1,1.21,1.467,1.779,1.779,0,0,1,2.941,0H28.05c.46,0,.853.5,1.165,1.476a19.047,19.047,0,0,1,.551,4.978,16.584,16.584,0,0,1-.542,4.744c-.3.882-.94,1.5-1.174,1.5Z" transform="translate(0.846 1.062)" fill="#fff"/>
      </g>
      <g id="Group_9534" data-name="Group 9534" transform="translate(2.526 2.467)">
        <path id="Path_381" data-name="Path 381" d="M0,1.808S.407.129,6.478,0A27.562,27.562,0,0,0,0,1.808Z" fill="#e7e8e9"/>
        <path id="Path_382" data-name="Path 382" d="M0,0S.407,1.679,6.478,1.808A27.56,27.56,0,0,1,0,0Z" transform="translate(0 9.955)" fill="#e7e8e9"/>
      </g>
      <g id="Group_9539" data-name="Group 9539" transform="translate(8.065 2.392)">
        <g id="Group_9535" data-name="Group 9535" transform="translate(2.281)">
          <path id="Path_383" data-name="Path 383" d="M0,0H18.4L15.779,1.13H6.5Z" fill="#07191f"/>
          <path id="Path_384" data-name="Path 384" d="M7.061,0H2.636L0,1.13H4.425Z" transform="translate(7.018)" fill="#1a262c"/>
          <rect id="Rectangle_34" data-name="Rectangle 34" width="0.5" height="1.13" transform="translate(10.344)" fill="#fff"/>
        </g>
        <g id="Group_9536" data-name="Group 9536" transform="translate(2.281 10.735)">
          <path id="Path_385" data-name="Path 385" d="M0,1.13H18.4L15.779,0H6.5Z" fill="#07191f"/>
          <path id="Path_386" data-name="Path 386" d="M7.061,1.13H2.636L0,0H4.425Z" transform="translate(7.018)" fill="#1a262c"/>
          <rect id="Rectangle_35" data-name="Rectangle 35" width="0.5" height="1.13" transform="translate(10.344)" fill="#fff"/>
        </g>
        <g id="Group_9537" data-name="Group 9537" transform="translate(0 0.242)">
          <path id="Path_387" data-name="Path 387" d="M6.436,8.88a10.321,10.321,0,0,1-.369-3.117A11.864,11.864,0,0,1,6.436,2.52c.3-.932.761-1.405,1.405-1.405L1.775,0C1.13,0,.667,1.589.369,2.521A11.854,11.854,0,0,0,0,5.763,10.313,10.313,0,0,0,.369,8.88c.221.653.789,2.521,1.4,2.521L7.84,10.286C7.226,10.285,6.657,9.534,6.436,8.88Z" fill="#07191f"/>
          <path id="Path_388" data-name="Path 388" d="M.369,2.521A11.854,11.854,0,0,0,0,5.763,10.31,10.31,0,0,0,.369,8.88c.221.653.789,2.521,1.4,2.521l1.06-.195a4.512,4.512,0,0,0,.454-1.138,19.255,19.255,0,0,0,.377-4.342,22.186,22.186,0,0,0-.377-4.519A5.63,5.63,0,0,0,2.972.22L1.775,0C1.13,0,.667,1.589.369,2.521Z" fill="#1a262c"/>
        </g>
        <g id="Group_9538" data-name="Group 9538" transform="translate(18.398 0.242)">
          <path id="Path_389" data-name="Path 389" d="M.815,8.88a17.375,17.375,0,0,0,.214-3.117A20.032,20.032,0,0,0,.815,2.521C.642,1.589.374,1.115,0,1.115L2.691,0c.374,0,.642,1.589.815,2.521A20.035,20.035,0,0,1,3.72,5.763,17.378,17.378,0,0,1,3.506,8.88c-.128.653-.458,2.521-.815,2.521L0,10.285C.357,10.285.687,9.534.815,8.88Z" fill="#07191f"/>
          <path id="Path_390" data-name="Path 390" d="M1.191,0,.756.181A5.014,5.014,0,0,0,.369,1.308,21.681,21.681,0,0,0,0,5.725,18.822,18.822,0,0,0,.369,9.97,4.207,4.207,0,0,0,.951,11.3l.24.1c.357,0,.686-1.867.815-2.521A17.375,17.375,0,0,0,2.22,5.763,20.032,20.032,0,0,0,2.006,2.52C1.833,1.589,1.565,0,1.191,0Z" transform="translate(1.5)" fill="#1a262c"/>
        </g>
      </g>
      <g id="Group_9540" data-name="Group 9540" transform="translate(28.857 12.988)">
        <path id="Path_391" data-name="Path 391" d="M0,2.748A3.392,3.392,0,0,0,2,.5s.06-.169.141-.5A2.868,2.868,0,0,0,0,2.748Z" fill="#e82727"/>
        <path id="Path_392" data-name="Path 392" d="M2.115.122c.01-.038.02-.079.031-.122A2.868,2.868,0,0,0,0,2.748a1.513,1.513,0,0,0,.3-.1A2.79,2.79,0,0,1,2.115.122Z" fill="#d62424"/>
      </g>
      <g id="Group_9541" data-name="Group 9541" transform="translate(28.86 0.96)">
        <path id="Path_393" data-name="Path 393" d="M0,0A2.86,2.86,0,0,0,2.108,2.658c-.063-.266-.106-.4-.106-.4C1.563.881.9.123,0,0Z" fill="#e82727"/>
        <path id="Path_394" data-name="Path 394" d="M.3.067A1.8,1.8,0,0,0,0,0,2.86,2.86,0,0,0,2.108,2.658l-.03-.126A2.781,2.781,0,0,1,.3.067Z" fill="#d62424"/>
      </g>
      <g id="Group_9542" data-name="Group 9542" transform="translate(10.728)">
        <path id="Path_395" data-name="Path 395" d="M.339,0l.72,2.885A2.041,2.041,0,0,1,.339,0Z" transform="translate(0 13.813)" fill="#b4b7bb"/>
        <path id="Path_396" data-name="Path 396" d="M.339,2.885,1.059,0a2.041,2.041,0,0,0-.72,2.885Z" fill="#b4b7bb"/>
      </g>
      <g id="Group_9543" data-name="Group 9543" transform="translate(0.839 0.944)">
        <path id="Path_397" data-name="Path 397" d="M.414,2.27A13.586,13.586,0,0,0,0,4.428,9.946,9.946,0,0,0,3.142,0,3.159,3.159,0,0,0,.414,2.27Z" fill="#b4b7bb"/>
        <path id="Path_398" data-name="Path 398" d="M0,1.071A4.381,4.381,0,0,0,1.776.779,7.047,7.047,0,0,0,2.065,0,2.994,2.994,0,0,0,0,1.071Z" transform="translate(1.077)" fill="#e82727"/>
        <path id="Path_399" data-name="Path 399" d="M2.8.041A9.934,9.934,0,0,1,.078,3.866C.052,4.04.025,4.227,0,4.428A9.946,9.946,0,0,0,3.142,0,2.39,2.39,0,0,0,2.8.041Z" fill="#a5aaae"/>
        <path id="Path_400" data-name="Path 400" d="M.389.041A7.49,7.49,0,0,1,0,.927,3.58,3.58,0,0,0,.439.779,7.064,7.064,0,0,0,.729,0a2.389,2.389,0,0,0-.34.041Z" transform="translate(2.413)" fill="#d62424"/>
      </g>
      <g id="Group_9544" data-name="Group 9544" transform="translate(0.808 11.227)">
        <path id="Path_401" data-name="Path 401" d="M0,0A11.638,11.638,0,0,0,.444,2.266,3.422,3.422,0,0,0,3.2,4.535,9.91,9.91,0,0,0,0,0Z" fill="#b4b7bb"/>
        <path id="Path_402" data-name="Path 402" d="M2.124,1.159A7.027,7.027,0,0,0,1.808.293,4.4,4.4,0,0,0,0,0,3.4,3.4,0,0,0,2.124,1.159Z" transform="translate(1.073 3.376)" fill="#e82727"/>
        <path id="Path_403" data-name="Path 403" d="M2.831,4.48a1.986,1.986,0,0,0,.366.056A9.91,9.91,0,0,0,0,0C.027.231.057.445.087.641A9.957,9.957,0,0,1,2.831,4.48Z" fill="#a5aaae"/>
        <path id="Path_404" data-name="Path 404" d="M.433.969A1.985,1.985,0,0,0,.8,1.025,7.033,7.033,0,0,0,.484.159,3.581,3.581,0,0,0,0,0,7.568,7.568,0,0,1,.433.969Z" transform="translate(2.397 3.51)" fill="#d62424"/>
      </g>
    </g>
  </g>
</svg>
