<svg xmlns="http://www.w3.org/2000/svg" width="42.923" height="25.25" viewBox="0 0 42.923 25.25">
  <g id="Meeting" transform="translate(1512.048 -1893.176)">
    <path id="Path_114" data-name="Path 114" d="M273.718,251.448h-1.59v-.769a2.468,2.468,0,0,0-1.76-2.375l-3.149-.954-2.163,2.6a.792.792,0,0,1-1.219,0l-2.163-2.6-3.149.954a2.467,2.467,0,0,0-1.76,2.375v.769h-1.59v-.769a4.076,4.076,0,0,1,2.89-3.9l3.651-1.108a.8.8,0,0,1,.843.254l1.887,2.269,1.887-2.269a.806.806,0,0,1,.843-.254l3.652,1.108a4.076,4.076,0,0,1,2.889,3.9Z" transform="translate(-1755.031 1659.005)" fill="#4dcc86"/>
    <path id="Path_115" data-name="Path 115" d="M306.865,138.834a4.413,4.413,0,0,1-4.384-3.859l-.3-2.354a4.718,4.718,0,1,1,9.362,0l-.3,2.354a4.413,4.413,0,0,1-4.384,3.859Zm0-9.94a3.131,3.131,0,0,0-3.106,3.52l.3,2.354a2.829,2.829,0,0,0,2.8,2.476,2.791,2.791,0,0,0,1.6-.5,2.833,2.833,0,0,0,1.2-1.977l.3-2.354a3.128,3.128,0,0,0-3.1-3.52Z" transform="translate(-1797.448 1765.863)" fill="#4dcc86"/>
    <path id="Path_116" data-name="Path 116" d="M130.984,265.806h-1.59v-8.763a4.336,4.336,0,0,1,4.331-4.331h2.539a5.945,5.945,0,0,1,4.469,2.03l3.393,3.88a.019.019,0,0,0,.016.005h3.207a2.491,2.491,0,1,1,0,4.982h-3.6a4.081,4.081,0,0,1-1.686-.36,4.134,4.134,0,0,1-1.421-1.05l-3.679-4.209,1.2-1.044,3.679,4.209a2.577,2.577,0,0,0,.875.647,2.508,2.508,0,0,0,1.039.223h3.6a.9.9,0,0,0,0-1.8h-3.207a1.614,1.614,0,0,1-1.214-.551l-3.393-3.88a4.334,4.334,0,0,0-3.271-1.484H133.73a2.744,2.744,0,0,0-2.741,2.741v8.757Z" transform="translate(-1641.441 1652.616)" fill="#4dcc86"/>
    <path id="Path_117" data-name="Path 117" d="M218.75,317.13h1.59v6.854h-1.59Z" transform="translate(-1722.136 1594.442)" fill="#4dcc86"/>
    <path id="Path_118" data-name="Path 118" d="M134.513,145.716a5.126,5.126,0,1,1,5.126-5.126A5.126,5.126,0,0,1,134.513,145.716Zm0-8.662a3.536,3.536,0,1,0,3.536,3.536,3.536,3.536,0,0,0-3.536-3.536Z" transform="translate(-1641.435 1758.499)" fill="#4dcc86"/>
    <path id="Path_119" data-name="Path 119" d="M381.666,265.806h-1.59v-8.763a2.744,2.744,0,0,0-2.741-2.741H374.8a4.334,4.334,0,0,0-3.271,1.484l-2.248,2.571-1.14,1.309a1.6,1.6,0,0,1-1.219.557h-3.207a.9.9,0,0,0,0,1.8h3.462a3.174,3.174,0,0,0,1.182-.223,2.575,2.575,0,0,0,.869-.647l2.385-2.725,1.293-1.484,1.2,1.044-1.293,1.484-2.385,2.725a4.185,4.185,0,0,1-1.415,1.05,4.8,4.8,0,0,1-1.84.366h-3.462a2.491,2.491,0,1,1,0-4.983h3.207c.005,0,.011,0,.011-.005a.005.005,0,0,1,.005-.005l1.145-1.315,2.248-2.571a5.923,5.923,0,0,1,4.469-2.025h2.539a4.339,4.339,0,0,1,4.331,4.331V265.8Z" transform="translate(-1850.791 1652.616)" fill="#4dcc86"/>
    <path id="Path_120" data-name="Path 120" d="M466.43,317.13h1.59v6.849h-1.59Z" transform="translate(-1945.807 1594.442)" fill="#4dcc86"/>
    <path id="Path_121" data-name="Path 121" d="M471.553,145.716a5.126,5.126,0,1,1,5.126-5.126A5.126,5.126,0,0,1,471.553,145.716Zm0-8.662a3.536,3.536,0,1,0,3.536,3.536,3.536,3.536,0,0,0-3.536-3.536Z" transform="translate(-1945.805 1758.499)" fill="#4dcc86"/>
    <path id="Path_122" data-name="Path 122" d="M226.95,348.8h24.008v1.59H226.95Z" transform="translate(-1729.541 1565.842)" fill="#4dcc86"/>
  </g>
</svg>
