<svg width="16" height="16" viewBox="0 0 16 16" fill="none" xmlns="http://www.w3.org/2000/svg">
<path fill-rule="evenodd" clip-rule="evenodd" d="M7.99984 14.0002L8.47184 14.4708C8.4099 14.533 8.33629 14.5824 8.25523 14.616C8.17418 14.6497 8.08727 14.667 7.9995 14.667C7.91173 14.667 7.82483 14.6497 7.74377 14.616C7.66272 14.5824 7.58911 14.533 7.52717 14.4708L7.52317 14.4662L7.51184 14.4548L7.4705 14.4128C7.2355 14.1707 7.00436 13.9249 6.77717 13.6755C6.20677 13.0505 5.66059 12.4038 5.13984 11.7368C4.54517 10.9702 3.93717 10.1035 3.47517 9.2475C3.02317 8.40816 2.6665 7.49883 2.6665 6.66683C2.6665 3.64083 5.06117 1.3335 7.99984 1.3335C10.9385 1.3335 13.3332 3.64083 13.3332 6.66683C13.3332 7.49883 12.9765 8.40816 12.5245 9.24683C12.0625 10.1042 11.4552 10.9702 10.8598 11.7368C10.1314 12.6699 9.35341 13.5632 8.52917 14.4128L8.48784 14.4548L8.4765 14.4662L8.4725 14.4702L7.99984 14.0002ZM7.99984 8.66683C8.53027 8.66683 9.03898 8.45612 9.41405 8.08104C9.78912 7.70597 9.99984 7.19726 9.99984 6.66683C9.99984 6.1364 9.78912 5.62769 9.41405 5.25262C9.03898 4.87754 8.53027 4.66683 7.99984 4.66683C7.4694 4.66683 6.9607 4.87754 6.58562 5.25262C6.21055 5.62769 5.99984 6.1364 5.99984 6.66683C5.99984 7.19726 6.21055 7.70597 6.58562 8.08104C6.9607 8.45612 7.4694 8.66683 7.99984 8.66683Z" fill="#B7B8B9"/>
</svg>
