<svg xmlns="http://www.w3.org/2000/svg" width="24.736" height="24.719" viewBox="0 0 24.736 24.719">
  <path id="reload" d="M105.9,50.827a.744.744,0,0,1-.238,0,.882.882,0,0,1-.882-.635A12.353,12.353,0,0,1,125.326,38l.291-2.585h0a.888.888,0,1,1,1.765.194l-.512,4.579h0a.885.885,0,0,1-.882.785h-.1l-4.579-.521h0A.883.883,0,1,1,121.5,38.7l2.241.265A10.588,10.588,0,0,0,106.5,49.743a.882.882,0,0,1-.609,1.085Zm22.667-7.412a.882.882,0,0,0-1.694.485,10.588,10.588,0,0,1-17.241,10.782l2.268.256a.883.883,0,0,0,.194-1.756l-4.579-.512h0a.865.865,0,0,0-.971.777L106,58.027a.882.882,0,0,0,.785.971h.1a.882.882,0,0,0,.882-.785l.282-2.568a12.353,12.353,0,0,0,20.514-12.23Z" transform="translate(-104.305 -34.449)" fill="#4dcc86"/>
</svg>
