<svg xmlns="http://www.w3.org/2000/svg" width="34.805" height="34.793" viewBox="0 0 34.805 34.793">
  <g id="Cinema" transform="translate(1497.049 -1970.923)">
    <path id="Path_108" data-name="Path 108" d="M159.691,73.941a15.75,15.75,0,1,0-15.75,15.751c.446,0,.892-.034,1.3-.069a9.007,9.007,0,0,0,4.392,1.716,10.536,10.536,0,0,0,5.319-1.064c1.373-.549,2.471-1,3.637-.618a5.226,5.226,0,0,1,2.814,2.882.853.853,0,0,0,.755.446.782.782,0,0,0,.377-.1.822.822,0,0,0,.377-1.1,6.819,6.819,0,0,0-3.809-3.74c-1.75-.549-3.294.069-4.77.686a9.175,9.175,0,0,1-4.53.961,6.814,6.814,0,0,1-1.99-.515A15.778,15.778,0,0,0,159.692,73.94Zm-15.75,14.07a14.1,14.1,0,1,1,14.1-14.1,14.1,14.1,0,0,1-14.1,14.1Z" transform="translate(-1625.24 1912.731)" fill="#4dcc86"/>
    <path id="Path_109" data-name="Path 109" d="M280.214,108.488a4.145,4.145,0,1,0-2.938-1.214A4.152,4.152,0,0,0,280.214,108.488Zm0-6.623a2.471,2.471,0,1,1-2.471,2.471,2.47,2.47,0,0,1,2.471-2.471Z" transform="translate(-1761.514 1874.031)" fill="#4dcc86"/>
    <path id="Path_110" data-name="Path 110" d="M280.214,311.5a4.152,4.152,0,1,0,4.118,4.152,4.152,4.152,0,0,0-4.118-4.152Zm0,6.657a2.471,2.471,0,1,1,2.471-2.471A2.471,2.471,0,0,1,280.214,318.157Z" transform="translate(-1761.514 1679.29)" fill="#4dcc86"/>
    <path id="Path_111" data-name="Path 111" d="M314.788,245.717a1.236,1.236,0,1,0-1.2-1.236A1.236,1.236,0,0,0,314.788,245.717Z" transform="translate(-1796.088 1742.191)" fill="#4dcc86"/>
    <path id="Path_112" data-name="Path 112" d="M174.334,206.06a4.135,4.135,0,1,0,4.152,4.118A4.135,4.135,0,0,0,174.334,206.06Zm0,6.623a2.471,2.471,0,1,1,2.471-2.471A2.471,2.471,0,0,1,174.334,212.683Z" transform="translate(-1663.938 1776.459)" fill="#4dcc86"/>
    <path id="Path_113" data-name="Path 113" d="M385.654,206.06a4.145,4.145,0,1,0,2.938,1.214A4.152,4.152,0,0,0,385.654,206.06Zm0,6.623a2.471,2.471,0,1,1,2.471-2.471A2.471,2.471,0,0,1,385.654,212.683Z" transform="translate(-1858.684 1776.459)" fill="#4dcc86"/>
  </g>
</svg>
