<svg xmlns="http://www.w3.org/2000/svg" width="61.805" height="24.688" viewBox="0 0 61.805 24.688">
  <g id="Van" transform="translate(0.649 0.492)">
    <path id="Path_58" data-name="Path 58" d="M10.792,69.923a4.114,4.114,0,0,0,.464,2.694c.993,1.177,3.437,1.213,3.947,1.365.123-5.41,4.584-5.513,4.584-5.513,4.221.049,4.9,3.893,5,5.571H25.6c2.41,0,27.187-.306,27.187-.306h.554c.254-5.158,4.575-5.27,4.575-5.27,3.892.044,4.772,3.328,4.961,5.137l.229-.01a67.71,67.71,0,0,0,8.032-.8c1.05-.618-1.155-2.441-1.155-2.441a70.334,70.334,0,0,0-1.382-16.6c-.309-.618-1.606-.556-1.606-.556-12.975-.309-32.562.309-32.562.309A18.229,18.229,0,0,0,26.4,55.3c-1.545.8-7.291,6.859-7.291,6.859C13.608,63.567,12,65.867,12,65.867a15.9,15.9,0,0,0-1.209,4.057Zm9.859-6.036s5.746-7.229,7.723-7.723a27.978,27.978,0,0,1,4.449-.68s.961-.432.927,1.421c0,0,.038,3.831-.086,4.325,0,0,.21,1.74-1.15,2.049ZM39,63.208s-2.286.358-2.719-1.421a44.569,44.569,0,0,1-.68-5.623.669.669,0,0,1,.618-.94s5.746-.358,28.608-.481a1.628,1.628,0,0,1,1.73,1.236s.742,5.375.865,6.426Zm19.062,7.137a3.244,3.244,0,1,1-3.244,3.244,3.244,3.244,0,0,1,3.244-3.244Zm-38.123,0A3.244,3.244,0,1,1,16.7,73.588a3.244,3.244,0,0,1,3.239-3.243Z" transform="translate(-10.744 -53.112)" fill="none" stroke="#4dcc86" stroke-miterlimit="10" stroke-width="0.95"/>
  </g>
</svg>
