<svg width="30" height="30" viewBox="0 0 30 30" fill="none" xmlns="http://www.w3.org/2000/svg">
<path d="M26.25 26.25V23.75C26.25 20.9886 24.0114 18.75 21.25 18.75H20C19.3096 18.75 18.75 18.1904 18.75 17.5V11.25C18.75 9.86929 17.6307 8.75 16.25 8.75C14.8693 8.75 13.75 9.86929 13.75 11.25V22.5L10.75 18.5C10.2779 17.8705 9.53689 17.5 8.75 17.5H8.20774C7.12651 17.5 6.25 18.3765 6.25 19.4578C6.25 19.8126 6.34644 20.1607 6.52899 20.465L10 26.25M3.7625 3.75H3.75M8.7625 3.75H8.75M13.7625 3.75H13.75M3.7625 8.75H3.75M8.7625 8.75H8.75M3.7625 13.75H3.75M8.7625 13.75H8.75" stroke="black" stroke-width="2" stroke-linecap="round" stroke-linejoin="round"/>
</svg>
