<svg xmlns="http://www.w3.org/2000/svg" width="39.984" height="38.566" viewBox="0 0 39.984 38.566">
  <g id="Restaurant" transform="translate(1498.126 -1842.008)">
    <path id="Path_80" data-name="Path 80" d="M134.145,230.615h-.017a17.975,17.975,0,0,0-15.941-17.174V212a2,2,0,1,0-3.989,0v1.443a17.975,17.975,0,0,0-15.941,17.174H98.24a1.995,1.995,0,1,0,0,3.989h35.9a2,2,0,1,0,0-3.989Zm-18.618-17.288V212a.665.665,0,0,1,1.33,0v1.33Zm.665,1.33A16.641,16.641,0,0,1,132.8,230.615H99.586a16.641,16.641,0,0,1,16.606-15.958Zm17.953,18.618H98.24a.665.665,0,0,1,0-1.33h35.9a.665.665,0,1,1,0,1.33Z" transform="translate(-1594.326 1645.968)" fill="#4dcc86"/>
    <path id="Path_81" data-name="Path 81" d="M358.75,297.5v1.33a13.369,13.369,0,0,1,12.019,7.6l1.2-.571h0a14.7,14.7,0,0,0-13.22-8.359Z" transform="translate(-1836.883 1565.121)" fill="#4dcc86"/>
    <path id="Path_82" data-name="Path 82" d="M525.05,425.84l-1.254.443a13,13,0,0,1,.377,1.263l1.293-.315C525.351,426.765,525.211,426.3,525.05,425.84Z" transform="translate(-1989.387 1446.533)" fill="#4dcc86"/>
    <path id="Path_83" data-name="Path 83" d="M222.739,38.218h14.628a2.66,2.66,0,1,0,0-5.319h-11.3a1.33,1.33,0,1,1,0-2.66h5.319a3.993,3.993,0,0,0,3.989-3.989h-1.33a2.659,2.659,0,0,1-2.66,2.66h-5.319a2.66,2.66,0,1,0,0,5.32h11.3a1.33,1.33,0,1,1,0,2.66H222.739a3.993,3.993,0,0,0-3.989,3.989h1.33a2.659,2.659,0,0,1,2.66-2.66Z" transform="translate(-1707.521 1815.758)" fill="#4dcc86"/>
  </g>
</svg>
