<svg xmlns="http://www.w3.org/2000/svg" xmlns:xlink="http://www.w3.org/1999/xlink" width="33" height="38" viewBox="0 0 33 38">
  <defs>
    <clipPath id="clip-path">
      <rect id="Rectangle_91" data-name="Rectangle 91" width="33" height="38" transform="translate(-0.007 0.392)" fill="#4dcc86"/>
    </clipPath>
  </defs>
  <g id="Bank" transform="translate(0.007 -0.392)">
    <g id="Group_148" data-name="Group 148" clip-path="url(#clip-path)">
      <path id="Path_136" data-name="Path 136" d="M69.817,174.908a2.456,2.456,0,0,0,2.424-2.424V159.917a2.427,2.427,0,0,0-2.424-2.424,2.456,2.456,0,0,0-2.424,2.424v12.567a2.427,2.427,0,0,0,2.424,2.424m-1.472-14.9a1.428,1.428,0,0,1,2.857,0V172.39a1.429,1.429,0,0,1-2.857,0Z" transform="translate(-61.559 -143.858)" fill="#4dcc86"/>
      <path id="Path_137" data-name="Path 137" d="M3.011,396.848H31.044a2.424,2.424,0,0,0,0-4.848H3.011a2.424,2.424,0,1,0,0,4.848m-.043-3.809H31.087a1.429,1.429,0,1,1,0,2.857H2.968a1.429,1.429,0,1,1,0-2.857" transform="translate(-0.536 -358.064)" fill="#4dcc86"/>
      <path id="Path_138" data-name="Path 138" d="M164.817,174.908a2.456,2.456,0,0,0,2.424-2.424V159.917a2.427,2.427,0,0,0-2.424-2.424,2.456,2.456,0,0,0-2.424,2.424v12.567a2.427,2.427,0,0,0,2.424,2.424m-1.385-14.9a1.428,1.428,0,1,1,2.857,0V172.39a1.428,1.428,0,0,1-2.857,0Z" transform="translate(-148.334 -143.858)" fill="#4dcc86"/>
      <path id="Path_139" data-name="Path 139" d="M.583,9.936a2.441,2.441,0,0,0,1.85.8H30.552a2.443,2.443,0,0,0,1.85-.8,2.545,2.545,0,0,0,.582-1.669A2.581,2.581,0,0,0,32.4,6.584,2.437,2.437,0,0,0,30.55,5.8H28.719l-.1-.051c-1.5-.756-3.095-1.55-4.641-2.319C21.754,2.326,19.456,1.184,17.4.125A2.608,2.608,0,0,0,16.492,0h0a2.6,2.6,0,0,0-.907.125C13.1,1.41,10.365,2.767,7.724,4.078,6.591,4.641,5.464,5.2,4.365,5.75l-.1.05H2.433a2.439,2.439,0,0,0-1.85.784A2.58,2.58,0,0,0,0,8.268,2.543,2.543,0,0,0,.583,9.936m.749-2.667a1.328,1.328,0,0,1,1.1-.43h1.94A.506.506,0,0,0,4.6,6.786C6.435,5.853,8.245,4.979,10,4.135c2.067-1,4.019-1.938,5.882-2.911l.049-.022a3.03,3.03,0,0,1,1.128,0l.047.021c2.482,1.27,5.312,2.649,8.05,3.983,1.1.535,2.184,1.064,3.231,1.579a.511.511,0,0,0,.23.056h1.938a1.326,1.326,0,0,1,1.1.429,1.545,1.545,0,0,1,.346,1,1.5,1.5,0,0,1-.346.984,1.327,1.327,0,0,1-1.1.444H2.433a1.327,1.327,0,0,1-1.1-.444A1.5,1.5,0,0,1,.987,8.27a1.546,1.546,0,0,1,.346-1" fill="#4dcc86"/>
      <path id="Path_140" data-name="Path 140" d="M259.817,174.908a2.489,2.489,0,0,0,2.424-2.545V159.917a2.427,2.427,0,0,0-2.424-2.424,2.456,2.456,0,0,0-2.424,2.424v12.446a2.489,2.489,0,0,0,2.424,2.545m-1.385-15.019a1.3,1.3,0,0,1,.952-1.367v-.061h.476a1.325,1.325,0,0,1,1.428,1.428v12.5a1.433,1.433,0,1,1-2.857,0Z" transform="translate(-235.11 -143.858)" fill="#4dcc86"/>
    </g>
  </g>
</svg>
