<svg width="380" height="222" viewBox="0 0 380 222" fill="none" xmlns="http://www.w3.org/2000/svg">
<path d="M375.508 185.332V133.769H357.273V95.724H339.722V112.662H325.186V73.6357H301.415V109.324L294.295 109.544V73.5577H285.995V58.224H281.025V47.9239H261.566V58.224H256.591V73.5577H248.292V93.0596L244.457 93.2924L243.308 35.5406H217.694V66.2558L208.684 66.4758V18.4685H205.6V8.34076H178.569V18.4731H175.486V83.1721H169.785V63.0009H165.052V53.139H158.174V24.3346H148.213V53.139H141.335V62.9991H136.585V97.1341H133.273L130.658 97.0956V57.551L60.4669 58.1983V147.247H54.5405V135.575H33.1985V158.012H27.0308V149.77H13.5154V166.475H0V185.329L375.508 185.332Z" fill="#2F3445"/>
<path d="M201.844 53.967C207.212 53.967 211.565 49.7668 211.565 44.5856C211.565 39.4044 207.212 35.2042 201.844 35.2042C196.475 35.2042 192.123 39.4044 192.123 44.5856C192.123 49.7668 196.475 53.967 201.844 53.967Z" fill="white"/>
<path d="M162.46 0.637218C162.449 0.637218 162.449 0.637224 162.437 0.626221C162.212 0.546453 161.988 0.477681 161.752 0.409833C161.669 0.386911 161.599 0.363992 161.516 0.34107C161.435 0.316761 161.352 0.297772 161.268 0.284228C161.185 0.261306 161.103 0.250307 161.009 0.227385C160.915 0.204463 160.843 0.193458 160.761 0.181539C160.678 0.169619 160.571 0.147612 160.489 0.135692L160.253 0.101766L159.947 0.0678391C159.875 0.0568367 159.805 0.0568423 159.722 0.044923C159.605 0.0339205 159.486 0.0220068 159.38 0.0220068C159.321 0.0220068 159.263 0.0109964 159.19 0.0109964C159.014 -6.04392e-06 158.836 0 158.647 0H75.8624C75.6724 0 75.4729 -6.04392e-06 75.2838 0.0109964C74.9038 0.0339182 74.5238 0.0678499 74.1628 0.124696C73.9728 0.147618 73.797 0.181533 73.6079 0.216374C71.2785 0.685072 69.1643 1.85782 67.5722 3.5645C65.98 5.27117 64.9928 7.42301 64.7535 9.70782C64.7184 10.0746 64.6946 10.4413 64.6946 10.8127V174.674C64.6917 176.893 65.3972 179.059 66.7154 180.878C68.0335 182.697 69.9001 184.079 72.0612 184.837C72.085 184.848 72.0964 184.848 72.1202 184.86C72.333 184.929 72.5448 184.997 72.769 185.066C72.8517 185.089 72.923 185.112 73.0047 185.134C73.0859 185.159 73.1687 185.178 73.2526 185.191C73.3353 185.214 73.418 185.225 73.512 185.248C73.6061 185.271 73.6773 185.282 73.76 185.294C73.8426 185.306 73.95 185.328 74.0317 185.34L74.2682 185.374L74.5751 185.408C74.6463 185.419 74.7167 185.419 74.7993 185.431C74.9171 185.442 75.0359 185.454 75.1413 185.454C75.2002 185.454 75.2591 185.465 75.3313 185.465C75.508 185.476 75.6857 185.476 75.8748 185.476H158.671C159.06 185.476 159.438 185.453 159.815 185.419C162.373 185.162 164.761 184.061 166.576 182.303C168.391 180.545 169.523 178.237 169.78 175.768C169.815 175.401 169.838 175.034 169.838 174.663V10.8081C169.834 8.58796 169.125 6.42249 167.805 4.60378C166.486 2.78507 164.621 1.40063 162.46 0.637218Z" fill="#4D5263"/>
<path d="M164.738 14.7277H70.1125V170.743H164.738V14.7277Z" fill="#464D68"/>
<path d="M164.737 80.4471L137.43 78.2824L136.651 62.8322L129.945 62.5571V52.0305L164.737 66.4557V63.5052L153.191 58.731L151.005 14.7506H148.184L150.312 57.5455L129.934 49.1103V48.8142H129.214L124.574 46.8997L124.55 14.7579H121.74L121.764 45.7261L93.5237 34.0131V14.7277H87.8918V31.6815L70.1125 24.3209V27.2723L87.8928 34.6329V51.8151L70.1125 43.8044V46.8007L87.8928 54.8105V64.963L71.8369 84.6289L70.1135 84.6629V87.375L84.2455 87.0999V105.615L99.0035 113.522L83.5253 120.096L70.1125 110.869V114.208L82.7805 122.925L82.7919 122.914L79.7337 170.745H85.377L87.2771 141.018L111.066 149.416L108.339 170.745H111.172L113.769 150.373L136.992 158.565L132.931 170.745H135.883L139.637 159.5L164.737 168.353V165.459L140.51 156.914L147.37 136.36L138.585 131.654C141.631 128.088 148.219 120.386 154.795 112.638C158.986 107.705 162.221 103.865 164.736 100.869V96.5391C161.619 100.276 157.605 105.038 153.284 110.132L138.573 101.055L137.57 81.0357L164.736 83.1775L164.737 80.4471ZM131.28 68.062L132.826 98.7772L115.861 84.5657V67.4477L131.28 68.062ZM93.5237 36.9682L127.124 50.8799V62.4563L93.5237 61.1122V36.9682ZM75.4841 84.5712L90.3049 66.4171L113.055 67.3285V83.8496L75.4841 84.5712ZM87.0662 104.021V87.0687L113.953 86.5562L130.304 100.262L102.253 112.158L87.0662 104.021ZM143.974 137.644L137.859 155.977L87.4462 138.19L88.3554 123.978L105.179 116.834L143.974 137.644ZM151.495 112.236C146.324 118.32 140.869 124.724 136.088 130.307L108.426 115.472L137.056 103.326L151.495 112.236Z" fill="#4D5263"/>
<path d="M110.21 148.769L83.2288 139.57L84.1969 122.205L132.626 101.548L113.476 85.6999V65.669L89.71 64.985V46.7329H91.7165V63.0944L115.482 63.7894V84.8105L136.356 102.072L86.1445 123.504L85.318 138.226L111.856 147.923L110.21 148.769Z" fill="#576D72"/>
<path d="M85.5078 40.2607L90.6552 50.128L96.0619 40.3863C96.437 39.5593 96.5988 38.6568 96.5334 37.7563C96.468 36.8557 96.1773 35.9839 95.6863 35.2155C95.1954 34.4471 94.5187 33.805 93.7142 33.3442C92.9098 32.8835 92.0016 32.6178 91.0675 32.57H90.7131C89.7783 32.5958 88.8639 32.8396 88.0479 33.2805C87.2318 33.7214 86.5386 34.3464 86.0271 35.102C85.5157 35.8576 85.2013 36.7215 85.1109 37.6198C85.0205 38.5181 85.1567 39.4242 85.5078 40.2607ZM88.1404 38.2096C88.1474 37.7003 88.3107 37.2044 88.6098 36.7846C88.9089 36.3648 89.3302 36.0401 89.8205 35.8514C90.3108 35.6628 90.8481 35.6187 91.3643 35.7247C91.8806 35.8308 92.3527 36.0822 92.7209 36.4471C93.0891 36.8121 93.337 37.2743 93.433 37.7752C93.529 38.2761 93.469 38.7932 93.2605 39.2612C93.052 39.7291 92.7044 40.1269 92.2616 40.4042C91.8188 40.6815 91.3008 40.8259 90.773 40.8191C90.4225 40.8149 90.0763 40.744 89.7542 40.6105C89.4321 40.4771 89.1405 40.2836 88.896 40.0412C88.6514 39.7989 88.4588 39.5123 88.3292 39.198C88.1996 38.8838 88.1354 38.5479 88.1404 38.2096Z" fill="#41BB16"/>
<path d="M106.387 136.822L111.535 146.688L116.942 136.947C117.317 136.12 117.479 135.217 117.414 134.317C117.349 133.416 117.058 132.544 116.567 131.776C116.076 131.008 115.4 130.366 114.595 129.905C113.791 129.444 112.883 129.178 111.949 129.13H111.595C110.659 129.156 109.745 129.399 108.928 129.84C108.112 130.281 107.418 130.906 106.907 131.662C106.395 132.418 106.08 133.282 105.99 134.18C105.9 135.079 106.036 135.985 106.387 136.822ZM109.032 134.771C109.039 134.261 109.203 133.766 109.502 133.346C109.801 132.926 110.222 132.601 110.712 132.413C111.203 132.224 111.74 132.18 112.256 132.286C112.773 132.392 113.245 132.643 113.613 133.008C113.981 133.373 114.229 133.835 114.325 134.336C114.421 134.837 114.361 135.354 114.152 135.822C113.944 136.29 113.596 136.688 113.153 136.965C112.711 137.243 112.193 137.387 111.665 137.38C111.314 137.376 110.968 137.305 110.646 137.172C110.324 137.039 110.032 136.845 109.787 136.603C109.543 136.36 109.35 136.074 109.22 135.759C109.091 135.445 109.026 135.109 109.031 134.771H109.032Z" fill="#F68C95"/>
<path d="M137.42 9.82793H97.2668C97.2528 9.82806 97.239 9.82548 97.226 9.82037C97.213 9.81525 97.2012 9.80769 97.1913 9.79813C97.1814 9.78857 97.1736 9.7772 97.1683 9.76468C97.163 9.75217 97.1603 9.73876 97.1604 9.72524V7.97035C97.1603 7.95683 97.163 7.94343 97.1683 7.93091C97.1736 7.9184 97.1814 7.90702 97.1913 7.89746C97.2012 7.8879 97.213 7.88035 97.226 7.87523C97.239 7.87012 97.2528 7.86754 97.2668 7.86766H137.42C137.434 7.86754 137.448 7.87012 137.461 7.87523C137.474 7.88035 137.485 7.8879 137.495 7.89746C137.505 7.90702 137.513 7.9184 137.518 7.93091C137.524 7.94343 137.526 7.95683 137.526 7.97035V9.72524C137.522 9.75122 137.51 9.77533 137.491 9.79387C137.472 9.81241 137.447 9.82437 137.42 9.82793Z" fill="white"/>
<path opacity="0.3" d="M117.207 182.752C119.763 182.752 121.834 180.742 121.834 178.263C121.834 175.783 119.763 173.774 117.207 173.774C114.651 173.774 112.579 175.783 112.579 178.263C112.579 180.742 114.651 182.752 117.207 182.752Z" fill="#DAEEF7"/>
<path opacity="0.2" d="M164.42 164.203H70.1125V170.754H164.42V164.203Z" fill="#3CB4C5"/>
<path opacity="0.2" d="M164.738 14.7277H70.1125V23.0107H164.738V14.7277Z" fill="#3CB4C5"/>
<path d="M264.075 29.1106H196.319C195.762 29.1118 195.21 29.2191 194.695 29.4262C194.181 29.6333 193.714 29.9362 193.32 30.3177C192.927 30.6991 192.615 31.1516 192.403 31.6493C192.191 32.147 192.083 32.6801 192.085 33.2182V60.2934C192.083 60.8314 192.191 61.3646 192.403 61.8622C192.615 62.3599 192.927 62.8124 193.32 63.1939C193.714 63.5754 194.181 63.8783 194.695 64.0854C195.21 64.2925 195.762 64.3998 196.319 64.401H249.659C251.81 67.3157 255.723 72.5501 256.067 72.5501C256.386 72.5501 255.77 67.6256 255.334 64.401H264.075C264.632 64.3998 265.184 64.2925 265.699 64.0854C266.214 63.8783 266.681 63.5754 267.074 63.1939C267.467 62.8124 267.779 62.3599 267.991 61.8622C268.203 61.3646 268.311 60.8314 268.309 60.2934V33.1962C268.308 32.1129 267.861 31.0745 267.067 30.3086C266.274 29.5427 265.197 29.1118 264.075 29.1106Z" fill="#F7CC7F"/>
<path d="M153.226 166.605C153.226 166.605 180.392 170.956 180.715 170.768C181.038 170.58 184.562 155.931 184.562 155.931C184.562 155.931 162.097 152.032 161.738 152.032C159.85 153.223 158.074 154.569 156.427 156.056C156.355 156.313 153.226 166.605 153.226 166.605Z" fill="#183658"/>
<path d="M236.094 170.332C236.747 170.394 269.64 169.715 269.64 169.715L267.165 162.415C267.165 162.415 262.605 155.759 260.195 155.884C257.786 156.008 243.45 153.764 240.975 155.42C238.499 157.076 236.288 155.752 235.111 159.714C233.934 163.676 233.021 164.115 233.934 166.499C234.448 167.875 235.177 169.167 236.094 170.332Z" fill="#183658"/>
<path d="M166.949 180.029C173.132 180.029 178.145 175.188 178.145 169.217C178.145 163.245 173.132 158.404 166.949 158.404C160.765 158.404 155.752 163.245 155.752 169.217C155.752 175.188 160.765 180.029 166.949 180.029Z" fill="#1A1A1A"/>
<path d="M166.948 176.738C171.249 176.738 174.736 173.37 174.736 169.216C174.736 165.061 171.249 161.694 166.948 161.694C162.647 161.694 159.161 165.061 159.161 169.216C159.161 173.37 162.647 176.738 166.948 176.738Z" fill="#9E9DA2"/>
<path d="M166.95 174.246C169.828 174.246 172.161 171.994 172.161 169.217C172.161 166.439 169.828 164.188 166.95 164.188C164.072 164.188 161.739 166.439 161.739 169.217C161.739 171.994 164.072 174.246 166.95 174.246Z" fill="#D8D9DD"/>
<path d="M253.154 180.029C259.338 180.029 264.35 175.188 264.35 169.217C264.35 163.245 259.338 158.404 253.154 158.404C246.971 158.404 241.958 163.245 241.958 169.217C241.958 175.188 246.971 180.029 253.154 180.029Z" fill="#1A1A1A"/>
<path d="M253.154 176.738C257.455 176.738 260.942 173.37 260.942 169.216C260.942 165.061 257.455 161.694 253.154 161.694C248.853 161.694 245.367 165.061 245.367 169.216C245.367 173.37 248.853 176.738 253.154 176.738Z" fill="#9E9DA2"/>
<path d="M253.155 174.246C256.033 174.246 258.366 171.994 258.366 169.217C258.366 166.439 256.033 164.188 253.155 164.188C250.277 164.188 247.944 166.439 247.944 169.217C247.944 171.994 250.277 174.246 253.155 174.246Z" fill="#D8D9DD"/>
<path d="M278.863 158.93C277.913 152.904 274.859 151.643 265.808 149.891C255.817 147.965 243.135 141.676 243.135 141.676C243.135 141.676 221.51 131.452 216.206 130.274C210.902 129.097 197.882 129.436 186.937 129.52C175.993 129.603 169.569 132.54 164.006 136.73C158.444 140.92 148.805 144.107 148.805 144.107L147.054 144.412C146.181 144.562 145.39 145.004 144.82 145.661C144.25 146.317 143.938 147.147 143.938 148.003V162.948C143.939 163.771 144.221 164.57 144.742 165.222C145.262 165.873 145.992 166.34 146.816 166.55L153.146 168.163C153.268 168.183 153.393 168.178 153.513 168.15C153.634 168.121 153.747 168.07 153.845 167.998C153.944 167.926 154.027 167.835 154.088 167.731C154.149 167.627 154.188 167.513 154.202 167.394C154.601 164.299 156.207 161.467 158.693 159.473C161.178 157.479 164.357 156.472 167.583 156.659C170.809 156.845 173.841 158.209 176.063 160.474C178.284 162.74 179.529 165.736 179.544 168.856C179.546 169.604 179.473 170.35 179.329 171.085C179.295 171.26 179.301 171.44 179.348 171.613C179.394 171.785 179.479 171.945 179.597 172.082C179.715 172.219 179.863 172.329 180.03 172.405C180.197 172.48 180.379 172.519 180.564 172.519H238.822C239.088 172.52 239.352 172.465 239.595 172.359C239.839 172.253 240.055 172.098 240.232 171.904C240.408 171.711 240.539 171.483 240.616 171.237C240.694 170.99 240.716 170.731 240.681 170.476C240.61 169.947 240.571 169.415 240.566 168.882C240.549 167.27 240.864 165.67 241.491 164.176C242.118 162.681 243.046 161.321 244.221 160.175C245.395 159.028 246.794 158.117 248.335 157.495C249.876 156.872 251.53 156.551 253.201 156.549C254.872 156.546 256.526 156.863 258.07 157.481C259.613 158.099 261.014 159.006 262.192 160.15C263.37 161.293 264.302 162.651 264.933 164.143C265.565 165.636 265.884 167.235 265.872 168.847C265.872 169.297 265.844 169.748 265.8 170.184C265.765 170.477 265.794 170.774 265.886 171.056C265.978 171.337 266.131 171.597 266.334 171.817C266.537 172.038 266.787 172.214 267.066 172.335C267.345 172.456 267.647 172.518 267.953 172.518H276.329C276.69 172.518 277.049 172.45 277.383 172.316C277.717 172.182 278.021 171.986 278.277 171.74C278.533 171.493 278.736 171.2 278.874 170.877C279.013 170.554 279.084 170.209 279.084 169.859V162.031C279.093 160.994 279.019 159.957 278.863 158.93Z" fill="#F7CC7F"/>
<path d="M144.312 149.767H151.209C151.346 149.767 151.48 149.8 151.599 149.863C151.719 149.925 151.822 150.015 151.897 150.125C151.972 150.235 152.018 150.361 152.031 150.492C152.043 150.622 152.022 150.754 151.969 150.876L151.194 152.663C150.833 153.495 150.224 154.206 149.445 154.705C148.666 155.204 147.751 155.47 146.816 155.468H144.304C144.068 155.468 143.842 155.378 143.675 155.217C143.508 155.055 143.414 154.837 143.414 154.609V150.626C143.416 150.398 143.511 150.179 143.679 150.018C143.847 149.857 144.075 149.767 144.312 149.767Z" fill="#CF283C"/>
<path d="M267.889 152.531C271.689 153.092 276.06 156.565 276.06 156.565C276.292 156.804 276.444 157.106 276.496 157.43C276.549 157.754 276.499 158.086 276.354 158.382C276.208 158.679 275.974 158.926 275.681 159.093C275.388 159.259 275.05 159.337 274.711 159.315L267.3 158.865C266.549 158.818 265.831 158.549 265.244 158.094C264.657 157.639 264.23 157.021 264.021 156.323C263.303 153.93 263.913 151.941 267.889 152.531Z" fill="#F3FCFF"/>
<path d="M143.981 163.506C143.871 163.503 143.763 163.526 143.665 163.573C143.567 163.621 143.483 163.691 143.42 163.777C143.356 163.863 143.316 163.963 143.303 164.068C143.289 164.173 143.303 164.28 143.343 164.378C143.592 164.986 143.985 165.529 144.491 165.963C144.997 166.397 145.602 166.711 146.256 166.879L153.348 168.687C153.484 168.709 153.624 168.704 153.759 168.672C153.894 168.64 154.02 168.582 154.131 168.501C154.241 168.419 154.333 168.317 154.401 168.2C154.469 168.083 154.511 167.954 154.525 167.821C154.651 166.684 154.934 165.568 155.364 164.503C155.397 164.421 155.409 164.332 155.399 164.245C155.389 164.157 155.358 164.073 155.307 164C155.256 163.926 155.188 163.866 155.108 163.823C155.028 163.781 154.939 163.757 154.848 163.755L143.981 163.506Z" fill="#EAB054"/>
<path d="M265.937 166.325C265.811 166.322 265.686 166.346 265.57 166.394C265.454 166.442 265.351 166.515 265.267 166.606C265.183 166.696 265.12 166.804 265.083 166.92C265.047 167.037 265.037 167.16 265.054 167.28C265.132 167.861 265.171 168.447 265.169 169.032C265.17 169.528 265.141 170.023 265.083 170.515C265.044 170.84 265.077 171.17 265.179 171.482C265.282 171.794 265.452 172.082 265.677 172.326C265.903 172.571 266.18 172.767 266.489 172.901C266.799 173.035 267.134 173.105 267.473 173.105H276.767C277.578 173.105 278.356 172.794 278.929 172.241C279.502 171.687 279.825 170.937 279.826 170.155V167.834C279.826 167.517 279.697 167.213 279.468 166.987C279.238 166.76 278.926 166.629 278.598 166.622L265.937 166.325Z" fill="#EAB054"/>
<path opacity="0.5" d="M243.15 145.139C243.029 145.076 230.712 138.552 222.544 134.901C214.463 131.286 205.434 131.674 205.046 131.687C204.013 131.666 182.416 131.21 175.777 133.211C169.088 135.22 160.387 144.384 160.016 144.772L159.915 144.883L162.255 155.487L162.506 155.474C169.317 155.1 174.528 156.849 177.585 160.53C178.967 162.188 179.862 164.173 180.176 166.279L180.198 166.528L204.759 167.138L205.044 167.145L205.345 167.152L239.559 167.794L239.566 167.509C239.738 156.782 243.255 145.573 243.291 145.462L243.363 145.241L243.15 145.139ZM180.732 165.981C180.371 163.866 179.452 161.877 178.062 160.205C175.877 157.551 171.438 154.483 162.725 154.899L160.55 145.049C161.555 144.003 169.794 135.605 175.952 133.752C182.11 131.899 202.12 132.201 204.755 132.249V166.578L180.732 165.981ZM238.99 167.228L205.35 166.598V132.249C206.937 132.208 215.011 132.158 222.303 135.422C229.868 138.802 241.007 144.655 242.665 145.528C240.553 152.595 239.318 159.879 238.987 167.228H238.99Z" fill="#FEB546"/>
<path opacity="0.5" d="M143.343 164.375C143.592 164.982 143.985 165.525 144.491 165.96C144.997 166.394 145.602 166.707 146.257 166.875L153.348 168.683C153.485 168.705 153.625 168.701 153.759 168.668C153.894 168.636 154.021 168.578 154.131 168.497C154.241 168.416 154.333 168.314 154.401 168.197C154.469 168.08 154.511 167.951 154.525 167.818C154.573 167.373 154.648 166.931 154.747 166.494L143.343 164.375Z" fill="#FEB546"/>
<path opacity="0.5" d="M265.155 169.667C265.141 169.951 265.119 170.235 265.09 170.519C265.052 170.844 265.085 171.174 265.187 171.486C265.289 171.798 265.459 172.086 265.685 172.331C265.91 172.575 266.187 172.771 266.497 172.905C266.806 173.04 267.142 173.109 267.481 173.11H276.775C277.586 173.109 278.363 172.798 278.936 172.245C279.509 171.692 279.832 170.942 279.833 170.159V169.674H265.155V169.667Z" fill="#FEB546"/>
<path d="M241.12 169.667C241.12 169.062 241.163 168.458 241.249 167.859C241.276 167.692 241.266 167.522 241.219 167.36C241.172 167.197 241.09 167.047 240.978 166.918C240.866 166.788 240.726 166.684 240.569 166.611C240.412 166.538 240.24 166.498 240.065 166.494L179.473 165.071C179.32 165.069 179.17 165.101 179.032 165.166C178.895 165.231 178.776 165.325 178.683 165.442C178.591 165.56 178.528 165.696 178.501 165.841C178.473 165.986 178.48 166.135 178.523 166.276C179.057 168.104 179.148 170.026 178.789 171.894C178.754 172.073 178.76 172.257 178.807 172.433C178.854 172.61 178.94 172.774 179.06 172.915C179.18 173.056 179.33 173.169 179.5 173.248C179.67 173.326 179.856 173.368 180.045 173.369H239.336C239.61 173.369 239.88 173.312 240.129 173.201C240.378 173.091 240.6 172.931 240.779 172.731C240.958 172.531 241.09 172.296 241.167 172.042C241.243 171.789 241.263 171.522 241.223 171.26C241.16 170.731 241.125 170.199 241.12 169.667Z" fill="#EAB054"/>
<path opacity="0.5" d="M241.119 169.666V169.638H179C179.001 170.396 178.929 171.152 178.784 171.897C178.749 172.076 178.755 172.26 178.802 172.436C178.849 172.613 178.935 172.777 179.055 172.918C179.175 173.058 179.325 173.172 179.495 173.25C179.665 173.329 179.851 173.37 180.04 173.372H239.332C239.606 173.372 239.876 173.315 240.125 173.204C240.374 173.094 240.596 172.934 240.775 172.734C240.954 172.534 241.086 172.299 241.163 172.045C241.24 171.791 241.259 171.525 241.22 171.263C241.157 170.733 241.124 170.2 241.119 169.666Z" fill="#FEB546"/>
<path d="M173.624 149.393H166.066C166.023 149.393 165.981 149.385 165.942 149.37C165.903 149.354 165.867 149.331 165.837 149.302C165.807 149.273 165.783 149.239 165.767 149.201C165.751 149.163 165.743 149.122 165.743 149.081V148.43C165.743 148.389 165.751 148.349 165.767 148.311C165.783 148.273 165.807 148.239 165.837 148.21C165.867 148.181 165.903 148.158 165.942 148.142C165.981 148.126 166.023 148.118 166.066 148.119H173.624C173.666 148.118 173.708 148.126 173.747 148.142C173.786 148.158 173.822 148.181 173.852 148.21C173.882 148.239 173.906 148.273 173.922 148.311C173.938 148.349 173.947 148.389 173.947 148.43V149.081C173.947 149.122 173.938 149.163 173.922 149.201C173.906 149.239 173.882 149.273 173.852 149.302C173.822 149.331 173.786 149.354 173.747 149.37C173.708 149.385 173.666 149.393 173.624 149.393Z" fill="#EAB054"/>
<path d="M215.295 150.029H207.737C207.695 150.029 207.653 150.021 207.613 150.006C207.574 149.99 207.538 149.967 207.508 149.938C207.478 149.909 207.455 149.875 207.438 149.837C207.422 149.799 207.414 149.759 207.414 149.718V149.067C207.414 149.026 207.422 148.985 207.438 148.947C207.455 148.909 207.478 148.875 207.508 148.846C207.538 148.817 207.574 148.794 207.613 148.778C207.653 148.763 207.695 148.755 207.737 148.755H215.295C215.337 148.755 215.379 148.763 215.419 148.778C215.458 148.794 215.493 148.817 215.523 148.846C215.553 148.875 215.577 148.909 215.593 148.947C215.61 148.985 215.618 149.026 215.618 149.067V149.718C215.618 149.759 215.61 149.799 215.593 149.837C215.577 149.875 215.553 149.909 215.523 149.938C215.493 149.967 215.458 149.99 215.419 150.006C215.379 150.021 215.337 150.029 215.295 150.029Z" fill="#EAB054"/>
<path d="M167.186 146.137L200.668 146.442C201.224 146.431 201.76 146.235 202.184 145.886C202.608 145.538 202.894 145.059 202.993 144.53C203.274 142.667 203.252 134.694 203.252 134.694C203.19 134.26 202.974 133.861 202.639 133.565C202.305 133.269 201.875 133.095 201.422 133.073C195.78 132.754 190.12 132.872 184.498 133.426C178.118 134.179 172.183 136.971 167.638 141.357L165.263 143.649C165.266 143.657 163.651 146.11 167.186 146.137Z" fill="#183658"/>
<path d="M206.976 135.712V144.071C206.968 144.587 207.167 145.085 207.53 145.462C207.894 145.839 208.395 146.066 208.928 146.094L235.245 147.112C235.545 147.125 235.844 147.065 236.114 146.937C236.384 146.809 236.616 146.616 236.788 146.378C237.263 145.706 237.312 144.598 234.958 143.123C230.859 140.546 220.422 134.97 216.57 134.437C214.021 134.128 211.458 133.945 208.89 133.887C208.639 133.88 208.389 133.922 208.155 134.011C207.921 134.1 207.708 134.233 207.529 134.404C207.35 134.575 207.209 134.778 207.114 135.003C207.019 135.228 206.972 135.469 206.976 135.712Z" fill="#183658"/>
<path d="M269.845 84.7609L269.296 85.246C269.165 85.3651 268.991 85.4296 268.811 85.4255C268.632 85.4214 268.461 85.3489 268.336 85.2239L258.574 74.8321C258.516 74.7688 258.472 74.6949 258.444 74.6148C258.416 74.5347 258.405 74.4501 258.411 74.3659C258.418 74.2816 258.441 74.1993 258.481 74.124C258.521 74.0487 258.576 73.9819 258.642 73.9272L259.191 73.4413C259.321 73.3222 259.496 73.2576 259.676 73.2618C259.855 73.2659 260.026 73.3383 260.151 73.4633L269.914 83.8551C269.974 83.9173 270.021 83.9909 270.05 84.0714C270.08 84.1518 270.092 84.2374 270.085 84.3225C270.079 84.4076 270.054 84.4906 270.013 84.5661C269.972 84.6415 269.915 84.7078 269.845 84.7609Z" fill="#183658"/>
<path d="M302.949 76.3331C301.645 75.2961 291.563 79.599 291.678 81.077C291.815 82.577 284.636 97.0306 284.636 97.0306L272.244 87.4547C272.13 87.1017 270.963 83.3949 270.896 82.7329C270.828 82.0269 268.747 80.813 267.761 80.9909C266.775 81.1687 268.584 82.3587 268.72 82.5797C269.04 83.1757 267.806 83.3967 267.806 83.3967C267.806 83.3967 264.216 81.4988 264.148 80.371C264.079 79.2433 263.325 76.9071 262.571 77.3921C262.182 77.6351 262.182 79.312 262.295 80.106C262.067 79.202 261.747 78.209 261.427 78.0981C260.857 77.9221 260.558 78.6281 260.673 78.9811C260.787 79.3341 261.701 83.129 262.002 83.57C262.277 83.989 268.061 88.4899 268.885 89.4829C268.885 89.4829 284.911 107.223 286.054 107.686C287.06 108.083 290.627 101.971 293.988 97.9117C297.349 93.8527 307.02 79.532 302.949 76.3331Z" fill="#F7A491"/>
<path d="M335.277 206.753C335.277 206.753 337.473 208.827 337.54 209.596C337.585 210.369 337.746 218.531 336.831 219.303C335.915 220.075 333.288 220.605 334.133 221.465C334.774 222.107 339.711 221.973 342.98 221.796C343.941 221.752 345.129 214.361 345.518 213.28C346.067 211.714 347.393 208.161 346.913 207.058C346.102 205.974 345.067 205.065 343.873 204.388C342.558 203.41 341.415 202.234 340.489 200.904L335.277 206.753Z" fill="#F48C7F"/>
<path d="M312.461 211.607C312.461 211.607 314.427 216.991 314.427 217.017C314.565 217.877 315.159 219.973 315.159 220.768C315.159 223.681 301.579 218.292 304.619 216.995C305.294 216.494 305.738 215.757 305.854 214.943C305.799 213.718 305.405 212.53 304.714 211.501L312.461 211.607Z" fill="#F7A491"/>
<path d="M291.152 111.216C291.152 111.216 290.17 120.88 290.17 121.035C290.17 136.657 286.968 167.193 287.586 170.15C289.073 177.321 305.054 213.885 305.054 213.885L313.699 212.892L302.449 169.117L306.589 151.488L312.441 116.647L291.152 111.216Z" fill="#3B3B3B"/>
<path d="M320.142 119.777L321.788 128.934L326.222 166.617L343.118 203.465C343.118 203.465 340.743 208.826 337.242 209.576L310.38 171.759L293.69 123.348L294.285 112.604L320.142 119.777Z" fill="#444444"/>
<path d="M287.723 88.225L299.703 89.4169C299.703 89.4169 300.253 79.9081 300.253 75.3888C300.253 69.895 299.773 62.7901 299.087 62.9451C296.704 63.3928 294.559 64.6344 293.028 66.4529C287.655 73.5523 287.723 88.225 287.723 88.225Z" fill="#3DAE70"/>
<path d="M293.598 74.3911C293.346 76.068 288.752 121.674 288.752 121.674C310.564 131.868 322.588 123.483 322.588 123.483C322.588 123.483 321.88 91.4679 322.726 87.099C323.296 84.209 324.006 65.0565 322.061 64.5054C319.315 63.6923 316.5 63.1164 313.648 62.7845C310.997 62.5195 300.753 62.3655 298.902 62.9605C296.057 66.215 294.219 70.1761 293.598 74.3911Z" fill="#4DCC86"/>
<path d="M343.736 204.371C343.736 204.371 338.661 218.206 336.671 218.867C336.146 219.044 333.608 219.485 333.128 220.588C333.057 221.056 333.057 221.532 333.128 222H343.714C343.714 222 345.062 215.911 345.588 213.219C345.588 213.219 348.378 206.666 348.081 206.068C347.761 205.496 343.736 204.371 343.736 204.371Z" fill="#17282F"/>
<path d="M315.935 221.715L314.38 216.947C314.38 216.947 311.111 218.293 309.488 218.072C307.861 217.777 306.251 217.401 304.664 216.947C298.147 219.021 292.799 220.036 293.781 221.715H315.935Z" fill="#17282F"/>
<path d="M286.03 107.664C285.916 107.594 285.809 107.512 285.711 107.421C286.1 102.965 286.03 98.6195 284.59 97.1617C284.635 97.0956 284.934 96.4337 285.275 95.7708C286.944 97.0287 287.745 100.361 287.449 105.789C287.396 106.168 287.32 106.543 287.22 106.913C286.717 107.421 286.259 107.774 286.03 107.664Z" fill="#F7A491"/>
<path d="M344.17 122.16C344.192 122.066 344.192 121.968 344.17 121.873C343.85 118.718 341.153 92.1968 340.695 91.0718C340.283 90.0568 328.144 73.2442 328.144 73.2442L322.176 81.121L333.862 96.2128C334.113 97.1608 338.343 115.077 338.343 115.077C338.343 115.077 339.211 118.342 339.6 120.284C339.417 120.747 339.257 121.189 339.097 121.568C338.738 122.257 338.317 122.914 337.839 123.532C337.242 124.327 336.744 125.186 336.353 126.092C336.239 126.555 336.011 127.504 335.878 128.078C335.742 128.594 335.635 129.116 335.558 129.644C335.473 129.941 335.342 130.224 335.168 130.483C335.116 130.571 335.093 130.673 335.102 130.774C335.111 130.876 335.152 130.972 335.218 131.051C335.285 131.13 335.375 131.187 335.476 131.216C335.578 131.244 335.685 131.242 335.786 131.211C336.221 131.078 336.54 130.549 336.746 130.218C337.316 129.291 337.637 127.57 337.775 127.658C337.913 127.746 338.414 130.637 338.507 130.968C338.762 132.42 339.106 133.857 339.536 135.271C339.879 135.888 340.335 135.777 340.449 135.402C340.563 135.071 340.084 130.373 340.084 130.373C340.084 130.373 340.015 129.777 340.289 129.953C340.563 130.151 340.998 134.41 341.203 135.049C341.386 135.667 341.82 135.998 342.186 135.512C342.62 134.895 341.866 130.372 341.866 130.372C341.866 130.372 341.771 129.799 342.027 129.864C342.282 129.929 342.597 133.571 342.78 133.88C342.825 133.965 342.896 134.036 342.983 134.082C343.071 134.129 343.171 134.148 343.27 134.138C343.369 134.128 343.463 134.089 343.539 134.027C343.615 133.964 343.669 133.881 343.695 133.788C343.968 133.17 343.26 129.132 343.26 129.132C343.26 129.132 343.305 128.801 343.443 128.912C343.603 129.022 344.108 132.111 344.426 132.396C344.458 132.43 344.497 132.456 344.54 132.475C344.584 132.493 344.631 132.502 344.678 132.502C344.725 132.502 344.772 132.493 344.815 132.475C344.858 132.456 344.897 132.43 344.929 132.396C345.524 131.999 344.609 129.064 344.632 127.608C344.632 126.151 343.946 124.496 344.152 122.775C344.134 122.57 344.14 122.364 344.17 122.16Z" fill="#F8A492"/>
<path d="M337.63 83.857L327.251 90.6088C327.251 90.6088 321.398 82.181 318.265 79.1801C314.333 75.4292 319.707 63.9114 322.222 64.5743C327.893 66.0294 337.63 83.857 337.63 83.857Z" fill="#3DAE70"/>
<path d="M312.897 52.9235L314.451 62.8258C314.451 62.8258 308.782 74.6085 305.398 73.5935C302.563 72.7335 304.3 62.2976 304.3 62.2976C304.3 62.2976 305.855 56.6929 305.373 53.8909C304.916 51.0917 312.897 52.9235 312.897 52.9235Z" fill="#F7A491"/>
<path d="M305.373 53.8946C304.916 51.0927 312.873 52.9236 312.873 52.9236L313.009 53.7396C312.805 54.2477 312.511 54.7179 312.141 55.1296C310.301 56.9618 307.808 58.0503 305.167 58.1746C305.456 56.7657 305.525 55.3232 305.373 53.8946Z" fill="#F47458"/>
<path d="M314.198 38.9129C314.426 38.8212 316.002 50.1904 313.009 53.3206C310.015 56.4508 304.161 57.4694 302.083 54.9976C299.774 52.2836 299.888 40.06 304.553 36.861C309.194 33.64 314.198 38.9129 314.198 38.9129Z" fill="#F7A491"/>
<path d="M306.309 30.7931C308.922 31.3306 311.295 32.6419 313.098 34.544C314.745 34.7201 316.962 35.603 319.248 39.2879C322.083 43.8108 319.98 48.8417 316.688 51.2906C313.396 53.7396 313.442 56.5865 313.442 56.5865L312.915 55.1085C312.516 53.9968 312.376 52.8144 312.503 51.6446C312.559 50.93 312.737 50.2291 313.03 49.5706C313.829 47.9202 311.338 46.8346 310.629 45.4667C310.079 44.4077 310.059 42.0028 309.21 40.2598L308.204 38.9358C308.204 38.9358 305.872 37.1708 303.586 37.6778C301.347 38.1849 301.668 29.8661 306.309 30.7931Z" fill="#184655"/>
<path d="M313.806 47.516C313.83 46.1272 313.185 44.9903 312.365 44.9767C311.544 44.9632 310.859 46.078 310.834 47.4667C310.81 48.8555 311.455 49.9924 312.275 50.006C313.096 50.0195 313.781 48.9047 313.806 47.516Z" fill="#F7A491"/>
<path d="M305.944 50.6937L301.417 50.4737C301.443 50.9707 301.667 51.4388 302.042 51.7805C302.417 52.1221 302.914 52.3109 303.429 52.3074C305.853 52.4807 305.944 50.6937 305.944 50.6937Z" fill="white"/>
<path d="M378.324 185.345C378.769 185.346 379.195 185.516 379.509 185.819C379.823 186.123 380 186.534 380 186.963V187.364L378.324 185.345Z" fill="#183658"/>
<path d="M211.297 57.7573C217.333 57.7573 222.226 53.035 222.226 47.2097C222.226 41.3843 217.333 36.662 211.297 36.662C205.261 36.662 200.367 41.3843 200.367 47.2097C200.367 53.035 205.261 57.7573 211.297 57.7573Z" fill="#32BA7C"/>
<path d="M208.505 51.9691L214.125 57.3933C216.449 56.7936 218.502 55.4707 219.967 53.6298C221.432 51.7888 222.227 49.5327 222.228 47.2115V46.9117L217.815 42.9838L208.505 51.9691Z" fill="#0AA06E"/>
<path d="M211.574 49.5724C211.806 49.8047 211.935 50.1148 211.935 50.4375C211.935 50.7602 211.806 51.0703 211.574 51.3026L210.574 52.2671C210.334 52.4911 210.012 52.6163 209.678 52.6163C209.343 52.6163 209.022 52.4911 208.781 52.2671L204.403 48.0082C204.17 47.776 204.041 47.4659 204.041 47.1432C204.041 46.8205 204.17 46.5104 204.403 46.2781L205.402 45.3136C205.643 45.0895 205.964 44.9643 206.298 44.9643C206.633 44.9643 206.954 45.0895 207.195 45.3136L211.574 49.5724Z" fill="white"/>
<path d="M215.4 42.2191C215.641 41.9951 215.962 41.8699 216.297 41.8699C216.631 41.8699 216.952 41.9951 217.193 42.2191L218.192 43.1837C218.425 43.4159 218.554 43.726 218.554 44.0487C218.554 44.3714 218.425 44.6815 218.192 44.9138L210.607 52.2011C210.367 52.4251 210.045 52.5503 209.711 52.5503C209.376 52.5503 209.055 52.4251 208.814 52.2011L207.815 51.2365C207.583 51.0043 207.453 50.6942 207.453 50.3715C207.453 50.0488 207.583 49.7387 207.815 49.5064L215.4 42.2191Z" fill="white"/>
<path d="M249.632 57.7573C255.731 57.7573 260.676 52.9857 260.676 47.0996C260.676 41.2135 255.731 36.4419 249.632 36.4419C243.533 36.4419 238.589 41.2135 238.589 47.0996C238.589 52.9857 243.533 57.7573 249.632 57.7573Z" fill="#F15249"/>
<path d="M244.999 51.9077L250.956 57.6565C253.395 57.3791 255.667 56.3211 257.41 54.6513C259.153 52.9816 260.266 50.7964 260.571 48.4447L254.579 42.662L244.999 51.9077Z" fill="#AD0E0E"/>
<path d="M254.859 49.4532C255.093 49.6879 255.224 50.0013 255.224 50.3275C255.224 50.6536 255.093 50.967 254.859 51.2017L253.883 52.1433C253.64 52.3698 253.315 52.4964 252.977 52.4964C252.639 52.4964 252.314 52.3698 252.071 52.1433L244.407 44.7469C244.172 44.5123 244.041 44.1989 244.041 43.8727C244.041 43.5466 244.172 43.2331 244.407 42.9985L245.417 42.0238C245.66 41.7973 245.985 41.6708 246.323 41.6708C246.661 41.6708 246.986 41.7973 247.229 42.0238L254.859 49.4532Z" fill="white"/>
<path d="M250.817 45.5199L247.995 48.243L252.071 52.1433C252.314 52.3698 252.639 52.4964 252.977 52.4964C253.315 52.4964 253.639 52.3698 253.883 52.1433L254.892 51.1687C255.127 50.934 255.258 50.6206 255.258 50.2945C255.258 49.9683 255.127 49.6549 254.892 49.4202L250.817 45.5199Z" fill="#D6D6D6"/>
<path d="M252.071 42.0568C252.314 41.8303 252.639 41.7038 252.977 41.7038C253.315 41.7038 253.64 41.8303 253.883 42.0568L254.893 43.0315C255.127 43.2661 255.259 43.5796 255.259 43.9057C255.259 44.2319 255.127 44.5453 254.893 44.7799L247.197 52.1433C246.954 52.3698 246.629 52.4964 246.291 52.4964C245.953 52.4964 245.629 52.3698 245.385 52.1433L244.41 51.2017C244.175 50.967 244.044 50.6536 244.044 50.3275C244.044 50.0013 244.175 49.6879 244.41 49.4532L252.071 42.0568Z" fill="white"/>
</svg>
