<svg xmlns="http://www.w3.org/2000/svg" width="32.512" height="34.901" viewBox="0 0 32.512 34.901">
  <path id="Calendar" d="M3.965,34.892a3.936,3.936,0,0,1-3.959-3.9V11.176a.785.785,0,0,1,0-.2V6.767a3.936,3.936,0,0,1,3.959-3.9h4.61V.8a.809.809,0,1,1,1.618,0V2.87H22.2V.8a.809.809,0,1,1,1.618,0V2.866h4.735a3.934,3.934,0,0,1,3.959,3.9V30.991a3.93,3.93,0,0,1-3.959,3.9Zm-2.342-3.9A2.327,2.327,0,0,0,3.965,33.3H28.552A2.33,2.33,0,0,0,30.9,30.992V11.872H1.624ZM30.9,10.281V6.767A2.328,2.328,0,0,0,28.556,4.46h-4.74V6.214a.809.809,0,0,1-1.618,0V4.461H10.193V6.215a.809.809,0,0,1-1.618,0V4.461H3.965A2.328,2.328,0,0,0,1.624,6.767v3.514Z" transform="translate(0 0.009)" fill="#4dcc86"/>
</svg>
