<svg width="30" height="30" viewBox="0 0 30 30" fill="none" xmlns="http://www.w3.org/2000/svg">
<path d="M5 11.25V23.75C5 25.1307 6.11929 26.25 7.5 26.25H13.75M5 11.25V8.75C5 7.36929 6.11929 6.25 7.5 6.25H10M5 11.25H25M10 6.25H20M10 6.25V3.75M25 11.25V8.75C25 7.36929 23.8807 6.25 22.5 6.25H20M25 11.25V15M20 6.25V3.75M17.89 20.2616L19.9001 26.292C20.4989 28.0885 23.08 27.9659 23.5059 26.1208L23.7326 25.138C23.8939 24.4394 24.4394 23.8939 25.138 23.7326L26.1208 23.5059C27.9659 23.08 28.0885 20.4989 26.292 19.9L20.2616 17.8899C18.7959 17.4014 17.4014 18.7959 17.89 20.2616Z" stroke="black" stroke-width="2" stroke-linecap="round" stroke-linejoin="round"/>
</svg>
