<svg width="30" height="30" viewBox="0 0 30 30" fill="none" xmlns="http://www.w3.org/2000/svg">
<path d="M16.25 2.5C16.25 1.80965 15.6904 1.25 15 1.25C14.3096 1.25 13.75 1.80965 13.75 2.5V3.8436C12.459 4.02965 10.9309 4.51444 9.58212 5.48559C7.69775 6.84233 6.25 9.0926 6.25 12.5V16.25C6.25 19.508 5.13601 19.9355 4.98996 19.9915C4.97954 19.9955 4.97424 19.9987 4.97424 19.9987C4.97424 19.9987 4.98264 20 5 20C4.30965 20 3.75 20.5596 3.75 21.25C3.75 21.9404 4.30965 22.5 5 22.5H25C25.6904 22.5 26.25 21.9404 26.25 21.25C26.25 20.5596 25.6904 20 25 20C25.0174 20 25.0257 19.9987 25.0257 19.9987C25.0257 19.9987 25.0205 19.9955 25.01 19.9915C24.864 19.9355 23.75 19.508 23.75 16.25V12.5C23.75 11.05 23.3252 8.90275 22.0144 7.08212C20.831 5.43852 18.9679 4.1271 16.25 3.8188V2.5Z" fill="black"/>
<path d="M19.8426 23.75H10.1574C10.3033 24.3457 10.5629 24.9871 10.9856 25.5741C11.7798 26.6772 13.0926 27.5 15 27.5C16.9074 27.5 18.2201 26.6772 19.0144 25.5741C19.4371 24.9871 19.6968 24.3457 19.8426 23.75Z" fill="black"/>
</svg>
