<svg width="414" height="312" viewBox="0 0 414 312" fill="none" xmlns="http://www.w3.org/2000/svg">
<path d="M373.659 249.158H48.946C59.114 174.078 127.918 116.009 211.296 116.009C294.674 116.009 363.492 174.078 373.659 249.158Z" fill="#2F3445"/>
<path d="M331.326 238.507H209.189C206.461 238.505 203.844 237.42 201.915 235.491C199.985 233.562 198.9 230.946 198.897 228.218V53.018C198.899 50.2891 199.984 47.6725 201.914 45.7428C203.843 43.8131 206.46 42.7281 209.189 42.726H331.325C334.054 42.7281 336.671 43.8131 338.6 45.7428C340.53 47.6725 341.615 50.2891 341.617 53.018V228.201C341.62 229.554 341.356 230.894 340.84 232.145C340.324 233.396 339.566 234.532 338.61 235.49C337.654 236.447 336.519 237.206 335.269 237.724C334.019 238.242 332.679 238.508 331.326 238.507Z" fill="#2F3445"/>
<path d="M329.276 50.614H211.808V221.261H329.276V50.614Z" fill="#787E96"/>
<path d="M329.276 50.614C329.318 117.161 331.465 197.408 323.985 215.18C291.058 218.394 252.507 219.419 211.795 219.613L227.282 51.127L329.276 50.614Z" fill="#464D68" fill-opacity="0.34"/>
<path d="M318.72 209.806C267.411 218.02 233.112 218.45 205.297 216.386C208.897 178.015 210.353 114.266 211.797 50.629L273.634 50.768L329.598 54.468C330.412 120.499 330.508 181.519 318.72 209.806Z" fill="#464D68"/>
<path d="M300.587 67.7971L238.795 66.343L238.573 75.7604L300.365 77.2145L300.587 67.7971Z" fill="#4DCC86"/>
<path d="M312.496 90.8307L256.755 89.519L256.654 93.8258L312.394 95.1375L312.496 90.8307Z" fill="#4DCC86"/>
<path d="M294.421 99.8046L256.531 98.913L256.43 103.22L294.319 104.111L294.421 99.8046Z" fill="#4DCC86" fill-opacity="0.5"/>
<path d="M226.006 89.051L239.202 89.3615L238.892 102.558L225.695 102.247L226.006 89.051Z" fill="white" stroke="white" stroke-width="6"/>
<path d="M228.153 92.531C228.553 94.096 229.317 100.621 232.586 98.792C233.342 98.1687 234 97.4355 234.539 96.617C235.55 95.467 236.561 94.317 237.587 93.168L243.668 86.256C244.194 85.656 241.895 84.178 241.244 84.926C239.444 86.976 237.639 89.0217 235.828 91.063L233.128 94.138C232.505 94.844 231.05 97.144 230.122 97.338C230.622 97.504 231.133 97.671 231.632 97.823C231.992 98.114 231.332 96.036 231.313 95.981C231.063 95.011 230.813 94.055 230.551 93.081C230.357 92.305 227.851 91.349 228.151 92.527L228.153 92.531Z" fill="#18CFA6"/>
<path d="M302.108 114.596L256.2 113.516L256.099 117.823L302.007 118.903L302.108 114.596Z" fill="#4DCC86"/>
<path d="M255.966 122.902L311.707 124.214L311.605 128.52L255.865 127.209L255.966 122.902Z" fill="#4DCC86" fill-opacity="0.3"/>
<path d="M238.635 113.354L225.438 113.043L225.127 126.24L238.325 126.551L238.635 113.354Z" fill="white" stroke="white" stroke-width="6" stroke-miterlimit="10"/>
<path d="M227.586 116.897C227.986 118.462 228.75 124.987 232.019 123.158C232.775 122.535 233.433 121.802 233.972 120.983C234.983 119.833 235.994 118.683 237.019 117.534L243.1 110.622C243.626 110.022 241.327 108.544 240.676 109.292C238.876 111.342 237.071 113.388 235.26 115.429L232.56 118.504C231.937 119.21 230.482 121.51 229.554 121.704C230.054 121.87 230.565 122.036 231.064 122.189C231.424 122.48 230.764 120.402 230.746 120.347C230.496 119.377 230.246 118.422 229.984 117.447C229.79 116.657 227.269 115.702 227.584 116.893L227.586 116.897Z" fill="#18CFA6"/>
<path d="M311.374 138.815L255.633 137.503L255.532 141.81L311.272 143.121L311.374 138.815Z" fill="#4DCC86"/>
<path d="M280.334 147.484L255.407 146.897L255.306 151.204L280.233 151.79L280.334 147.484Z" fill="#4DCC86" fill-opacity="0.3"/>
<path d="M238.067 137.346L224.87 137.035L224.559 150.232L237.757 150.543L238.067 137.346Z" fill="white" stroke="white" stroke-width="6" stroke-miterlimit="10"/>
<path d="M227.197 141.056C227.597 142.621 228.361 149.146 231.63 147.317C232.386 146.694 233.044 145.961 233.583 145.142C234.594 143.992 235.606 142.842 236.63 141.693L242.711 134.781C243.237 134.181 240.938 132.703 240.287 133.451C238.487 135.501 236.682 137.546 234.871 139.587L232.171 142.662C231.548 143.368 230.093 145.668 229.165 145.862C229.665 146.028 230.176 146.195 230.675 146.347C231.035 146.638 230.375 144.56 230.356 144.505C230.106 143.535 229.856 142.579 229.594 141.605C229.4 140.829 226.894 139.873 227.194 141.051L227.197 141.056Z" fill="#18CFA6"/>
<path d="M310.807 162.806L255.066 161.494L254.965 165.801L310.705 167.112L310.807 162.806Z" fill="#4DCC86"/>
<path d="M254.842 170.885L298.881 171.921L298.78 176.228L254.741 175.192L254.842 170.885Z" fill="#4DCC86" fill-opacity="0.3"/>
<path d="M237.499 161.338L224.302 161.027L223.991 174.224L237.189 174.535L237.499 161.338Z" fill="white" stroke="white" stroke-width="6" stroke-miterlimit="10"/>
<path d="M226.629 164.882C227.029 166.447 227.793 172.972 231.062 171.143C231.818 170.52 232.476 169.786 233.015 168.968C234.026 167.818 235.037 166.668 236.062 165.519L242.144 158.607C242.67 158.007 240.371 156.529 239.72 157.277C237.92 159.327 236.115 161.372 234.304 163.413L231.604 166.488C230.981 167.194 229.526 169.494 228.598 169.688C229.098 169.854 229.609 170.021 230.108 170.173C230.468 170.464 229.808 168.386 229.789 168.33C229.539 167.36 229.289 166.405 229.027 165.43C228.847 164.654 226.327 163.698 226.627 164.876L226.629 164.882Z" fill="#18CFA6"/>
<path d="M276.609 185.82L254.507 185.3L254.406 189.607L276.508 190.127L276.609 185.82Z" fill="#4DCC86"/>
<path d="M310.035 196.008L254.296 194.692L254.196 199C275.764 199.513 303.219 200.51 308.83 199.651C309.266 199.156 309.597 198.578 309.804 197.952C310.011 197.326 310.09 196.665 310.035 196.008V196.008Z" fill="#4DCC86" fill-opacity="0.3"/>
<path d="M237.125 185.149L223.928 184.838L223.617 198.035L236.815 198.346L237.125 185.149Z" fill="white" stroke="white" stroke-width="6" stroke-miterlimit="10"/>
<path d="M226.075 188.514C226.475 190.079 227.239 196.604 230.508 194.775C231.264 194.152 231.922 193.419 232.461 192.6C233.472 191.45 234.483 190.3 235.508 189.151L241.589 182.239C242.115 181.639 239.816 180.161 239.165 180.909C237.365 182.959 235.56 185.005 233.749 187.046L231.049 190.121C230.426 190.827 228.971 193.127 228.043 193.321C228.543 193.487 229.054 193.654 229.553 193.806C229.913 194.097 229.253 192.019 229.234 191.963C228.985 190.993 228.734 190.038 228.472 189.063C228.278 188.287 225.772 187.332 226.072 188.509L226.075 188.514Z" fill="#18CFA6"/>
<path d="M296.722 43.909V57.083H243.806V43.909C243.805 42.9103 244.002 41.9214 244.385 40.9989C244.767 40.0765 245.329 39.2388 246.036 38.534C246.206 38.3618 246.387 38.1998 246.576 38.049C247.938 36.9168 249.654 36.2991 251.425 36.304C252.772 36.303 254.102 35.9999 255.317 35.417C255.832 35.1667 256.324 34.8698 256.785 34.53C258.332 33.3848 259.468 31.7718 260.026 29.93C260.587 28.0862 261.725 26.4714 263.274 25.3241C264.822 24.1768 266.699 23.5576 268.626 23.558H271.926C273.853 23.5576 275.73 24.1768 277.278 25.3241C278.827 26.4714 279.965 28.0862 280.526 29.93C281.082 31.773 282.219 33.3866 283.768 34.53C284.229 34.8708 284.72 35.1678 285.236 35.417C286.451 36 287.781 36.3031 289.129 36.304C290.127 36.3029 291.115 36.4989 292.037 36.8806C292.959 37.2622 293.797 37.8221 294.502 38.5282C295.207 39.2342 295.766 40.0725 296.147 40.995C296.528 41.9175 296.722 42.9061 296.72 43.904L296.722 43.909Z" fill="#273E47"/>
<path d="M301.012 50.614V60.408H239.512V50.614H243.806V57.083H296.722V50.614H301.012Z" fill="#E4E4E4"/>
<path d="M270.264 35.915C272.858 35.915 274.96 33.9182 274.96 31.455C274.96 28.9918 272.858 26.995 270.264 26.995C267.671 26.995 265.568 28.9918 265.568 31.455C265.568 33.9182 267.671 35.915 270.264 35.915Z" fill="white"/>
<path d="M134.504 210.01L150.058 264.363L161.404 304.424H169.681L157.624 210.01H134.504Z" fill="#3B3B3B"/>
<path d="M130.346 210.01C129.986 238.024 128.759 253.304 128.382 255.849C128.005 258.394 122.291 274.586 111.246 304.424H119.82C133.881 275.799 141.731 259.608 143.368 255.849C145.006 252.09 150.059 236.81 157.67 210.01H130.346Z" fill="#444444"/>
<path d="M109.999 311.785L110.428 302.814H119.437C125.845 307.3 136.168 310.077 136.168 310.077V311.785H119.866L114.289 310.931V311.785H109.999Z" fill="#1D1D1D"/>
<path d="M159.999 311.785L160.428 302.814H169.437C175.845 307.3 186.168 310.077 186.168 310.077V311.785H169.866L164.289 310.931V311.785H159.999Z" fill="#1D1D1D"/>
<path d="M135.999 167L139.933 148.009C137.591 145.373 136.36 141.933 136.499 138.41C137.217 127.856 151.399 130.178 154.162 135.5C156.925 140.822 156.594 154.338 153.028 155.29C151.606 155.67 148.576 154.74 145.492 152.815L147.428 167H135.999Z" fill="#B28B67"/>
<path d="M148.841 126.078C145.936 126.639 143.268 128.065 141.188 130.169C139.331 130.361 136.832 131.324 134.255 135.343C131.055 140.276 133.429 145.763 137.14 148.434C140.851 151.105 140.799 154.21 140.799 154.21L141.393 152.598C141.842 151.392 142 150.098 141.857 148.82C141.793 148.037 141.592 147.271 141.263 146.558C140.363 144.758 143.171 143.574 143.969 142.082C144.589 140.927 144.614 138.304 145.569 136.403L146.703 134.959C146.703 134.959 149.332 133.034 151.909 133.587C154.435 134.14 154.073 125.067 148.841 126.078Z" fill="#184655"/>
<path d="M182.67 205.672L167.613 199.253L170.974 190.712L186.174 202.191C189.802 203.127 193.282 204.564 196.513 206.46C197.166 207.072 197.957 208.312 195.246 208.098C192.535 207.884 189.675 207.784 189.301 208.734C188.927 209.684 190.567 210.821 189.811 212.104C189.779 212.162 189.731 212.211 189.672 212.243C189.614 212.275 189.548 212.291 189.481 212.287C188.592 212.287 186.321 210.082 182.67 205.672ZM172.571 157.96L190.639 152.384C193.53 149.981 196.74 147.99 200.177 146.467C201.046 146.299 202.485 146.396 200.687 148.493C198.889 150.59 197.087 152.878 197.603 153.757C198.119 154.636 199.987 153.974 200.528 155.366C200.889 156.295 197.789 156.96 191.228 157.361L177.18 165.861L172.571 157.96Z" fill="#B28B67"/>
<path d="M147.357 159.798C155.637 175.674 167.609 187.846 184.971 200.499L178.394 208.118C159.011 200.71 148.781 196.244 143.76 181.24C142.5 177.475 141.62 165.474 140.865 159.161L147.357 159.798Z" fill="#4DCC86"/>
<path d="M124.209 212.681H160.909C160.909 212.681 148.442 173.577 148.172 159.004C148.163 158.504 147.272 157.636 146.879 157.75C142.561 159.004 137.638 156.813 137.638 156.813C128.936 171.201 125.927 188.913 124.209 212.681Z" fill="#F2F2F2"/>
<path d="M120.086 224.741C116.977 203.264 125.147 173.488 132.72 158.469C132.905 157.991 133.227 157.579 133.646 157.284C134.066 156.99 134.563 156.826 135.075 156.814H140.762L140.769 156.837C142.685 156.853 144.818 156.932 147.144 157.01C157.593 157.364 171.944 157.717 188.044 152.403L189.988 162.387C175.108 172.225 160.046 179.847 146.844 178.764C152.576 204.044 152.312 224.74 139.656 224.74L120.086 224.741Z" fill="#4DCC86"/>
</svg>
