<svg xmlns="http://www.w3.org/2000/svg" xmlns:xlink="http://www.w3.org/1999/xlink" width="356.664" height="339.99" viewBox="0 0 356.664 339.99">
  <defs>
    <clipPath id="clip-path">
      <path id="path34" d="M336.648-275.593H252.141c-10.934,0-19.8-9.84-19.8-21.976v-195.9c0-12.138,8.864-21.977,19.8-21.977h84.507c10.934,0,19.8,9.839,19.8,21.977v195.9C356.444-285.433,347.581-275.593,336.648-275.593Z" transform="translate(-232.343 515.449)" fill="#e7e8e5"/>
    </clipPath>
    <clipPath id="clip-path-2">
      <path id="path90" d="M342.744-478.476H318.549a2.665,2.665,0,0,1-2.665-2.665h0a2.665,2.665,0,0,1,2.665-2.665h24.195a2.665,2.665,0,0,1,2.665,2.665h0A2.665,2.665,0,0,1,342.744-478.476Z" transform="translate(-315.883 483.807)" fill="#fff"/>
    </clipPath>
    <clipPath id="clip-path-3">
      <path id="path604" d="M121.283-234.969c-.1-.088-.2-.179-.306-.274q.155.142.308.274h0" transform="translate(-120.977 235.243)"/>
    </clipPath>
  </defs>
  <g id="walkthrough1" transform="translate(-9.168 -138.385)">
    <g id="Group_10632" data-name="Group 10632" transform="translate(-43.563 34.532)">
      <g id="Group_10631" data-name="Group 10631" transform="translate(202.369 103.853)">
        <g id="Group_10624" data-name="Group 10624" transform="translate(0 0)">
          <g id="g30" transform="translate(0 0)">
            <g id="g32" transform="translate(0 0)" clip-path="url(#clip-path)">
              <path id="path46" d="M336.648-275.593H252.141c-10.934,0-19.8-9.84-19.8-21.976v-195.9c0-12.138,8.864-21.977,19.8-21.977h84.507c10.934,0,19.8,9.839,19.8,21.977v195.9c0,12.137-8.863,21.976-19.8,21.976" transform="translate(-232.343 515.449)" fill="#e7e8e5"/>
            </g>
          </g>
          <path id="path66" d="M350.988-278.412H246.118a2.18,2.18,0,0,1-1.96-2.348V-454.879a2.179,2.179,0,0,1,1.96-2.347h104.87a2.18,2.18,0,0,1,1.961,2.347V-280.76a2.181,2.181,0,0,1-1.961,2.348" transform="translate(-236.502 494.908)" fill="#fbfdfe"/>
          <g id="g86" transform="translate(47.288 20.504)">
            <g id="g88" transform="translate(0 0)" clip-path="url(#clip-path-2)">
              <path id="path102" d="M342.744-478.476H318.549a2.665,2.665,0,0,1-2.665-2.665h0a2.665,2.665,0,0,1,2.665-2.665h24.195a2.665,2.665,0,0,1,2.665,2.665h0a2.665,2.665,0,0,1-2.665,2.665" transform="translate(-315.883 483.807)" fill="#fff"/>
            </g>
          </g>
          <path id="path124" d="M324-393.636a10.377,10.377,0,0,1,10.377-10.377,10.377,10.377,0,0,1,10.376,10.377s-4.759,4.048-10.516,4.146S324-393.636,324-393.636" transform="translate(-271.554 476.208)" fill="#fff"/>
          <g id="g128" transform="translate(15.904 52.588)">
            <text id="text132" transform="translate(0 8)" fill="#585f61" font-size="12" font-family="SegoeUI, Segoe UI"><tspan x="0" y="0">Enter the code</tspan></text>
          </g>
        </g>
        <g id="Group_10629" data-name="Group 10629" transform="translate(15.253 69.028)">
          <g id="Group_10625" data-name="Group 10625">
            <path id="path126" d="M288.074-345.982H268.306c-.284,0-.514-1.4-.514-3.128v-11.437c0-1.726.23-3.127.514-3.127h19.768c.284,0,.514,1.4.514,3.127v11.437c0,1.728-.23,3.128-.514,3.128" transform="translate(-267.791 363.674)" fill="#d5e5f6"/>
            <text id="_5" data-name="5" transform="translate(6.809 12.963)" fill="#585f61" font-size="12" font-family="SegoeUI, Segoe UI"><tspan x="0" y="0">5</tspan></text>
          </g>
          <g id="Group_10626" data-name="Group 10626" transform="translate(23.838)">
            <path id="path126-2" data-name="path126" d="M288.074-345.982H268.306c-.284,0-.514-1.4-.514-3.128v-11.437c0-1.726.23-3.127.514-3.127h19.768c.284,0,.514,1.4.514,3.127v11.437c0,1.728-.23,3.128-.514,3.128" transform="translate(-267.791 363.674)" fill="#d5e5f6"/>
            <text id="_4" data-name="4" transform="translate(6.971 12.963)" fill="#585f61" font-size="12" font-family="SegoeUI, Segoe UI"><tspan x="0" y="0">4</tspan></text>
          </g>
          <g id="Group_10627" data-name="Group 10627" transform="translate(47.677)">
            <path id="path126-3" data-name="path126" d="M288.074-345.982H268.306c-.284,0-.514-1.4-.514-3.128v-11.437c0-1.726.23-3.127.514-3.127h19.768c.284,0,.514,1.4.514,3.127v11.437c0,1.728-.23,3.128-.514,3.128" transform="translate(-267.791 363.674)" fill="#d5e5f6"/>
            <text id="_7" data-name="7" transform="translate(7.133 12.963)" fill="#585f61" font-size="12" font-family="SegoeUI, Segoe UI"><tspan x="0" y="0">7</tspan></text>
          </g>
          <g id="Group_10628" data-name="Group 10628" transform="translate(71.515)">
            <path id="path126-4" data-name="path126" d="M288.074-345.982H268.306c-.284,0-.514-1.4-.514-3.128v-11.437c0-1.726.23-3.127.514-3.127h19.768c.284,0,.514,1.4.514,3.127v11.437c0,1.728-.23,3.128-.514,3.128" transform="translate(-267.791 363.674)" fill="#d5e5f6"/>
            <text id="_5-2" data-name="5" transform="translate(7.294 12.963)" fill="#585f61" font-size="12" font-family="SegoeUI, Segoe UI"><tspan x="0" y="0">5</tspan></text>
          </g>
        </g>
      </g>
    </g>
    <path id="path32" d="M43.959-194.934l-.128-5.085c-.04-1.674-.1-3.331-.118-4.978l.245.246c-3.969.045-7.937.142-11.906.147l-11.906.057L20.6-205l-.048,10.063-.4-.4c1.962.016,3.919.007,5.887.05l5.916.1Zm0,0-11.8.25-5.99.1c-2,.042-4.013.033-6.02.049l-.4,0,0-.4L19.7-205l0-.451.451,0,11.906.057c3.969,0,7.937.1,11.906.147l.248,0,0,.242c-.017,1.709-.077,3.405-.118,5.085l-.128,4.978" transform="translate(79.403 545.262)" fill="#e7e8e5"/>
    <path id="path34-2" data-name="path34" d="M24.264-176.121l-.128-5.083c-.04-1.676-.1-3.332-.118-4.978l.245.245c-3.969.047-7.937.143-11.906.147l-11.906.057.449-.449L.852-176.121l-.4-.4c1.962.015,3.919.007,5.886.049l5.916.1Zm0,0-11.8.251-5.989.1c-2,.042-4.014.034-6.02.049l-.4,0,0-.4L0-186.183l0-.451.451,0,11.906.057c3.969,0,7.937.1,11.906.147l.248,0,0,.243c-.017,1.707-.077,3.4-.118,5.083l-.128,4.978" transform="translate(85.815 539.137)" fill="#e7e8e5"/>
    <path id="path122" d="M371.125-36.089c0,10.141-79.842,18.362-178.332,18.362S14.461-25.948,14.461-36.089,94.3-54.45,192.794-54.45s178.331,8.222,178.331,18.361" transform="translate(-5.293 496.102)" fill="#e7e8e5"/>
    <path id="path498" d="M138.026-159.621l2.134,12.8,14.456,78.07h2.331l-10.512-78.07-1.554-12.8h-6.855" transform="translate(40.878 530.342)" fill="#d4d6d3"/>
    <path id="path500" d="M144.881-159.621h-6.855l2.134,12.8h6.275l-1.554-12.8" transform="translate(40.878 530.342)" fill="#999b9b"/>
    <path id="path502" d="M70.713-68.753h2.33L87.5-146.823l2.134-12.8H82.779l-1.553,12.8L70.713-68.753" transform="translate(62.793 530.342)" fill="#d4d6d3"/>
    <path id="path504" d="M87.854-159.621l-1.553,12.8h6.274l2.134-12.8H87.854" transform="translate(57.718 530.342)" fill="#999b9b"/>
    <path id="path506" d="M6.419-68.753H8.75l14.456-78.07,2.134-12.8H18.485l-1.553,12.8L6.419-68.753" transform="translate(83.725 530.342)" fill="#d4d6d3"/>
    <path id="path508" d="M22.007-146.823h6.274l2.134-12.8H23.56l-1.553,12.8" transform="translate(78.651 530.342)" fill="#999b9b"/>
    <path id="path510" d="M11.9-184.154H117.832v-11.162H78.175L64.848-253.449H15.938L11.9-184.154" transform="translate(81.942 560.89)" fill="#d4d6d3"/>
    <path id="path512" d="M11.9-184.154h5.775l3.763-69.294h-5.5L11.9-184.154" transform="translate(81.942 560.89)" fill="#999b9b"/>
    <path id="path514" d="M224.714-78.341c-1.854,1.084-58.912,13.01-61.376,12.09-.936-.344-3.157-8.553-5.561-18.548-.519-2.158-1.042-4.39-1.56-6.66-3.383-14.731-6.628-30.441-6.628-30.441l38.146-8.09,5.578,30.664,1.229,6.73s23.889,5.2,26.483,6.5,5.543,6.667,3.69,7.751" transform="translate(37.114 520.695)" fill="#f68c95"/>
    <path id="path516" d="M227.736-63.888c-1.853,1.088-58.909,13.012-61.373,12.095-.935-.341-3.156-8.551-5.557-18.551-.522-2.158-1.043-4.388-1.565-6.654-.127-.531-.243-1.061-.36-1.592l37.318-7,.135.719,1.232,6.726s23.893,5.207,26.482,6.5,5.549,6.672,3.688,7.751" transform="translate(34.089 506.239)" fill="#e7e8e5"/>
    <path id="path518" d="M228.748-60.668c-1.874,1.1-59.586,13.077-62.071,12.138-.951-.341-3.184-8.636-5.594-18.738l-.073-.317,37.147-8.145.117.634s24.138,5.281,26.763,6.6c2.605,1.317,5.589,6.737,3.711,7.826" transform="translate(33.395 503.03)" fill="#9bc9bf"/>
    <path id="path520" d="M231.514-56.514c-9.777,1.782-49.048,9.887-58.578,12.389l.013.061c9.731-1.554,48.933-9.977,58.6-12.291.2-.049.174-.2-.033-.159" transform="translate(29.513 496.776)" fill="#17282f"/>
    <path id="path522" d="M216.994-76.848c-3.976.082-8.536,1.641-10.9,4.972-.092.129.094.256.209.192a54.966,54.966,0,0,1,10.773-4.678.25.25,0,0,0-.085-.486" transform="translate(18.724 503.394)" fill="#17282f"/>
    <path id="path524" d="M221.6-75.232c-3.976.081-8.536,1.64-10.9,4.971-.092.129.093.257.209.193a55,55,0,0,1,10.772-4.678.249.249,0,0,0-.085-.486" transform="translate(17.223 502.868)" fill="#17282f"/>
    <path id="path526" d="M226.213-73.617c-3.976.082-8.536,1.641-10.9,4.972-.091.129.094.256.21.191A55.048,55.048,0,0,1,226.3-73.131a.25.25,0,0,0-.084-.486" transform="translate(15.723 502.342)" fill="#17282f"/>
    <path id="path528" d="M217.02-82.911c-1.414.933-2.864,1.79-4.244,2.774a62.4,62.4,0,0,1,2.511-5.775,22.286,22.286,0,0,1,1.575-2.611c.924-1.272,4.976-4.41,5.172-.076C222.141-86.209,218.705-84.022,217.02-82.911Zm5.263-8.21c-1.934-1.757-4.542-.245-5.862,1.428a20.841,20.841,0,0,0-4.078,9.981.1.1,0,0,0,.119.119.486.486,0,0,0,.7.353c2.919-1.826,6.265-3.415,8.536-6.08,1.326-1.557,2.415-4.14.586-5.8" transform="translate(16.683 508.296)" fill="#17282f"/>
    <path id="path530" d="M193.337-78c-2.53-3.526,2.6-3.567,4.109-3.139a22.245,22.245,0,0,1,2.853,1.076,62.455,62.455,0,0,1,5.549,2.984c-1.692.08-3.363.3-5.051.447-2.012.169-6.064.577-7.46-1.367Zm2.295,2.368c3.433.687,7.046-.134,10.47-.505a.485.485,0,0,0,.33-.711l.02-.166a20.845,20.845,0,0,0-9.384-5.316c-2.072-.5-5.057-.072-5.488,2.5-.407,2.437,2.048,3.792,4.053,4.194" transform="translate(23.458 505.238)" fill="#17282f"/>
    <path id="path532" d="M154.97-42.087c-2.069.575-60.283-2.431-62.431-3.949-.469-.327.068-8.152.726-15.191.49-5.237,13.209-41.548,13.209-41.548l38.947,1.9L129.426-63.559S151.2-52.438,153.376-50.52s3.662,7.858,1.593,8.434" transform="translate(55.745 511.835)" fill="#f68c95"/>
    <path id="path534" d="M154.967-28.24c-2.068.576-60.276-2.437-62.425-3.948-.468-.333.063-8.156.729-15.2.162-1.726,1.646-6.816,3.561-12.868l35.763,3.165-3.165,7.374S151.2-38.59,153.375-36.675s3.66,7.859,1.592,8.435" transform="translate(55.745 497.991)" fill="#e7e8e5"/>
    <path id="path536" d="M155.646-24.1c-2.1.571-60.936-2.89-63.091-4.444-.742-.515-.249-6.315.491-15.659.083-1.042,1.118-4.85,1.122-4.959l35.863,2.556-.052.642S151.91-34.582,154.1-32.623c2.173,1.95,3.642,7.96,1.546,8.522" transform="translate(55.802 494.381)" fill="#9bc9bf"/>
    <path id="path538" d="M156.63-17.028c-9.9-.828-49.93-3.227-59.784-3.293l0,.062c9.8,1.034,49.843,3.109,59.777,3.394.21.005.219-.145.01-.163" transform="translate(54.286 484.991)" fill="#17282f"/>
    <path id="path540" d="M148.831-45.086c-3.86-.956-8.67-.639-11.816,1.962-.121.1.023.273.153.241a54.965,54.965,0,0,1,11.618-1.711.25.25,0,0,0,.045-.492" transform="translate(41.222 493.214)" fill="#17282f"/>
    <path id="path542" d="M152.86-42.325c-3.86-.958-8.67-.64-11.816,1.962-.121.1.024.273.153.24a54.958,54.958,0,0,1,11.618-1.71.25.25,0,0,0,.045-.492" transform="translate(39.911 492.316)" fill="#17282f"/>
    <path id="path544" d="M156.889-39.565c-3.86-.957-8.669-.639-11.815,1.962-.121.1.023.272.153.239a55.123,55.123,0,0,1,11.618-1.71.249.249,0,0,0,.044-.491" transform="translate(38.599 491.417)" fill="#17282f"/>
    <path id="path546" d="M149.537-51.121c-1.607.533-3.231.982-4.818,1.574a62.3,62.3,0,0,1,3.927-4.923,22.333,22.333,0,0,1,2.2-2.111c1.223-.987,5.953-2.962,5.013,1.273C155.341-52.972,151.453-51.756,149.537-51.121Zm7.22-6.557c-1.41-2.2-4.322-1.419-6.031-.148a20.846,20.846,0,0,0-6.537,8.575l.084.147c-.006.3.242.626.584.522,3.293-1,6.938-1.666,9.825-3.648,1.685-1.156,3.409-3.368,2.075-5.448" transform="translate(38.872 497.604)" fill="#17282f"/>
    <path id="path548" d="M126.474-53.092c-1.525-4.063,3.435-2.769,4.785-1.963a22.677,22.677,0,0,1,2.474,1.782,62.638,62.638,0,0,1,4.581,4.326c-1.655-.363-3.326-.582-4.993-.884C131.334-50.191,127.315-50.853,126.474-53.092Zm1.6,2.882c3.137,1.559,6.839,1.707,10.24,2.239.353.056.552-.306.5-.6l.062-.154A20.845,20.845,0,0,0,131.2-56.3c-1.872-1.021-4.865-1.387-5.951.988-1.028,2.246.989,4.194,2.82,5.1" transform="translate(45.128 496.962)" fill="#17282f"/>
    <path id="path550" d="M47.125-198.3c11.6,12.925,50.586,2.716,52.917,7.859,2.053,4.536-24.55,77.385-24.55,77.385l42.571,4.59s36.748-80.455,23.612-103.7c-7.095-12.555-38.361-7.549-57.228-9.848-5.691-.692-8.364-12.429-8.364-12.429H42.369s-8.506,21.369,4.755,36.142" transform="translate(77.72 548.576)" fill="#273e47"/>
    <path id="path552" d="M129.841-219.368,94.094-192.012c-11.873-.252-37.858,3.861-46.966-6.29-13.266-14.775-4.76-36.137-4.76-36.137H76.082s2.673,11.736,8.362,12.428c13.244,1.608,32.58-.373,45.4,2.643" transform="translate(72.896 554.701)" fill="#17282f"/>
    <path id="path554" d="M140.133-63.579c-1.175-.368-12.213-1.6-14.648-1.862-4.873-.527-20.215-1.96-22.995-1.952l-.013.129c2.415.507,12.205,1.649,14.639,1.9,4.881.5,21.642,2.128,23,1.993a.106.106,0,0,0,.021-.208" transform="translate(52.452 500.316)" fill="#17282f"/>
    <path id="path556" d="M107.787-193.448c-2.738-1.362-23.486-.689-38.374-2.083-4.852-.455-9.717-1.489-13.42-4.668a22.191,22.191,0,0,1-6.627-10.914c-1.431-5.086-1.282-10.392-1.038-15.6.06-1.282.148-2.564.23-3.845l-.137-.014c-1.132,9.332-2,19.759,4.071,27.848a19.5,19.5,0,0,0,10.853,7.119c8.98,2.362,42.739,1.778,43.93,2.689,1.418,1.084-20.407,67.531-20.839,68.8-.082.239.335.4.435.163,2.153-5.1,23.3-68.3,20.916-69.488" transform="translate(70.314 553.443)" fill="#17282f"/>
    <path id="path558" d="M184.976-202.657c-2.008-5.094-6.585-8.268-13.321-9.481-.112-.021-.105.145,0,.177,5.877,1.718,10.079,4.082,12.39,9.043,1.078,2.315,1.638,5.569,1.918,9.932,1.395,21.754-17.588,71.14-17.974,72l.115.063c2.675-4.5,25.155-60.7,16.868-81.734" transform="translate(31.122 547.441)" fill="#17282f"/>
    <path id="path560" d="M158.419-136.127l-32.235,6.855s25.432-75.9,13.488-85.693c-3.311-2.714-10.529-3.662-19.108.042-12.807,5.53-27.632,16.811-41.608,20.935-13.089,3.863-28.626.311-33.974-5.575C33.748-211.927,42.2-235.3,42.2-235.3l44.2-1.739s.2.562,2.409,2.524c0,0,28.512-6.178,40.35,1.055,21.356,13.048,29.257,97.331,29.257,97.331" transform="translate(73.07 555.547)" fill="#273e47"/>
    <path id="path562" d="M67.315-230.466a.083.083,0,0,0-.161.025,26.164,26.164,0,0,1-.4,5.2,8.985,8.985,0,0,1-2.332,4.318c-2.541,2.571-6.187,3.445-9.519,4.5-.176.056-.143.366.054.335,3.7-.567,7.585-1.5,10.286-4.278a8.985,8.985,0,0,0,2.391-4.652,11.1,11.1,0,0,0-.316-5.444" transform="translate(67.979 553.426)" fill="#17282f"/>
    <path id="path564" d="M179.088-207.2c-4.957-3.11-12.7-.747-16.412.674l.038.126c3.412-1.227,11.9-3.085,16.441.131,10.49,7.43-3.548,58.244-12.754,86.212-.143.436.2.32.4-.1,1.518-3.314,13.382-38.655,16.479-62.033.476-3.6,2.958-20.524-4.188-25.009" transform="translate(32.853 546.33)" fill="#17282f"/>
    <path id="path566" d="M198.3-100.125c-.974-.024-9.329,1.817-11.168,2.232-3.682.829-12.213,3.038-14.2,3.8l.037.124c1.913-.182,6.36-1.157,8.195-1.583,3.678-.854,16.277-3.878,17.2-4.371.081-.043.036-.2-.059-.2" transform="translate(29.516 510.972)" fill="#17282f"/>
    <path id="path568" d="M139.372-216.123a18.324,18.324,0,0,0-11.007-1.666,38.655,38.655,0,0,0-11.246,3.519c-7.541,3.449-14.723,7.662-22.274,11.09-7.507,3.41-15.521,6.079-23.794,6.332-7.071.218-16.022-1.027-20.569-7.39-7.006-9.8-2.925-26.7-2.843-27.793.006-.085-.108-.08-.129,0-5.434,20.774,1.558,28.839,6.277,32.231,3.748,2.694,9.134,3.373,12.69,3.673,8.231.7,16.48-1.32,24.108-4.358,7.819-3.115,15.15-7.306,22.64-11.138,7.182-3.673,15.186-7.462,23.389-5.359a20.042,20.042,0,0,1,2.727.934l.031-.079" transform="translate(70.992 553.937)" fill="#17282f"/>
    <path id="path570" d="M102.987-325.345a.4.4,0,0,1-.32.418c-.458.034-1.009.067-1.627.107-1.459-3.795-3.031-6.81-2.619-5.633a19.517,19.517,0,0,1,1.02,5.731c-.718.04-2.381.12-3.213.16-1.267-6.682-2.891-11.638-2.79-10.108.41,6.168.045,8.152-.383,10.27-7.754.364-17.924.731-25.282.839-.851-3.694-1.6-7.693-1.724-7.413a19.1,19.1,0,0,0-1.3,7.45c-2.343.018-4.215-.012-5.356-.086,0,0-.548-3.106-.627-4.128a21.344,21.344,0,0,1,.818-7.784,38.39,38.39,0,0,1,3.4-7.224l.032-.051.01-.02a21.994,21.994,0,0,0,1.956-4.821l.013-.037a21.222,21.222,0,0,0,.6-3.7c.34-4.564,2.908-8.512,7.2-9.721,8.1-7.634,16.211-4.433,18.663,1.414.236.57.465,1.224.688,1.937l.006.022c.831,2.637,1.574,6.058,2.262,8.7l0,.014.008.03,0,.007a24.914,24.914,0,0,0,.964,3.055c2.047,4.758,6.724,7.458,7.59,20.57" transform="translate(66.704 597.399)" fill="#17282f"/>
    <path id="path572" d="M70.481-357.073a8.624,8.624,0,0,0-4.973,6.946,22.251,22.251,0,0,1-1.126,5.669,20.075,20.075,0,0,1-3.237,4.994,14.766,14.766,0,0,0-3.682,8.185,25.061,25.061,0,0,0,.969,10.333l.027-.01a26.616,26.616,0,0,1-.376-10.776c.613-3.614,2.658-5.889,4.749-8.638a15.08,15.08,0,0,0,3.074-7.378,17.986,17.986,0,0,1,.846-4.91,9.786,9.786,0,0,1,3.929-4.078.2.2,0,0,0-.2-.336" transform="translate(67.153 594.635)" fill="#17282f"/>
    <path id="path574" d="M116.225-337.03c-1.986-2.584-4.055-4.787-5.219-8-1.061-2.923-1.668-6.013-2.748-8.933l-.071.022c1.664,5.185,1.988,10.42,5.34,14.777a33.7,33.7,0,0,1,4.843,7.4,25.331,25.331,0,0,1,1.889,9.379.08.08,0,1,0,.16,0,20.968,20.968,0,0,0-4.193-14.652" transform="translate(50.593 593.613)" fill="#17282f"/>
    <path id="path576" d="M155.554-340.6l-9.76,23.994a.9.9,0,0,0,.632,1.438l12.836,1.8a2.1,2.1,0,0,0,1.967-1.073l9.76-23.994a.9.9,0,0,0-.632-1.438l-12.835-1.8a2.1,2.1,0,0,0-1.968,1.073" transform="translate(38.402 589.617)" fill="#273e47"/>
    <path id="path578" d="M157.817-340.3l-9.76,23.994a.9.9,0,0,0,.632,1.438l12.836,1.8a2.1,2.1,0,0,0,1.966-1.073l9.76-23.994a.9.9,0,0,0-.631-1.438l-12.836-1.8a2.1,2.1,0,0,0-1.967,1.073" transform="translate(37.666 589.52)" fill="#33535f"/>
    <path id="path580" d="M166.53-337.976a1.1,1.1,0,0,1-1.263.91,1.1,1.1,0,0,1-.91-1.264,1.1,1.1,0,0,1,1.264-.91,1.1,1.1,0,0,1,.909,1.264" transform="translate(32.311 588.826)" fill="#17282f"/>
    <path id="path582" d="M90.6-298.77c4.946,16.533,18.236,39.031,24.961,40.125,3.2.521,8.811,2.143,13.569-.912,10.383-6.667,20.354-20.9,23.235-29.464,1.024-3.047-13.193-12.105-15.823-9.892-6.159,5.183-14.032,15.983-14.953,15.772-3.41-.777-15.219-14.024-23.451-23.34-9.994-11.31-9.508,1.123-7.537,7.712" transform="translate(56.69 579.644)" fill="#f68c95"/>
    <path id="path584" d="M182.58-311.427c-.663-6.6-1.845-8.189.553-14.053,1.574-3.848-.208-6.5-3.519-3.723-5.413,4.55-6.348,13.24-5.8,16.346l8.769,1.43" transform="translate(29.272 585.928)" fill="#f68c95"/>
    <path id="path586" d="M171.316-293.707s4.162-8.433,4.152-15.533c-.007-4.909-1.213-15.589-13.845-23.018-3-1.763-8.515-2.148-4.667,2.507,2.734,3.307,5.466,4.578,6.706,6.791,0,0-7.078.342-8.726,3.413a64.188,64.188,0,0,0-3.735,8.331,13.68,13.68,0,0,0,1.5.838s-1.453,2.923.174,7.621l18.445,9.051" transform="translate(36.589 586.945)" fill="#f68c95"/>
    <path id="path588" d="M172.08-310.447c-1.694-1.936-5.356-5.98-9.5-8.246-4.6-2.517-14.153-6.125-15.976-2.707-1.336,2.506,2.187,4.2,2.187,4.2s-4.26-.66-4.973,1.869c-.648,2.3,2.156,3.453,2.156,3.453s-2.654.045-2.851,2.385c-.237,2.814,5.362,2.259,7.584,5.317.5.687,21.373-6.276,21.373-6.276" transform="translate(39.221 583.468)" fill="#f68c95"/>
    <path id="path590" d="M163.459-310.71a20.9,20.9,0,0,0-11.847-3.87c-.108,0-.164.085-.065.1a51.453,51.453,0,0,1,11.889,3.809l.023-.043" transform="translate(36.493 580.794)" fill="#17282f"/>
    <path id="path592" d="M159.393-303.594a23.466,23.466,0,0,0-12.058-3.156c-.108.007-.157.094-.058.108a55.172,55.172,0,0,1,12.094,3.093l.022-.045" transform="translate(37.884 578.252)" fill="#17282f"/>
    <path id="path594" d="M151.076-282.562s-16.186,22.771-23.862,24.538-11.93.478-14.566-.334A7.37,7.37,0,0,1,110-260.162c-6.531-6.317-16.852-26.746-20.611-37.922-2.818-8.4-1.314-15.4,4.388-12.218a20.512,20.512,0,0,1,5.043,4.4c9.716,10.979,21.287,21.784,21.947,21.555s8.572-9.391,8.572-9.391l21.736,11.173" transform="translate(57.163 579.654)" fill="#6fe147"/>
    <path id="path596" d="M166.4-268.138c-.758-.584-8.126-4.8-9.747-5.685s-8.212-4.553-9.957-5.323l-.067.115c1.57,1.081,8.207,4.8,9.84,5.734s9.012,4.945,9.882,5.274l.049-.116" transform="translate(38.078 569.256)" fill="#17282f"/>
    <path id="path598" d="M118.533-280.9a116.983,116.983,0,0,1-17.419,10.413c-1.439-2.752-2.824-5.566-4.073-8.3a102.1,102.1,0,0,0,14.891-8.543c2.445,2.464,4.712,4.667,6.6,6.43" transform="translate(54.222 571.921)" fill="#e7e8e5"/>
    <path id="path610" d="M123.028-233.732a7.4,7.4,0,0,1-1.6-1.1h0a7.67,7.67,0,0,0,1.6,1.1" transform="translate(46.281 554.83)" fill="#21363e"/>
    <path id="path612" d="M101.434-269.86a161.366,161.366,0,0,1-12.047-25.811,23.508,23.508,0,0,1-1.373-7.993h0a23.493,23.493,0,0,0,1.373,8,131.529,131.529,0,0,0,5.745,13.779q.4.85.821,1.7c1.724,3.526,3.6,7.073,5.479,10.327" transform="translate(57.164 577.239)" fill="#e0e1de"/>
    <path id="path614" d="M88.018-305.8c.072-2.048.595-3.621,1.563-4.419-.967.8-1.49,2.373-1.562,4.419h0" transform="translate(57.16 579.372)" fill="#142228"/>
    <path id="path616" d="M120.064-257.137a23.306,23.306,0,0,1-7.413-1.219,3.538,3.538,0,0,1-.5-.2,7.665,7.665,0,0,1-1.6-1.1q-.152-.132-.308-.274c-.081-.075-.163-.152-.245-.231-2.494-2.411-5.54-6.882-8.564-12.11-1.882-3.253-3.754-6.8-5.479-10.327.716,1.463,1.46,2.931,2.218,4.38a108.658,108.658,0,0,0,14.129-8.141c7.432,9.143,14.944,18.4,20.366,25.082a14.721,14.721,0,0,1-5.458,3.255,31.686,31.686,0,0,1-7.146.887M95.135-284.3a131.523,131.523,0,0,1-5.745-13.779,23.494,23.494,0,0,1-1.373-8c.072-2.046.595-3.619,1.562-4.419a2.547,2.547,0,0,1,1.668-.581,3.889,3.889,0,0,1,1.038.152c3.789,4.627,8.849,10.833,14.269,17.495A101.292,101.292,0,0,1,94.1-286.521q.5,1.1,1.035,2.218" transform="translate(57.163 579.652)" fill="#5cd631"/>
    <path id="path618" d="M101.114-269.7c-.758-1.45-1.5-2.917-2.218-4.38q-.417-.852-.821-1.7-.53-1.114-1.035-2.217a101.3,101.3,0,0,0,12.453-6.911c1.886,2.317,3.815,4.69,5.75,7.07a108.674,108.674,0,0,1-14.129,8.141" transform="translate(54.222 571.134)" fill="#cccdcb"/>
    <path id="path620" d="M88.035-275.844l1.773,14.677-50.659,3.28s11.728-42.6,20.892-52.028c6.2-6.382,13.262-5.706,17.649-1.011,1.11,1.188,12.663,15.259,13.914,22.171,1.09,6.1-3.568,12.911-3.568,12.911" transform="translate(73.07 580.791)" fill="#6fe147"/>
    <path id="path622" d="M93.527-269.479c-9.622,1.367-29.513,3.453-44.233.126,1.367-3.984,2.868-8.111,4.433-12.032a138.773,138.773,0,0,0,39.764-.854,16.622,16.622,0,0,1,1.412,4.011,16.188,16.188,0,0,1-1.376,8.75" transform="translate(69.767 570.263)" fill="#e7e8e5"/>
    <path id="path624" d="M111.194-261.335c-.447-2.678-.842-5.364-1.214-8.051l-.012-.084.056-.086a24.259,24.259,0,0,0,2.908-6.2,16.477,16.477,0,0,0,.634-3.351,10.487,10.487,0,0,0-.181-3.372,17.5,17.5,0,0,0-1.036-3.263,33.9,33.9,0,0,0-1.451-3.137,60.589,60.589,0,0,0-3.612-5.942,41.657,41.657,0,0,1,3.993,5.732,23.127,23.127,0,0,1,2.712,6.482,13.44,13.44,0,0,1-.452,7.035,22.111,22.111,0,0,1-3.127,6.305l.045-.171c.277,2.7.534,5.4.737,8.108" transform="translate(50.886 574.361)" fill="#17282f"/>
    <path id="path626" d="M111.112-291.946a12.873,12.873,0,0,1,1.359,2.589,11.379,11.379,0,0,1,.457,1.393,5.538,5.538,0,0,1,.214,1.457c-.351-.914-.735-1.786-1.089-2.685a25.92,25.92,0,0,1-.941-2.754" transform="translate(49.641 573.423)" fill="#17282f"/>
    <path id="path628" d="M54.38-311.716c-17.839,9.056-38.32,29.5-37.119,36.309,1.337,7.58,26.973-5.225,26.712-6.364-.221-.967,5.164-9.107,12.864-20.77,7.832-11.863,1.955-11.415-2.457-9.176" transform="translate(80.212 580.268)" fill="#6fe147"/>
    <path id="path630" d="M53.828-283.542c-2.365,3.66-4.082,6.421-4.874,7.985a129.4,129.4,0,0,1-17.967-7.356c2.114-2.221,4.505-4.505,7.068-6.753a104.436,104.436,0,0,0,15.772,6.124" transform="translate(75.727 572.681)" fill="#e7e8e5"/>
    <path id="path632" d="M17.263-261.048c1.566,5.293,9.458,8.839,28.491,19.632,2.633,1.494,18.175-14.256,15.444-16C57.759-259.6,43.937-267.36,42.855-267.8c-9.129-3.708-26.654,3.163-25.592,6.753" transform="translate(80.21 565.91)" fill="#f68c95"/>
    <path id="path634" d="M67.54-255.278s8.193,4.187,11.816,7.719a32.522,32.522,0,0,1,7.879,13.415c1.64,5.438,1.846,19.718-2.258,20.5-3.714.7-3.186-13.906-3.186-13.906s1.92,14.983-2.707,15.008-3.05-16.9-3.05-16.9,1.627,15.439-3.149,14.709c-3.609-.551-3.044-15.96-3.044-15.96s1.307,13.28-2.43,12.873c-4.128-.45-4.5-14.705-4.5-14.705-9.323-2.634-12.685-7.7-14.647-11.591-.475-.941,19.276-11.159,19.276-11.159" transform="translate(70.105 561.485)" fill="#f68c95"/>
    <path id="path636" d="M97.454-221.917c.289,1.752.594,3.523.727,5.294s.2,3.55.17,5.325a30.288,30.288,0,0,1-.786,6.9,65.389,65.389,0,0,0,.129-12.2c-.132-1.768-.176-3.543-.307-5.311l.067,0" transform="translate(54.109 550.624)" fill="#17282f"/>
    <path id="path638" d="M87.963-221.381c.273,2.254.626,4.48.8,6.745s.138,4.409.154,6.67c0,.174-.093.118-.1-.057-.106-2.258-.38-4.338-.513-6.593s-.179-4.521-.393-6.761l.054,0" transform="translate(57.195 550.449)" fill="#17282f"/>
    <path id="path640" d="M79.7-222.385a50.712,50.712,0,0,1,.432,10.407c-.006.173-.119.086-.123-.09-.079-3.463-.116-6.18-.428-10.3l.119-.021" transform="translate(59.907 550.776)" fill="#17282f"/>
    <path id="path642" d="M61.539-259.269s-21.918,16.693-22.151,16.608-21.759-12.727-22.1-18.406S34.764-271,42.859-267.861s18.68,8.592,18.68,8.592" transform="translate(80.19 565.928)" fill="#6fe147"/>
    <path id="path644" d="M63.093-258.191c-.857.516-7.776,6.09-9.253,7.333s-7.566,6.27-8.982,7.677l.087.11c1.652-1.119,7.808-6.17,9.339-7.406s8.253-6.9,8.9-7.622l-.094-.092" transform="translate(71.211 562.434)" fill="#17282f"/>
    <path id="path646" d="M40.755-268.721c1.881-.3,7.057-.73,11.256,1.377l-.025.066a34.493,34.493,0,0,0-11.214-1.375l-.016-.067" transform="translate(72.547 565.944)" fill="#17282f"/>
    <path id="path648" d="M72.881-266.155l1.314-1.08.008.106-4.347-2.156q-2.176-1.071-4.374-2.092c-2.917-1.389-5.865-2.711-8.859-3.909l-.351-.139.179-.326c1.669-3.044,3.393-6.047,5.251-8.974a99.983,99.983,0,0,1,5.951-8.513q-2.89,4.315-5.517,8.779c-1.749,2.978-3.487,5.969-5.094,9.019l-.171-.467c3.008,1.224,5.95,2.592,8.854,4.029q2.167,1.1,4.306,2.252c1.431.76,2.833,1.572,4.233,2.387l.087.049-.08.057-1.391.978" transform="translate(67.495 573.844)" fill="#17282f"/>
    <path id="path650" d="M66.64-285.369c.263-.345.528-.684.81-1.007s.575-.635.874-.941a13.562,13.562,0,0,1,1.972-1.661A13,13,0,0,1,68.642-287c-.307.3-.615.6-.95.869a6.773,6.773,0,0,1-1.052.762" transform="translate(64.119 572.457)" fill="#17282f"/>
    <path id="path652" d="M40.657-235.8a17.97,17.97,0,0,1,2.642,1.394,17.748,17.748,0,0,1,2.406,1.776,17.777,17.777,0,0,1-2.642-1.394,17.989,17.989,0,0,1-2.406-1.776" transform="translate(72.579 555.145)" fill="#17282f"/>
    <path id="path654" d="M69.351-311.179s9.226,8.371,15.854,7.972,5.64-5.814,5.64-5.814-4.743-5.654-11.222-5.555a16.943,16.943,0,0,0-10.273,3.4" transform="translate(63.237 580.792)" fill="#f68c95"/>
    <path id="path656" d="M81.49-317.091c.239,1.331,3.39,7.371,7.449,7.235,2.087-.07,2.128-7.381,2.128-7.381l.1-.537,1.439-7.524-10.243-6.065s-.945,13.891-.876,14.272" transform="translate(59.286 586.256)" fill="#f68c95"/>
    <path id="path658" d="M82.278-326.18a15.392,15.392,0,0,0,9.153,8.405L92.87-325.3l-10.25-6.067s-.162,2.372-.343,5.186" transform="translate(59.028 586.257)" fill="#17282f"/>
    <path id="path660" d="M101.88-347.025c1.175,13.391-6.713,15.608-9.6,15.858-2.622.228-11.577.668-14.131-12.531s3.3-17.978,9.271-18.816,13.285,2.1,14.46,15.488" transform="translate(60.573 596.441)" fill="#f68c95"/>
    <path id="path662" d="M109.29-344.627a8.49,8.49,0,0,1-.914-.165,1.5,1.5,0,0,1-.9-.346.478.478,0,0,1-.016-.584,1.187,1.187,0,0,1,1.161-.31,1.743,1.743,0,0,1,1.111.584.51.51,0,0,1-.442.822" transform="translate(50.859 591.041)" fill="#17282f"/>
    <path id="path664" d="M97.184-344.233a8.846,8.846,0,0,0,.9-.218,1.5,1.5,0,0,0,.878-.4.479.479,0,0,0-.018-.584,1.187,1.187,0,0,0-1.176-.243,1.744,1.744,0,0,0-1.075.647.51.51,0,0,0,.489.795" transform="translate(54.367 590.932)" fill="#17282f"/>
    <path id="path666" d="M99.851-338.562l-.066.085c.077.912.011,1.97-.8,2.317l.01.05c1-.2,1.075-1.6.856-2.452" transform="translate(53.589 588.6)" fill="#17282f"/>
    <path id="path668" d="M98.453-339.914c-1.476-.035-1.437,2.92-.069,2.951,1.346.032,1.307-2.922.069-2.951" transform="translate(54.121 589.04)" fill="#17282f"/>
    <path id="path670" d="M97.287-339.7c-.256.17-.5.468-.815.5-.36.04-.636-.265-.875-.559l-.051.034c0,.566.225,1.145.833,1.221.555.069.946-.437,1.079-1.008.025-.106-.069-.261-.172-.192" transform="translate(54.708 588.988)" fill="#17282f"/>
    <path id="path672" d="M107.7-338.892l.071.081c-.024.915.1,1.968.933,2.267l-.007.051c-1.011-.137-1.166-1.536-1-2.4" transform="translate(50.769 588.708)" fill="#17282f"/>
    <path id="path674" d="M108.527-340.318c1.472-.12,1.6,2.832.24,2.943-1.342.109-1.474-2.842-.24-2.943" transform="translate(50.759 589.173)" fill="#17282f"/>
    <path id="path676" d="M109.793-340.172c.24.147.483.42.763.426.324.006.548-.323.741-.638l.047.03c.041.564-.12,1.16-.657,1.292-.49.121-.875-.347-1.034-.9-.03-.1.043-.265.14-.207" transform="translate(50.118 589.193)" fill="#17282f"/>
    <path id="path678" d="M99.831-327.869c.169.256.321.59.64.688a2.409,2.409,0,0,0,1.01-.018l.029.054a1.235,1.235,0,0,1-1.241.241.974.974,0,0,1-.533-.942l.095-.023" transform="translate(53.344 585.119)" fill="#17282f"/>
    <path id="path680" d="M104.409-337.107s.222,1.361.239,2.006a3.469,3.469,0,0,1-3.4-.958l.094-.092a4.619,4.619,0,0,0,2.818.732c.041-.18-.46-2.32-.358-2.33a5.634,5.634,0,0,1,1.472.295c-.383-2.851-1.219-5.617-1.557-8.46a.088.088,0,0,1,.167-.046,46.51,46.51,0,0,1,2.064,9.041c.063.365-1.277-.085-1.537-.189" transform="translate(52.853 591.025)" fill="#17282f"/>
    <path id="path682" d="M103.606-330.375a3.334,3.334,0,0,1-1.327,1.043,1.5,1.5,0,0,1-.91.062c-.659-.168-.68-.772-.563-1.29a3.6,3.6,0,0,1,.29-.793,4.318,4.318,0,0,0,2.51.978" transform="translate(53.014 586.253)" fill="#17282f"/>
    <path id="path684" d="M102.278-328.95a1.5,1.5,0,0,1-.91.062c-.659-.168-.68-.772-.563-1.29a1.548,1.548,0,0,1,1.473,1.228" transform="translate(53.014 585.87)" fill="#f578ba"/>
    <path id="path686" d="M76.693-365.5c1.186-.341,2.771-6.694-1.226-10.084-3.937-3.339-9.685-.3-7.815,5.146,1.182,3.443,6.533,5.661,9.041,4.938" transform="translate(63.909 601.106)" fill="#17282f"/>
    <path id="path688" d="M68.872-376.145a7.225,7.225,0,0,0-2.752,3.895A4.357,4.357,0,0,0,67.086-368a8.811,8.811,0,0,0,4.048,2.378,13.39,13.39,0,0,0,2.392.48,6.654,6.654,0,0,0,2.458-.082,5.865,5.865,0,0,1-2.475.533,10.912,10.912,0,0,1-2.553-.236,8.489,8.489,0,0,1-4.554-2.459,5.066,5.066,0,0,1-1.217-2.416,5.12,5.12,0,0,1,.253-2.661,6.374,6.374,0,0,1,3.434-3.678" transform="translate(64.617 600.836)" fill="#17282f"/>
    <path id="path690" d="M78.145-344.718c2.5.359,3.243-5.378,3.243-5.378s10.722-1.634,11.774-10.324a14.731,14.731,0,0,0,7.3,8.185s-.214-9.55-7.749-11.531c0,0-9.332-3.574-14.735,3.788s-1.51,15.019.17,15.26" transform="translate(61.329 597.089)" fill="#17282f"/>
    <path id="path692" d="M97.209-359.341a9.466,9.466,0,0,1-.543,3.966,9.857,9.857,0,0,1-2.077,3.482,8.5,8.5,0,0,1-.734.71l-.377.344c-.134.1-.274.2-.413.3-.281.191-.553.4-.84.575-.3.161-.6.316-.9.467-.152.075-.3.156-.453.224l-.475.174-.945.345c-.649.169-1.305.3-1.956.429.619-.258,1.251-.449,1.855-.709l.892-.415.445-.207c.143-.078.279-.169.419-.253.277-.173.555-.342.836-.5.267-.184.518-.39.777-.584l.387-.292.352-.332a8.145,8.145,0,0,0,.685-.682,11.31,11.31,0,0,0,2.091-3.242,11.766,11.766,0,0,0,.629-1.851,11.424,11.424,0,0,0,.346-1.947" transform="translate(57.33 595.365)" fill="#17282f"/>
    <path id="path694" d="M79.241-337.409S76.3-341.6,74.4-340.554s.31,7.128,2.546,7.958a2.273,2.273,0,0,0,3.045-1.225l-.75-3.589" transform="translate(61.828 589.303)" fill="#f68c95"/>
    <path id="path696" d="M75.747-337.912l-.011.06a5.745,5.745,0,0,1,2.974,3.592,1.256,1.256,0,0,0-1.879-.342l.043.084a1.4,1.4,0,0,1,1.539.486,6.772,6.772,0,0,1,.739,1.245c.073.14.326.065.273-.1l-.013-.036c.037-2-1.518-4.793-3.665-4.993" transform="translate(61.158 588.389)" fill="#17282f"/>
    <path id="path698" d="M78.89-329.764a.577.577,0,0,0,.708.406.577.577,0,0,0,.406-.709.577.577,0,0,0-.709-.406.577.577,0,0,0-.405.709" transform="translate(60.138 585.973)" fill="#33535f"/>
    <path id="path700" d="M79.33-329.7a.272.272,0,0,0,.335.192.274.274,0,0,0,.192-.335.273.273,0,0,0-.335-.192.273.273,0,0,0-.192.335" transform="translate(59.991 585.827)" fill="#17282f"/>
    <path id="path702" d="M77.394-330.7a.408.408,0,0,0,.5.287.409.409,0,0,0,.287-.5.408.408,0,0,0-.5-.287.409.409,0,0,0-.287.5" transform="translate(60.623 586.21)" fill="#33535f"/>
    <path id="path426" d="M264.747-115.816h.774a.651.651,0,0,0,.655-.642.654.654,0,0,0-.655-.655h-.774Zm.774.7h-.774v1.367a.351.351,0,0,1-.353.346.349.349,0,0,1-.346-.346v-3.715a.345.345,0,0,1,.346-.346h1.128a1.352,1.352,0,0,1,1.354,1.354,1.349,1.349,0,0,1-1.354,1.341" transform="translate(-0.151 516.73)" fill="#fff"/>
    <path id="path428" d="M270.7-115.133l-.51-1.353-.51,1.353Zm.258.693h-1.53l-.308.818a.353.353,0,0,1-.327.22l-.12-.018a.358.358,0,0,1-.208-.454l1.391-3.709a.352.352,0,0,1,.335-.22.345.345,0,0,1,.334.22l1.392,3.709a.358.358,0,0,1-.208.454l-.12.018a.339.339,0,0,1-.322-.22l-.308-.818" transform="translate(-1.581 516.728)" fill="#fff"/>
    <path id="path430" d="M277.1-117.2l-1.291,1.77v1.7a.341.341,0,0,1-.346.346.349.349,0,0,1-.346-.346v-1.7l-1.279-1.77a.331.331,0,0,1,.069-.478.336.336,0,0,1,.478.076l1.077,1.473,1.077-1.473a.345.345,0,0,1,.485-.076.348.348,0,0,1,.076.478" transform="translate(-3.315 516.708)" fill="#fff"/>
    <path id="path432" d="M283.3-113.729a.348.348,0,0,1-.34.346.345.345,0,0,1-.346-.346v-3.665a.338.338,0,0,1,.139-.289.347.347,0,0,1,.478.075l2.034,2.815v-2.6a.343.343,0,0,1,.34-.34.348.348,0,0,1,.346.34v3.659a.349.349,0,0,1-.346.346.341.341,0,0,1-.258-.125l-.031-.038-2.015-2.8v2.614" transform="translate(-6.194 516.709)" fill="#fff"/>
    <path id="path434" d="M292.63-115.732a1.63,1.63,0,0,0-.428-1.1,1.361,1.361,0,0,0-1-.447,1.374,1.374,0,0,0-1.02.447,1.6,1.6,0,0,0-.428,1.1,1.568,1.568,0,0,0,.428,1.1,1.374,1.374,0,0,0,1.02.454,1.362,1.362,0,0,0,1-.454A1.6,1.6,0,0,0,292.63-115.732Zm.083-1.593a2.317,2.317,0,0,1,.636,1.593,2.307,2.307,0,0,1-.636,1.594,2.066,2.066,0,0,1-1.506.673,2.129,2.129,0,0,1-1.543-.673,2.3,2.3,0,0,1-.623-1.594,2.306,2.306,0,0,1,.623-1.593,2.1,2.1,0,0,1,1.543-.674,2.043,2.043,0,0,1,1.506.674" transform="translate(-8.287 516.792)" fill="#fff"/>
    <path id="path436" d="M302.631-117.266l-1.543,3.672-.031.057-.006.006-.031.038-.006.02-.044.031h-.006l-.057.038H300.9l-.006.006-.051.012h-.012l-.064.006-.056-.006h-.02l-.043-.012-.013-.006-.057-.038h-.006l-.044-.031-.014-.02-.024-.038-.013-.006-.024-.057-.826-1.952-.825,1.952-.025.057-.006.006-.038.038-.006.02-.038.031h-.014l-.049.038h-.006l-.007.006-.05.012h-.018l-.057.006-.063-.006H298.4l-.043-.012-.014-.006-.056-.038h-.006l-.045-.031-.013-.02-.032-.038v-.006l-.032-.057-1.549-3.672a.34.34,0,0,1,.189-.447.337.337,0,0,1,.447.183l1.235,2.916.813-1.933a.347.347,0,0,1,.327-.215.359.359,0,0,1,.327.215l.812,1.933L302-117.531a.348.348,0,0,1,.459-.183.339.339,0,0,1,.177.447" transform="translate(-10.746 516.708)" fill="#fff"/>
    <path id="path438" d="M255.475-111.982H250.7v-3.5h4.774v3.5" transform="translate(4.195 515.973)" fill="#fff"/>
    <path id="path440" d="M255.175-116.571H254.5c0-1.675-.271-2.24-1.071-2.24-.906,0-1.2.544-1.2,2.24h-.674c0-1.019,0-2.915,1.871-2.915,1.745,0,1.745,1.9,1.745,2.915" transform="translate(3.916 517.275)" fill="#fff"/>
    <g id="Group_10547" data-name="Group 10547" transform="translate(250.183 300.805)">
      <circle id="Ellipse_47" data-name="Ellipse 47" cx="19.73" cy="19.73" r="19.73" transform="translate(0 27.902) rotate(-45)" fill="#6fe147"/>
      <path id="Path_1103" data-name="Path 1103" d="M35.4,85.134l7.385,5.4L51.571,79.37" transform="translate(-16.272 -56.245)" fill="none" stroke="#fff" stroke-linecap="round" stroke-linejoin="round" stroke-miterlimit="10" stroke-width="2.793"/>
    </g>
    <g id="g600" transform="translate(167.406 319.719)">
      <g id="g602" transform="translate(0 0)" clip-path="url(#clip-path-3)">
        <path id="path608" d="M120.977-234.969h.308v-.274h-.308Z" transform="translate(-120.977 235.243)" fill="#e0e1de"/>
      </g>
    </g>
  </g>
</svg>
