<svg xmlns="http://www.w3.org/2000/svg" width="40.338" height="40.339" viewBox="0 0 40.338 40.339">
  <g id="Store" transform="translate(1501.915 -1862.433)">
    <path id="Path_86" data-name="Path 86" d="M126.17,483.146H87.1a.63.63,0,0,1-.63-.63v-2.043a2.332,2.332,0,0,1,2.329-2.329H124.47a2.332,2.332,0,0,1,2.329,2.329v2.043a.631.631,0,0,1-.631.63Zm-38.443-1.261H125.54v-1.412a1.07,1.07,0,0,0-1.068-1.068H88.8a1.07,1.07,0,0,0-1.068,1.068Z" transform="translate(-1588.381 1419.626)" fill="#4dcc86"/>
    <path id="Path_87" data-name="Path 87" d="M149.338,156.975H114.452a.63.63,0,0,1-.63-.63v-24.31a.63.63,0,0,1,.727-.623,1.632,1.632,0,0,0,.251.018,1.814,1.814,0,0,0,1.816-1.808.63.63,0,0,1,1.26,0,1.812,1.812,0,0,0,3.624,0,.63.63,0,1,1,1.26,0,1.812,1.812,0,0,0,3.624,0,.63.63,0,1,1,1.26,0,1.812,1.812,0,1,0,3.624,0,.63.63,0,1,1,1.26,0,1.812,1.812,0,0,0,3.624,0,.63.63,0,1,1,1.26,0,1.812,1.812,0,0,0,3.624,0,.63.63,0,1,1,1.26,0,1.812,1.812,0,0,0,3.624,0,.63.63,0,0,1,1.26,0,1.793,1.793,0,0,0,.529,1.278,1.827,1.827,0,0,0,1.529.511.63.63,0,0,1,.727.623v24.31a.63.63,0,0,1-.63.63Zm-34.256-1.26h33.625V132.677a3.045,3.045,0,0,1-1.888-.886,3.127,3.127,0,0,1-.271-.308,3.075,3.075,0,0,1-4.614.308,3.123,3.123,0,0,1-.27-.308,3.075,3.075,0,0,1-4.614.308,3.127,3.127,0,0,1-.271-.308,3.075,3.075,0,0,1-4.614.309,3.123,3.123,0,0,1-.27-.308,3.075,3.075,0,0,1-4.614.308,3.17,3.17,0,0,1-.271-.308,3.075,3.075,0,0,1-4.614.308,3.131,3.131,0,0,1-.271-.308,3.075,3.075,0,0,1-4.614.308,3.138,3.138,0,0,1-.27-.308,3.082,3.082,0,0,1-2.162,1.193Z" transform="translate(-1613.643 1742.055)" fill="#4dcc86"/>
    <path id="Path_88" data-name="Path 88" d="M89.537,117.57a3.076,3.076,0,0,1-3.072-3.072v-1.251a.63.63,0,0,1,.63-.63h4.884a.63.63,0,0,1,.63.63V114.5a3.075,3.075,0,0,1-3.072,3.072Zm-1.812-3.693v.62a1.812,1.812,0,0,0,3.623,0v-.62Z" transform="translate(-1588.38 1757.177)" fill="#4dcc86"/>
    <path id="Path_89" data-name="Path 89" d="M153.357,117.57a3.076,3.076,0,0,1-3.072-3.072v-1.251a.63.63,0,0,1,.63-.63H155.8a.63.63,0,0,1,.63.63V114.5a3.076,3.076,0,0,1-3.072,3.072Zm-1.812-3.693v.62a1.812,1.812,0,1,0,3.623,0v-.62Z" transform="translate(-1647.316 1757.177)" fill="#4dcc86"/>
    <path id="Path_90" data-name="Path 90" d="M217.175,117.57a3.076,3.076,0,0,1-3.075-3.07v-1.251a.63.63,0,0,1,.63-.63h4.884a.63.63,0,0,1,.63.63V114.5a3.076,3.076,0,0,1-3.069,3.07Zm-1.812-3.693v.62a1.812,1.812,0,1,0,3.624,0v-.62Z" transform="translate(-1706.249 1757.177)" fill="#4dcc86"/>
    <path id="Path_91" data-name="Path 91" d="M280.987,117.57a3.076,3.076,0,0,1-3.072-3.072v-1.251a.63.63,0,0,1,.63-.63h4.884a.63.63,0,0,1,.63.63V114.5a3.075,3.075,0,0,1-3.072,3.072Zm-1.812-3.693v.62a1.812,1.812,0,0,0,3.623,0v-.62Z" transform="translate(-1765.178 1757.177)" fill="#4dcc86"/>
    <path id="Path_92" data-name="Path 92" d="M344.807,117.57a3.076,3.076,0,0,1-3.072-3.072v-1.251a.63.63,0,0,1,.63-.63h4.884a.63.63,0,0,1,.63.63V114.5a3.076,3.076,0,0,1-3.072,3.072ZM343,113.877v.62a1.812,1.812,0,0,0,3.624,0v-.62Z" transform="translate(-1824.114 1757.177)" fill="#4dcc86"/>
    <path id="Path_93" data-name="Path 93" d="M408.628,117.57a3.076,3.076,0,0,1-3.073-3.072v-1.251a.63.63,0,0,1,.63-.63h4.884a.63.63,0,0,1,.63.63V114.5a3.076,3.076,0,0,1-3.072,3.072Zm-1.812-3.693v.62a1.812,1.812,0,0,0,3.623,0v-.62Z" transform="translate(-1883.049 1757.177)" fill="#4dcc86"/>
    <path id="Path_94" data-name="Path 94" d="M472.447,117.57a3.076,3.076,0,0,1-3.072-3.072v-1.251a.63.63,0,0,1,.63-.63h4.884a.63.63,0,0,1,.63.63V114.5a3.076,3.076,0,0,1-3.072,3.07Zm-1.812-3.693v.62a1.812,1.812,0,1,0,3.623,0v-.62Z" transform="translate(-1941.985 1757.177)" fill="#4dcc86"/>
    <path id="Path_95" data-name="Path 95" d="M536.255,117.57a3.076,3.076,0,0,1-3.073-3.072v-1.251a.63.63,0,0,1,.63-.63H538.7a.63.63,0,0,1,.63.63V114.5a3.075,3.075,0,0,1-3.075,3.07Zm-1.812-3.693v.62a1.812,1.812,0,0,0,3.624,0v-.62Z" transform="translate(-2000.908 1757.177)" fill="#4dcc86"/>
    <path id="Path_96" data-name="Path 96" d="M92.029,25.116H87.145a.63.63,0,0,1-.6-.829l2.056-6.2a2.326,2.326,0,0,1,2.211-1.6H93.86a.63.63,0,0,1,.611.782L92.64,24.638a.629.629,0,0,1-.611.478Zm-4.011-1.26h3.518l1.518-6.1h-2.24a1.067,1.067,0,0,0-1.014.732Z" transform="translate(-1588.427 1845.946)" fill="#4dcc86"/>
    <path id="Path_97" data-name="Path 97" d="M155.855,25.116h-4.884a.63.63,0,0,1-.611-.782l1.831-7.365a.63.63,0,0,1,.611-.478h4.274a.63.63,0,0,1,.622.733l-1.221,7.365a.629.629,0,0,1-.621.527Zm-4.078-1.26h3.544l1.012-6.1H153.3Z" transform="translate(-1647.368 1845.947)" fill="#4dcc86"/>
    <path id="Path_98" data-name="Path 98" d="M219.671,25.119h-4.884a.63.63,0,0,1-.622-.733l1.221-7.365a.63.63,0,0,1,.622-.527h4.273a.63.63,0,0,1,.628.682l-.61,7.365a.63.63,0,0,1-.628.578Zm-4.141-1.26h3.561l.506-6.1h-3.055Z" transform="translate(-1706.3 1845.943)" fill="#4dcc86"/>
    <path id="Path_99" data-name="Path 99" d="M283.484,25.119H278.6a.63.63,0,0,1-.628-.682l.61-7.365a.63.63,0,0,1,.628-.578h4.274a.63.63,0,0,1,.63.63v7.365a.63.63,0,0,1-.63.63Zm-4.2-1.26h3.569v-6.1H279.79Z" transform="translate(-1765.228 1845.943)" fill="#4dcc86"/>
    <path id="Path_100" data-name="Path 100" d="M347.3,25.119h-4.88a.63.63,0,0,1-.63-.63V17.124a.63.63,0,0,1,.63-.63h4.274a.63.63,0,0,1,.628.578l.61,7.365a.63.63,0,0,1-.628.682Zm-4.254-1.26h3.569l-.505-6.1h-3.06Z" transform="translate(-1824.164 1845.943)" fill="#4dcc86"/>
    <path id="Path_101" data-name="Path 101" d="M403.754,25.119H398.87a.63.63,0,0,1-.628-.578l-.611-7.365a.63.63,0,0,1,.628-.682h4.273a.63.63,0,0,1,.622.527l1.221,7.365a.63.63,0,0,1-.621.733Zm-4.3-1.26h3.561L402,17.755h-3.055Z" transform="translate(-1875.73 1845.943)" fill="#4dcc86"/>
    <path id="Path_102" data-name="Path 102" d="M460.2,25.119h-4.884a.63.63,0,0,1-.622-.527l-1.221-7.365a.63.63,0,0,1,.622-.733h4.274a.63.63,0,0,1,.611.478l1.831,7.365a.63.63,0,0,1-.611.782Zm-4.35-1.26h3.544l-1.518-6.1h-3.038Z" transform="translate(-1927.292 1845.943)" fill="#4dcc86"/>
    <path id="Path_103" data-name="Path 103" d="M516.653,25.119h-4.884a.63.63,0,0,1-.611-.478l-1.831-7.364a.63.63,0,0,1,.611-.782h3.047a2.326,2.326,0,0,1,2.211,1.6l2.056,6.2a.63.63,0,0,1-.6.828Zm-4.392-1.26h3.518L514,18.487a1.067,1.067,0,0,0-1.014-.732h-2.241Z" transform="translate(-1978.861 1845.943)" fill="#4dcc86"/>
    <path id="Path_104" data-name="Path 104" d="M378.638,283.517H367.006a.63.63,0,0,1-.63-.63v-12.1a.63.63,0,0,1,.63-.63h11.632a.63.63,0,0,1,.63.63v12.1A.63.63,0,0,1,378.638,283.517Zm-11-1.261h10.371V271.421H367.636Z" transform="translate(-1846.868 1611.69)" fill="#4dcc86"/>
    <path id="Path_105" data-name="Path 105" d="M409.966,218.592a.63.63,0,0,1-.63-.63v-3.527a2.354,2.354,0,0,0-4.708,0v3.527a.63.63,0,1,1-1.26,0v-3.527a3.615,3.615,0,1,1,7.23,0v3.527a.63.63,0,0,1-.63.63Z" transform="translate(-1881.029 1666.49)" fill="#4dcc86"/>
    <path id="Path_106" data-name="Path 106" d="M176.848,261.317H165.756a.63.63,0,0,1-.63-.63V243.48a1.5,1.5,0,0,1,1.5-1.5h9.356a1.5,1.5,0,0,1,1.5,1.5v17.207a.63.63,0,0,1-.63.63Zm-10.462-1.26h9.832V243.48a.238.238,0,0,0-.238-.238h-9.356a.238.238,0,0,0-.238.238Z" transform="translate(-1661.021 1637.713)" fill="#4dcc86"/>
    <path id="Path_107" data-name="Path 107" d="M266.894,353.857a.673.673,0,1,1,.673-.673A.705.705,0,0,1,266.894,353.857Z" transform="translate(-1754.379 1535.642)" fill="#4dcc86"/>
  </g>
</svg>
