<svg xmlns="http://www.w3.org/2000/svg" width="24.582" height="24.579" viewBox="0 0 24.582 24.579">
  <path id="Call" d="M131.765,55.807l-3.154-3.154a2.228,2.228,0,0,0-3.095-.036L123.754,54.3a24.463,24.463,0,0,1-7.806-7.806l1.681-1.762a2.228,2.228,0,0,0-.036-3.1l-3.154-3.154a2.215,2.215,0,0,0-3.251.129l-3.2,3.757a.633.633,0,0,0-.151.4,12.53,12.53,0,0,0,2.015,6.254,31.65,31.65,0,0,0,4.964,6.313c3.433,3.433,8.522,7.078,12.567,7.078h.1a.631.631,0,0,0,.4-.151l3.758-3.2a2.215,2.215,0,0,0,.129-3.251Zm-.95,2.288-3.579,3.051c-3.021-.082-7.511-2.686-11.529-6.7s-6.532-8.373-6.608-11.431l3.052-3.579a.949.949,0,0,1,1.393-.055l3.154,3.154a.955.955,0,0,1,.015,1.326l-2,2.092a.633.633,0,0,0-.108.721,24.76,24.76,0,0,0,8.967,8.967.633.633,0,0,0,.721-.108l2.092-2a.955.955,0,0,1,1.326.015l3.154,3.154a.949.949,0,0,1-.055,1.393Z" transform="translate(-107.837 -37.835)" fill="#4dcc86"/>
</svg>
