<svg width="30" height="30" viewBox="0 0 30 30" fill="none" xmlns="http://www.w3.org/2000/svg">
<path d="M3.75 2.5C3.05965 2.5 2.5 3.05965 2.5 3.75C2.5 4.44035 3.05965 5 3.75 5H3.7625C4.45285 5 5.0125 4.44035 5.0125 3.75C5.0125 3.05965 4.45285 2.5 3.7625 2.5H3.75Z" fill="black"/>
<path d="M8.75 2.5C8.05965 2.5 7.5 3.05965 7.5 3.75C7.5 4.44035 8.05965 5 8.75 5H8.7625C9.45285 5 10.0125 4.44035 10.0125 3.75C10.0125 3.05965 9.45285 2.5 8.7625 2.5H8.75Z" fill="black"/>
<path d="M13.75 2.5C13.0596 2.5 12.5 3.05965 12.5 3.75C12.5 4.44035 13.0596 5 13.75 5H13.7625C14.4529 5 15.0125 4.44035 15.0125 3.75C15.0125 3.05965 14.4529 2.5 13.7625 2.5H13.75Z" fill="black"/>
<path d="M3.75 7.5C3.05965 7.5 2.5 8.05965 2.5 8.75C2.5 9.44035 3.05965 10 3.75 10H3.7625C4.45285 10 5.0125 9.44035 5.0125 8.75C5.0125 8.05965 4.45285 7.5 3.7625 7.5H3.75Z" fill="black"/>
<path d="M8.75 7.5C8.05965 7.5 7.5 8.05965 7.5 8.75C7.5 9.44035 8.05965 10 8.75 10H8.7625C9.45285 10 10.0125 9.44035 10.0125 8.75C10.0125 8.05965 9.45285 7.5 8.7625 7.5H8.75Z" fill="black"/>
<path d="M3.75 12.5C3.05965 12.5 2.5 13.0596 2.5 13.75C2.5 14.4404 3.05965 15 3.75 15H3.7625C4.45285 15 5.0125 14.4404 5.0125 13.75C5.0125 13.0596 4.45285 12.5 3.7625 12.5H3.75Z" fill="black"/>
<path d="M8.75 12.5C8.05965 12.5 7.5 13.0596 7.5 13.75C7.5 14.4404 8.05965 15 8.75 15H8.7625C9.45285 15 10.0125 14.4404 10.0125 13.75C10.0125 13.0596 9.45285 12.5 8.7625 12.5H8.75Z" fill="black"/>
<path d="M26.25 25V23.75C26.25 20.9886 24.0114 18.75 21.25 18.75H20C19.3096 18.75 18.75 18.1898 18.75 17.4994V10.0008C18.75 8.6201 17.6307 7.5 16.25 7.5C14.8693 7.5 13.75 8.61929 13.75 10V22.5L10.75 18.5C10.2779 17.8705 9.53689 17.5 8.75 17.5H8.27254C7.15553 17.5 6.25 18.4055 6.25 19.5225C6.25 19.8365 6.3231 20.1463 6.46353 20.427L9.30901 26.118C9.7325 26.965 10.5981 27.5 11.5451 27.5H23.75C25.1307 27.5 26.25 26.3807 26.25 25Z" fill="black"/>
</svg>
