<svg width="30" height="30" viewBox="0 0 30 30" fill="none" xmlns="http://www.w3.org/2000/svg">
<path d="M11.25 3.75C11.25 3.05965 10.6904 2.5 10 2.5C9.30965 2.5 8.75 3.05965 8.75 3.75V5H7.5C5.42894 5 3.75 6.67894 3.75 8.75V10H26.25V8.75C26.25 6.67894 24.5711 5 22.5 5H21.25V3.75C21.25 3.05965 20.6904 2.5 20 2.5C19.3096 2.5 18.75 3.05965 18.75 3.75V5H11.25V3.75Z" fill="black"/>
<path d="M3.75 23.75V12.5H21.875C16.6974 12.5 12.5 16.6974 12.5 21.875C12.5 23.9855 13.1974 25.9331 14.3744 27.5H7.5C5.42894 27.5 3.75 25.8211 3.75 23.75Z" fill="black"/>
<path fill-rule="evenodd" clip-rule="evenodd" d="M21.875 15C18.078 15 15 18.078 15 21.875C15 25.672 18.078 28.75 21.875 28.75C25.672 28.75 28.75 25.672 28.75 21.875C28.75 18.078 25.672 15 21.875 15ZM22.5 20C22.5 19.3096 21.9404 18.75 21.25 18.75C20.5596 18.75 20 19.3096 20 20V22.5C20 23.1904 20.5596 23.75 21.25 23.75H23.75C24.4404 23.75 25 23.1904 25 22.5C25 21.8096 24.4404 21.25 23.75 21.25H22.5V20Z" fill="black"/>
</svg>
