<svg width="30" height="30" viewBox="0 0 30 30" fill="none" xmlns="http://www.w3.org/2000/svg">
<path fill-rule="evenodd" clip-rule="evenodd" d="M8.75 8.75C8.75 5.29822 11.5482 2.5 15 2.5C18.4517 2.5 21.25 5.29822 21.25 8.75C21.25 12.2018 18.4517 15 15 15C11.5482 15 8.75 12.2018 8.75 8.75ZM5 23.75C5 20.2983 7.79822 17.5 11.25 17.5H14.0684L12.588 21.941C12.5288 22.1187 12.5 22.3101 12.5 22.5C12.5001 22.8241 12.5841 23.144 12.7441 23.3839L14.4107 25.8839C14.7361 26.372 15.2639 26.372 15.5893 25.8839L17.2559 23.3839C17.4159 23.144 17.4999 22.8241 17.5 22.5C17.5 22.3101 17.4712 22.1187 17.412 21.941L15.9316 17.5H18.75C22.2017 17.5 25 20.2983 25 23.75V25C25 26.3807 23.8807 27.5 22.5 27.5H7.5C6.11929 27.5 5 26.3807 5 25V23.75Z" fill="black"/>
</svg>
