<svg xmlns="http://www.w3.org/2000/svg" width="37.688" height="37.695" viewBox="0 0 37.688 37.695">
  <g id="Theatre" transform="translate(1526.999 -1972.232)">
    <path id="Path_123" data-name="Path 123" d="M98.822,29.237A.628.628,0,0,1,97.7,29.8a4.479,4.479,0,0,0-7.672,0,.628.628,0,1,1-1.124-.562,5.729,5.729,0,0,1,9.918,0m-.58-10.169c-.869,0-1.226-.284-1.239-.357,0-.033.063-.193.326-.389a3.487,3.487,0,0,1,1.422-.557,4.152,4.152,0,0,1,.726-.066c.869,0,1.226.284,1.239.357.028.154-.549.736-1.748.947a4.2,4.2,0,0,1-.726.065m3.711-1.23c-.15-.847-1.121-1.4-2.476-1.4a5.473,5.473,0,0,0-.945.085,4.7,4.7,0,0,0-1.951.785,1.676,1.676,0,0,0-.815,1.616c.149.847,1.121,1.4,2.475,1.4a5.4,5.4,0,0,0,.945-.085c1.763-.311,2.952-1.343,2.766-2.4m5.729-4.653c0,8.315-4.878,24.5-13.82,24.5-3.378,0-6.81-2.584-9.178-6.912a.628.628,0,1,1,1.1-.6c2.144,3.919,5.164,6.259,8.076,6.259,7.794,0,12.563-15.048,12.563-23.242,0-2.612-.739-3.141-4.4-3.141a5.615,5.615,0,0,0-2.4.6c-.261.108-.539.223-.849.34a.628.628,0,0,1-.444-1.175c.3-.113.563-.223.813-.327a6.836,6.836,0,0,1,2.883-.7c3.83,0,5.653.658,5.653,4.4m-18.906,5.3a5.73,5.73,0,0,1-9.918,0,.628.628,0,1,1,1.122-.565,4.479,4.479,0,0,0,7.672,0,.628.628,0,1,1,1.124.562m.2-8.284a4.2,4.2,0,0,1-.726.065c-.869,0-1.226-.285-1.239-.358,0-.033.063-.193.326-.389a3.489,3.489,0,0,1,1.422-.557,4.152,4.152,0,0,1,.726-.066c.869,0,1.226.285,1.238.357.028.154-.549.735-1.747.946m.509-2.56a5.5,5.5,0,0,0-.945.085,4.71,4.71,0,0,0-1.952.785,1.675,1.675,0,0,0-.814,1.616c.15.848,1.121,1.4,2.476,1.4a5.421,5.421,0,0,0,.945-.085c1.763-.311,2.952-1.343,2.766-2.4-.149-.847-1.121-1.395-2.475-1.395M76.9,9.262c.013-.073.369-.358,1.238-.358a4.155,4.155,0,0,1,.727.066c1.2.211,1.775.792,1.747.946-.012.072-.369.357-1.239.357a4.2,4.2,0,0,1-.726-.065c-1.2-.212-1.775-.792-1.747-.946m4.949.872c.187-1.058-1-2.09-2.765-2.4a5.475,5.475,0,0,0-.945-.085c-1.354,0-2.326.548-2.475,1.4-.186,1.058,1,2.09,2.766,2.4a5.427,5.427,0,0,0,.945.085c1.355,0,2.327-.548,2.475-1.4m1.96,17.5c-7.794,0-12.563-15.048-12.563-23.242,0-2.612.74-3.141,4.4-3.141a6.7,6.7,0,0,1,2.659.7,13.067,13.067,0,0,0,5.507,1.184A13.069,13.069,0,0,0,89.32,1.951a6.7,6.7,0,0,1,2.658-.7c3.658,0,4.4.529,4.4,3.141,0,8.194-4.769,23.242-12.563,23.242M97.631,4.392c0-3.739-1.823-4.4-5.653-4.4a7.868,7.868,0,0,0-3.136.8,11.816,11.816,0,0,1-5.03,1.09A11.815,11.815,0,0,1,78.783.789a7.87,7.87,0,0,0-3.137-.8c-3.83,0-5.653.658-5.653,4.4,0,8.315,4.878,24.5,13.819,24.5S97.631,12.71,97.631,4.394" transform="translate(-1596.992 1972.24)" fill="#4dcc86" fill-rule="evenodd"/>
  </g>
</svg>
