<svg xmlns="http://www.w3.org/2000/svg" width="21.537" height="17.196" viewBox="0 0 21.537 17.196">
  <g id="Menu" transform="translate(747.039 -100)">
    <path id="Path_9" data-name="Path 9" d="M0,2.141a.958.958,0,0,1,.958-.958h19.62a.958.958,0,0,1,0,1.917H.958A.958.958,0,0,1,0,2.141Z" transform="translate(-747.039 98.817)" fill="#4dcc86"/>
    <path id="Path_10" data-name="Path 10" d="M0,249.316a.958.958,0,0,1,.958-.958h19.62a.959.959,0,0,1,0,1.917H.958A.958.958,0,0,1,0,249.316Z" transform="translate(-747.039 -140.72)" fill="#4dcc86"/>
    <path id="Path_11" data-name="Path 11" d="M0,496.586a.958.958,0,0,1,.958-.958h19.62a.959.959,0,0,1,0,1.917H.958A.958.958,0,0,1,0,496.586Z" transform="translate(-747.039 -380.349)" fill="#4dcc86"/>
  </g>
</svg>
