<svg width="35" height="35" viewBox="0 0 35 35" fill="none" xmlns="http://www.w3.org/2000/svg">
<path d="M17.5 16.0417C17.1133 16.0417 16.7423 16.1954 16.4688 16.4688C16.1954 16.7422 16.0417 17.1132 16.0417 17.5C16.0417 17.8867 16.1954 18.2577 16.4688 18.5312C16.7423 18.8046 17.1133 18.9583 17.5 18.9583C17.8868 18.9583 18.2578 18.8046 18.5312 18.5312C18.8046 18.2577 18.9583 17.8867 18.9583 17.5C18.9583 17.1132 18.8046 16.7422 18.5312 16.4688C18.2578 16.1954 17.8868 16.0417 17.5 16.0417ZM7.29167 16.0417C6.90489 16.0417 6.53396 16.1954 6.26047 16.4688C5.98698 16.7422 5.83333 17.1132 5.83333 17.5C5.83333 17.8867 5.98698 18.2577 6.26047 18.5312C6.53396 18.8046 6.90489 18.9583 7.29167 18.9583C7.67845 18.9583 8.04937 18.8046 8.32287 18.5312C8.59635 18.2577 8.75 17.8867 8.75 17.5C8.75 17.1132 8.59635 16.7422 8.32287 16.4688C8.04937 16.1954 7.67845 16.0417 7.29167 16.0417ZM27.7083 16.0417C27.3216 16.0417 26.9506 16.1954 26.6771 16.4688C26.4037 16.7422 26.25 17.1132 26.25 17.5C26.25 17.8867 26.4037 18.2577 26.6771 18.5312C26.9506 18.8046 27.3216 18.9583 27.7083 18.9583C28.0951 18.9583 28.4661 18.8046 28.7395 18.5312C29.013 18.2577 29.1667 17.8867 29.1667 17.5C29.1667 17.1132 29.013 16.7422 28.7395 16.4688C28.4661 16.1954 28.0951 16.0417 27.7083 16.0417Z" stroke="black" stroke-width="2" stroke-linecap="round" stroke-linejoin="round"/>
</svg>
