<svg xmlns="http://www.w3.org/2000/svg" width="43.526" height="43.524" viewBox="0 0 43.526 43.524">
  <path id="ChargeStation" d="M112.848,25.85a.68.68,0,0,0-.68.68v.68h-2.04a2.043,2.043,0,0,0-2.04,2.04h-3.061a.341.341,0,0,1-.34-.34V12.927a6.47,6.47,0,1,0-12.923,0v23.8a2.57,2.57,0,0,1-2.38,2.721A2.383,2.383,0,0,1,87,37.072v-5.5l.481-.481a.676.676,0,0,0,.2-.481V28.474a2.718,2.718,0,0,0,2.04-2.624V14.288C89.724,6.012,84.289,0,76.8,0H73.4a.68.68,0,0,0-.68.68V2.04H70.68a.68.68,0,0,0-.68.68V4.76a.68.68,0,0,0,.68.68h2.04V6.8H70.68a.68.68,0,0,0-.68.68V9.52a.68.68,0,0,0,.68.68h2.04v1.36a.68.68,0,0,0,.68.68h3.4a3.4,3.4,0,0,1,3.4,3.4v10.2a2.718,2.718,0,0,0,2.04,2.624V30.6a.677.677,0,0,0,.2.481l.481.481v5.5a6.469,6.469,0,0,0,6.461,6.461,6.646,6.646,0,0,0,6.461-6.8v-23.8a2.4,2.4,0,1,1,4.761,0V28.91a4.426,4.426,0,0,0,4.421,4.421h3.061a2.043,2.043,0,0,0,2.04,2.04h2.04v.68a.68.68,0,0,0,1.36,0V26.53A.68.68,0,0,0,112.848,25.85ZM83.6,30.329V28.57h2.721v1.759l-.281.281H83.884ZM71.36,4.085V3.4h1.36v.68Zm0,4.761v-.68h1.36v.68Zm10.2,17v-10.2a4.767,4.767,0,0,0-4.76-4.759H74.081V1.365H76.8c6.7,0,11.562,5.434,11.562,12.923V25.85A1.362,1.362,0,0,1,87,27.21H82.923a1.362,1.362,0,0,1-1.361-1.36Zm23.465,6.121a3.065,3.065,0,0,1-3.061-3.061V12.927a3.755,3.755,0,1,0-7.481,0v23.8a5.285,5.285,0,0,1-5.1,5.441,5.106,5.106,0,0,1-5.1-5.1v-5.1h1.36v5.1a3.745,3.745,0,0,0,3.741,3.741,3.926,3.926,0,0,0,3.741-4.081v-23.8a5.112,5.112,0,1,1,10.2,0V28.91a1.7,1.7,0,0,0,1.7,1.7h3.061v1.36Zm5.1,2.04a.681.681,0,0,1-.68-.68V29.25a.681.681,0,0,1,.68-.68h2.04v5.441Z" transform="translate(-70)" fill="#4dcc86"/>
</svg>
