<svg width="30" height="30" viewBox="0 0 30 30" fill="none" xmlns="http://www.w3.org/2000/svg">
<path d="M16.627 3.4982C15.6907 2.69573 14.3092 2.69573 13.3731 3.4982L5.45265 10.2871L2.34417 12.7739C1.8051 13.2051 1.7177 13.9918 2.14896 14.5309C2.58022 15.07 3.36684 15.1574 3.90591 14.7261L5.00005 13.8508V23.75C5.00005 25.1308 6.11934 26.25 7.50005 26.25H8.75V25C8.75 22.8449 9.84074 20.9446 11.5003 19.821C10.5744 18.9135 10 17.6489 10 16.25C10 13.4886 12.2386 11.25 15 11.25C17.7614 11.25 20 13.4886 20 16.25C20 17.6489 19.4256 18.9135 18.4997 19.821C20.1592 20.9446 21.25 22.8449 21.25 25V26.25H22.5C23.8807 26.25 25 25.1308 25 23.75V13.8508L26.0941 14.7261C26.6332 15.1574 27.4199 15.07 27.8511 14.5309C28.2824 13.9918 28.195 13.2051 27.6559 12.7739L24.5475 10.2872L16.627 3.4982Z" fill="black"/>
<path d="M18.75 26.25V25C18.75 22.9289 17.0711 21.25 15 21.25C12.9289 21.25 11.25 22.9289 11.25 25V26.25H18.75Z" fill="black"/>
<path d="M12.5 16.25C12.5 14.8693 13.6193 13.75 15 13.75C16.3807 13.75 17.5 14.8693 17.5 16.25C17.5 17.6307 16.3807 18.75 15 18.75C13.6193 18.75 12.5 17.6307 12.5 16.25Z" fill="black"/>
</svg>
