<svg width="24" height="24" viewBox="0 0 24 24" fill="none" xmlns="http://www.w3.org/2000/svg">
<path fill-rule="evenodd" clip-rule="evenodd" d="M12 24C13.5759 24 15.1363 23.6896 16.5922 23.0866C18.0481 22.4835 19.371 21.5996 20.4853 20.4853C21.5996 19.371 22.4835 18.0481 23.0866 16.5922C23.6896 15.1363 24 13.5759 24 12C24 10.4241 23.6896 8.86371 23.0866 7.4078C22.4835 5.95189 21.5996 4.62902 20.4853 3.51472C19.371 2.40042 18.0481 1.5165 16.5922 0.913445C15.1363 0.310389 13.5759 -2.34822e-08 12 0C8.8174 4.74244e-08 5.76516 1.26428 3.51472 3.51472C1.26428 5.76516 0 8.8174 0 12C0 15.1826 1.26428 18.2348 3.51472 20.4853C5.76516 22.7357 8.8174 24 12 24ZM11.0573 7.05733C11.3075 6.80732 11.6468 6.66694 12.0005 6.66706C12.3542 6.66719 12.6933 6.80781 12.9433 7.058C13.1933 7.30819 13.3337 7.64744 13.3336 8.00114C13.3335 8.35483 13.1929 8.69399 12.9427 8.944L11.2187 10.6667H16C16.3536 10.6667 16.6928 10.8071 16.9428 11.0572C17.1929 11.3072 17.3333 11.6464 17.3333 12C17.3333 12.3536 17.1929 12.6928 16.9428 12.9428C16.6928 13.1929 16.3536 13.3333 16 13.3333H11.22L12.9427 15.0573C13.1855 15.3088 13.3199 15.6456 13.3169 15.9952C13.3139 16.3448 13.1736 16.6792 12.9264 16.9264C12.6792 17.1736 12.3448 17.3139 11.9952 17.3169C11.6456 17.3199 11.3088 17.1855 11.0573 16.9427L7.05733 12.9427C6.93337 12.8188 6.83502 12.6718 6.76792 12.5099C6.70082 12.3481 6.66628 12.1746 6.66628 11.9993C6.66628 11.8241 6.70082 11.6506 6.76792 11.4887C6.83502 11.3269 6.93337 11.1798 7.05733 11.056L11.0573 7.056V7.05733Z" fill="white"/>
</svg>
