<svg xmlns="http://www.w3.org/2000/svg" width="356.664" height="311.232" viewBox="0 0 356.664 311.232">
  <g id="walkthrough3" transform="translate(-9.168 -170.143)">
    <path id="path122" d="M371.125-36.089c0,10.141-79.842,18.362-178.332,18.362S14.461-25.948,14.461-36.089,94.3-54.45,192.794-54.45s178.331,8.222,178.331,18.361" transform="translate(-5.293 499.102)" fill="#e7e8e5"/>
    <g id="Group_10525" data-name="Group 10525" transform="translate(-10.786 26.217)">
      <g id="Bottom_Skinny_Jeans_1" data-name="Bottom/Skinny Jeans 1" transform="translate(102.786 285.397)">
        <path id="Skirt_Shadow" data-name="Skirt Shadow" d="M0,8.621s19.676,5.5,33.952,5.5,26.52-8.475,26.52-8.475S41.217,0,28.758,0,0,8.621,0,8.621Z" transform="translate(53.437 47.366)" fill="#090c0d"/>
        <path id="Leg" d="M32.954,64.427a3.093,3.093,0,0,1-.318-.621C30.883,59.169,2.8,9.146,0,0H31.62c2.127,6.954,11.7,50.59,13.05,59.3,4.252,13.733,13.005,58.209,14.123,61.291,1.176,3.241-5.439,6.618-7.2,2.633a339.038,339.038,0,0,1-12.463-34.6C36.338,78.58,34.067,69.545,32.954,64.427Z" transform="translate(65.791 2.352)" fill="#f68c95"/>
        <path id="Leg-2" data-name="Leg" d="M67.165,70.534C54.325,73.78,7.359,79.646,4.136,80.567.82,81.513-2.087,74.679,2.011,73.2A339.035,339.035,0,0,1,37.394,63.18c8.762-1.786,16.758-3.244,22.126-4.1C59.065,44,56.986,7.816,58.349,0H86.326C85.02,7.495,73.974,62.181,71.921,67.655c-.652,1.954-2.6,2.818-4.756,2.879Z" transform="translate(5.711 2.352)" fill="#f68c95"/>
        <g id="Left_Shoe" data-name="Left Shoe" transform="matrix(0.174, 0.985, -0.985, 0.174, 11.13, 72.251)">
          <path id="shoe" d="M2.446,2.57a1.094,1.094,0,0,0-1.4.737L0,6.985A35.128,35.128,0,0,0,.493,11.3H31.334s1.2-3.974-1.388-4.291-4.3-.572-4.3-.572L11.308.048a.547.547,0,0,0-.728.291L9.658,2.574a12.393,12.393,0,0,1-3.9,1.119Z" transform="translate(0 0)" fill="#9bc9bf"/>
        </g>
        <g id="Right_Shoe" data-name="Right Shoe" transform="translate(114.457 121.737)">
          <path id="shoe-2" data-name="shoe" d="M2.446,2.9a1.094,1.094,0,0,0-1.4.737L0,7.317a35.128,35.128,0,0,0,.493,4.317H31.334s1.2-3.974-1.388-4.291-4.3-.572-4.3-.572L11.308.379a.547.547,0,0,0-.728.291L9.658,2.906a12.393,12.393,0,0,1-3.9,1.119Z" transform="translate(0 -0.332)" fill="#9bc9bf"/>
        </g>
        <path id="Skirt" d="M12.773,2.889s18.493-5.291,35,0C51.6,20.353,60.9,27.284,62.532,54.059c-18.591,9.238-41.557-6.588-60.7,2.42C-3.631,43.878,4.024,13.532,12.773,2.889Z" transform="translate(51.377 -0.538)" fill="#273e47"/>
      </g>
      <g id="Body_Long_Sleeve_1" data-name="Body/Long Sleeve 1" transform="translate(124.921 230.334)">
        <path id="Skin" d="M.671,69.988c-.61-.376-1.279-1.793.336-2.9,4.024-2.759,9.821-7.587,10.6-9.176,1.6-3.251,15.623-45.089,15.623-45.089l11.974.045S19.514,57.186,18.671,59.277c-1.265,3.135,1.412,7.911,2.557,10.477-1.8.808-2.643-.223-3.561-1.254-.978-1.1-2.048-2.2-4.475-1.068-3.106,1.445-5.674,3.739-8.735,3.738A7.1,7.1,0,0,1,.671,69.988ZM95.055,7.825l21.59-2.945A47.074,47.074,0,0,1,128.564,0c1.021-.03,2.645.342.225,2.358s-4.874,4.248-4.442,5.324,2.681.676,3.054,2.331q.373,1.655-10.954.538L98.928,17.5Z" transform="translate(0 27.887)" fill="#f68c95"/>
        <path id="Clothes_Back" data-name="Clothes Back" d="M0,.195,9.394,0c4.121,20.608,17.8,32.656,45.46,25.752l6.071,26.471C35,57.905,11.093,49.421,3.894,21.414,2.031,14.164.4,6.592,0,.195Z" transform="matrix(0.996, 0.087, -0.087, 0.996, 60.049, 2.54)" fill="#5fd636"/>
        <path id="Clothes" d="M0,80.38Q9.763,28.432,41.215,0h.93l.007.009,14.2,3.253c0,24.431,7.782,40.018,11.774,57.98H29.769c-.54,6.206-.872,12.587-1.045,19.138Z" transform="translate(13.254)" fill="#6fe147"/>
        <path id="Shade" d="M7.8,35.762H0A185.484,185.484,0,0,1,6.312,0C5.642,11.292,5.354,26.663,7.8,35.761Z" transform="translate(43.023 25.481)" fill="#41bb16"/>
      </g>
      <g id="Group_10524" data-name="Group 10524" transform="translate(169.904 187.037)">
        <path id="path570" d="M98.48-329.44a.357.357,0,0,1-.287.376c-.412.031-.906.061-1.461.1-1.31-3.409-2.723-6.117-2.353-5.06a17.53,17.53,0,0,1,.917,5.148c-.645.036-2.138.108-2.886.144-1.138-6-2.6-10.454-2.506-9.08.368,5.54.04,7.322-.344,9.225-6.965.327-16.1.657-22.709.754-.764-3.318-1.433-6.91-1.549-6.659a17.152,17.152,0,0,0-1.164,6.692c-2.1.016-3.786-.011-4.811-.078,0,0-.493-2.79-.564-3.708a19.171,19.171,0,0,1,.735-6.992,34.482,34.482,0,0,1,3.053-6.488l.028-.046.009-.018a19.756,19.756,0,0,0,1.757-4.33l.011-.033a19.062,19.062,0,0,0,.543-3.325c.305-4.1,2.612-7.646,6.463-8.731,7.272-6.857,14.562-3.982,16.764,1.27.212.512.418,1.1.618,1.74l.006.019c.746,2.368,1.414,5.442,2.032,7.817l0,.013.008.027,0,.007a22.379,22.379,0,0,0,.865,2.744c1.839,4.274,6.04,6.7,6.818,18.477" transform="translate(-57.865 372.486)" fill="#17282f"/>
        <path id="path572" d="M69.142-357.076a7.747,7.747,0,0,0-4.467,6.239,19.986,19.986,0,0,1-1.012,5.092,18.031,18.031,0,0,1-2.908,4.486,13.263,13.263,0,0,0-3.307,7.352,22.511,22.511,0,0,0,.871,9.282l.024-.009a23.908,23.908,0,0,1-.338-9.68c.551-3.246,2.387-5.29,4.266-7.759a13.546,13.546,0,0,0,2.761-6.627,16.155,16.155,0,0,1,.76-4.41,8.79,8.79,0,0,1,3.529-3.663.176.176,0,0,0-.179-.3" transform="translate(-57.322 369.139)" fill="#17282f"/>
        <path id="path574" d="M115.407-338.753c-1.784-2.321-3.642-4.3-4.688-7.182-.953-2.625-1.5-5.4-2.468-8.024l-.064.02c1.495,4.657,1.786,9.359,4.8,13.273a30.265,30.265,0,0,1,4.35,6.651,22.753,22.753,0,0,1,1.7,8.425.072.072,0,1,0,.144,0,18.834,18.834,0,0,0-3.767-13.161" transform="translate(-77.373 367.902)" fill="#17282f"/>
        <path id="path656" d="M81.489-318.544c.215,1.2,3.045,6.621,6.691,6.5,1.874-.063,1.912-6.63,1.912-6.63l.093-.482,1.292-6.758-9.2-5.448s-.848,12.478-.787,12.819" transform="translate(-66.848 358.995)" fill="#f68c95"/>
        <path id="path658" d="M82.278-326.708a13.826,13.826,0,0,0,8.221,7.55l1.293-6.758-9.206-5.45s-.145,2.131-.308,4.658" transform="translate(-67.16 358.996)" fill="#17282f"/>
        <path id="path660" d="M99.4-348.614c1.056,12.029-6.029,14.02-8.624,14.244-2.355.2-10.4.6-12.693-11.256s2.966-16.149,8.327-16.9,11.933,1.883,12.989,13.912" transform="translate(-65.29 371.326)" fill="#f68c95"/>
        <path id="path662" d="M109.094-344.773a7.626,7.626,0,0,1-.821-.149,1.343,1.343,0,0,1-.808-.311.43.43,0,0,1-.014-.524,1.066,1.066,0,0,1,1.042-.279,1.566,1.566,0,0,1,1,.524.458.458,0,0,1-.4.738" transform="translate(-77.051 364.788)" fill="#17282f"/>
        <path id="path664" d="M97.124-344.385a7.929,7.929,0,0,0,.811-.2,1.347,1.347,0,0,0,.789-.357.431.431,0,0,0-.016-.525,1.066,1.066,0,0,0-1.057-.218,1.566,1.566,0,0,0-.966.582.458.458,0,0,0,.439.714" transform="translate(-72.803 364.656)" fill="#17282f"/>
        <path id="path666" d="M99.762-338.562l-.059.076c.069.819.01,1.77-.718,2.082l.009.045c.9-.175.965-1.437.769-2.2" transform="translate(-73.746 361.832)" fill="#17282f"/>
        <path id="path668" d="M98.341-339.914c-1.325-.031-1.29,2.623-.062,2.651,1.209.029,1.174-2.625.062-2.651" transform="translate(-73.102 362.366)" fill="#17282f"/>
        <path id="path670" d="M97.11-339.7c-.23.153-.453.421-.732.452-.323.036-.571-.238-.786-.5l-.045.031c0,.509.2,1.028.748,1.1.5.062.849-.393.97-.905.022-.1-.062-.234-.154-.172" transform="translate(-72.39 362.302)" fill="#17282f"/>
        <path id="path672" d="M107.7-338.892l.063.073c-.021.822.092,1.767.838,2.036l-.007.046c-.908-.123-1.047-1.38-.894-2.155" transform="translate(-77.16 361.963)" fill="#17282f"/>
        <path id="path674" d="M108.44-340.319c1.322-.107,1.44,2.544.216,2.644-1.205.1-1.324-2.553-.216-2.644" transform="translate(-77.172 362.526)" fill="#17282f"/>
        <path id="path676" d="M109.778-340.194c.216.132.434.377.685.383.291.006.493-.29.666-.574l.042.027c.037.506-.108,1.042-.59,1.161-.44.109-.786-.312-.929-.811-.027-.093.038-.238.126-.186" transform="translate(-77.949 362.551)" fill="#17282f"/>
        <path id="path680" d="M104.087-338.013s.2,1.223.215,1.8a3.116,3.116,0,0,1-3.057-.86l.085-.082a4.149,4.149,0,0,0,2.532.657c.037-.162-.413-2.084-.321-2.093a5.061,5.061,0,0,1,1.322.265c-.344-2.56-1.095-5.045-1.4-7.6a.079.079,0,0,1,.15-.041,41.775,41.775,0,0,1,1.854,8.121c.056.328-1.147-.077-1.381-.17" transform="translate(-74.637 364.769)" fill="#17282f"/>
        <path id="path682" d="M103.315-330.475a2.994,2.994,0,0,1-1.192.937,1.346,1.346,0,0,1-.817.056c-.592-.151-.611-.694-.505-1.159a3.234,3.234,0,0,1,.26-.712,3.878,3.878,0,0,0,2.254.879" transform="translate(-74.442 358.991)" fill="#17282f"/>
        <path id="path684" d="M102.123-329.075a1.347,1.347,0,0,1-.817.056c-.592-.151-.611-.694-.505-1.159a1.391,1.391,0,0,1,1.323,1.1" transform="translate(-74.442 358.527)" fill="#f578ba"/>
        <path id="path686" d="M75.736-366.666c1.065-.306,2.489-6.013-1.1-9.058-3.536-3-8.7-.271-7.02,4.623,1.062,3.093,5.869,5.085,8.121,4.435" transform="translate(-61.25 376.975)" fill="#17282f"/>
        <path id="path688" d="M68.489-376.145a6.49,6.49,0,0,0-2.472,3.5,3.914,3.914,0,0,0,.868,3.813,7.914,7.914,0,0,0,3.636,2.136,12.028,12.028,0,0,0,2.149.431,5.977,5.977,0,0,0,2.208-.073,5.268,5.268,0,0,1-2.223.479,9.8,9.8,0,0,1-2.293-.212,7.626,7.626,0,0,1-4.091-2.209,4.551,4.551,0,0,1-1.094-2.17,4.6,4.6,0,0,1,.228-2.39,5.726,5.726,0,0,1,3.085-3.3" transform="translate(-60.392 376.648)" fill="#17282f"/>
        <path id="path690" d="M77.846-346.745c2.249.322,2.913-4.831,2.913-4.831s9.631-1.468,10.576-9.273a13.232,13.232,0,0,0,6.554,7.352s-.192-8.578-6.96-10.357c0,0-8.382-3.21-13.235,3.4s-1.357,13.491.153,13.707" transform="translate(-64.374 372.11)" fill="#17282f"/>
        <path id="path692" d="M96.22-359.341a8.5,8.5,0,0,1-.488,3.562,8.854,8.854,0,0,1-1.865,3.128,7.64,7.64,0,0,1-.659.638l-.339.309c-.121.094-.246.182-.371.268-.252.172-.5.355-.754.517-.268.145-.539.284-.81.419-.136.067-.269.14-.407.2l-.427.157-.849.31c-.583.152-1.172.274-1.757.385.556-.232,1.124-.4,1.667-.637l.8-.373.4-.186c.128-.07.251-.152.376-.227.249-.155.5-.307.751-.452.24-.166.465-.351.7-.524l.348-.262.316-.3a7.319,7.319,0,0,0,.616-.612,10.159,10.159,0,0,0,1.878-2.912,10.57,10.57,0,0,0,.565-1.662,10.262,10.262,0,0,0,.311-1.749" transform="translate(-69.216 370.023)" fill="#17282f"/>
        <path id="path694" d="M78.675-337.746s-2.639-3.766-4.349-2.825.278,6.4,2.287,7.148a2.042,2.042,0,0,0,2.735-1.1l-.673-3.224" transform="translate(-63.769 362.684)" fill="#f68c95"/>
        <path id="path696" d="M75.746-337.913l-.01.054a5.161,5.161,0,0,1,2.671,3.227,1.128,1.128,0,0,0-1.687-.307l.039.076a1.255,1.255,0,0,1,1.383.436,6.082,6.082,0,0,1,.664,1.118c.066.126.293.058.245-.087l-.011-.032c.034-1.795-1.364-4.305-3.292-4.485" transform="translate(-64.581 361.576)" fill="#17282f"/>
        <path id="path698" d="M78.888-329.839a.518.518,0,0,0,.636.364.519.519,0,0,0,.364-.636.518.518,0,0,0-.636-.364.518.518,0,0,0-.364.636" transform="translate(-65.816 358.652)" fill="#33535f"/>
        <path id="path700" d="M79.329-329.733a.245.245,0,0,0,.3.173.246.246,0,0,0,.173-.3.246.246,0,0,0-.3-.173.245.245,0,0,0-.172.3" transform="translate(-65.994 358.474)" fill="#17282f"/>
        <path id="path702" d="M77.393-330.756a.367.367,0,0,0,.45.258.367.367,0,0,0,.258-.45.366.366,0,0,0-.45-.258.367.367,0,0,0-.258.45" transform="translate(-65.229 358.938)" fill="#33535f"/>
      </g>
    </g>
    <g id="Group_10527" data-name="Group 10527" transform="translate(-127.054 -96.923)">
      <circle id="Ellipse_4" data-name="Ellipse 4" cx="30.364" cy="30.364" r="30.364" transform="translate(364.173 387.82) rotate(-45)" fill="#e2810e"/>
      <circle id="Ellipse_5" data-name="Ellipse 5" cx="30.364" cy="30.364" r="30.364" transform="translate(361.547 388.161) rotate(-45)" fill="#ffb93e"/>
      <g id="Group_49" data-name="Group 49" transform="translate(376.866 360.848)">
        <path id="Path_137" data-name="Path 137" d="M513.421,525.738a27.663,27.663,0,1,1,18.354-10.557A27.483,27.483,0,0,1,513.421,525.738Zm-6.921-53.23a26.014,26.014,0,1,0,29.151,22.443A26.044,26.044,0,0,0,506.5,472.508Z" transform="translate(-482.186 -470.636)" fill="#ffa412"/>
      </g>
      <g id="Group_50" data-name="Group 50" transform="translate(393.215 368.032)">
        <path id="Path_138" data-name="Path 138" d="M627.072,555.166a4.567,4.567,0,0,0-.272-1.585,3.338,3.338,0,0,0-.846-1.236,6.326,6.326,0,0,0-1.5-1.013,16.781,16.781,0,0,0-2.239-.9,43.493,43.493,0,0,1-4.129-1.616,13.83,13.83,0,0,1-3.187-1.971,8.089,8.089,0,0,1-2.074-2.637,9.142,9.142,0,0,1-.159-6.951,7.7,7.7,0,0,1,1.818-2.639,9.584,9.584,0,0,1,2.856-1.845,12.775,12.775,0,0,1,3.743-.932l-.051-4.592,3.7-.042.052,4.655a11.5,11.5,0,0,1,3.615,1.011,8.68,8.68,0,0,1,4.55,5,11.568,11.568,0,0,1,.655,3.865l-6.675.075a5.628,5.628,0,0,0-1.186-3.839,3.9,3.9,0,0,0-3.074-1.242,4.979,4.979,0,0,0-1.787.31,3.352,3.352,0,0,0-1.227.808,3.128,3.128,0,0,0-.7,1.2,4.646,4.646,0,0,0-.215,1.483,4.217,4.217,0,0,0,.248,1.435,3.131,3.131,0,0,0,.81,1.182,6.306,6.306,0,0,0,1.512,1.013,21.3,21.3,0,0,0,2.333.971q2.25.811,4.1,1.671a13.913,13.913,0,0,1,3.176,1.992,8.212,8.212,0,0,1,2.074,2.649,9.179,9.179,0,0,1,.149,6.993,7.591,7.591,0,0,1-1.83,2.617,9.262,9.262,0,0,1-2.879,1.792,13.843,13.843,0,0,1-3.766.9l.048,4.269-3.672.041-.047-4.249a15.529,15.529,0,0,1-3.717-.795,9.78,9.78,0,0,1-3.2-1.821,8.773,8.773,0,0,1-2.251-3.032,10.709,10.709,0,0,1-.881-4.41l6.675-.075a6.58,6.58,0,0,0,.456,2.537,4.263,4.263,0,0,0,1.162,1.618,4.127,4.127,0,0,0,1.638.839,7.128,7.128,0,0,0,1.863.226,5.912,5.912,0,0,0,1.9-.3,3.945,3.945,0,0,0,1.366-.789,3.138,3.138,0,0,0,.818-1.178A4.008,4.008,0,0,0,627.072,555.166Z" transform="translate(-610.94 -527.21)" fill="#f0980a"/>
      </g>
    </g>
    <g id="Group_10528" data-name="Group 10528" transform="translate(-153.054 -174.737)">
      <circle id="Ellipse_4-2" data-name="Ellipse 4" cx="24.102" cy="24.102" r="24.102" transform="translate(363.632 378.964) rotate(-45)" fill="#e2810e"/>
      <circle id="Ellipse_5-2" data-name="Ellipse 5" cx="24.102" cy="24.102" r="24.102" transform="translate(361.547 379.235) rotate(-45)" fill="#ffb93e"/>
      <g id="Group_49-2" data-name="Group 49" transform="translate(373.707 357.555)">
        <path id="Path_137-2" data-name="Path 137" d="M506.979,514.374a21.958,21.958,0,1,1,14.569-8.38A21.815,21.815,0,0,1,506.979,514.374Zm-5.493-42.252a20.649,20.649,0,1,0,23.139,17.814A20.673,20.673,0,0,0,501.486,472.122Z" transform="translate(-482.186 -470.636)" fill="#ffa412"/>
      </g>
      <g id="Group_50-2" data-name="Group 50" transform="translate(386.684 363.257)">
        <path id="Path_138-2" data-name="Path 138" d="M623.745,549.4a3.623,3.623,0,0,0-.216-1.258,2.649,2.649,0,0,0-.671-.981,5.021,5.021,0,0,0-1.191-.8,13.321,13.321,0,0,0-1.777-.713,34.5,34.5,0,0,1-3.278-1.283,10.98,10.98,0,0,1-2.53-1.564,6.421,6.421,0,0,1-1.646-2.094,7.256,7.256,0,0,1-.126-5.517,6.109,6.109,0,0,1,1.443-2.094,7.607,7.607,0,0,1,2.267-1.465,10.139,10.139,0,0,1,2.971-.74l-.04-3.645,2.933-.033.041,3.7a9.125,9.125,0,0,1,2.87.8,6.89,6.89,0,0,1,3.612,3.971,9.185,9.185,0,0,1,.52,3.068l-5.3.06a4.467,4.467,0,0,0-.941-3.047,3.1,3.1,0,0,0-2.44-.986,3.952,3.952,0,0,0-1.418.246,2.661,2.661,0,0,0-.974.641,2.483,2.483,0,0,0-.557.952,3.689,3.689,0,0,0-.17,1.177,3.348,3.348,0,0,0,.2,1.139,2.484,2.484,0,0,0,.643.938,5,5,0,0,0,1.2.8,16.894,16.894,0,0,0,1.852.771q1.786.644,3.252,1.326a11.044,11.044,0,0,1,2.521,1.582,6.518,6.518,0,0,1,1.646,2.1,7.286,7.286,0,0,1,.118,5.551,6.026,6.026,0,0,1-1.452,2.077,7.353,7.353,0,0,1-2.285,1.422,10.991,10.991,0,0,1-2.99.715l.038,3.389-2.915.032-.037-3.373a12.327,12.327,0,0,1-2.95-.631,7.763,7.763,0,0,1-2.537-1.445,6.963,6.963,0,0,1-1.787-2.407,8.5,8.5,0,0,1-.7-3.5l5.3-.059a5.223,5.223,0,0,0,.362,2.014,3.385,3.385,0,0,0,.922,1.284,3.277,3.277,0,0,0,1.3.666,5.654,5.654,0,0,0,1.479.179,4.691,4.691,0,0,0,1.51-.238,3.132,3.132,0,0,0,1.085-.626,2.492,2.492,0,0,0,.649-.935A3.181,3.181,0,0,0,623.745,549.4Z" transform="translate(-610.94 -527.21)" fill="#f0980a"/>
      </g>
    </g>
    <g id="Group_10621" data-name="Group 10621" transform="translate(-3235 1690.381)">
      <path id="path158" d="M109.731-852.9l4.286-2.6,3.273,3.8,4.88-1.146,1.94,4.621,4.995.417.418,5,4.622,1.941L133-835.994l3.8,3.273-2.6,4.287,2.6,4.286-3.8,3.274,1.147,4.88-4.622,1.94-.418,5-4.995.417-1.94,4.622-4.88-1.147-3.273,3.8-4.286-2.6-4.286,2.6-3.274-3.8-4.879,1.147-1.94-4.622-5-.417-.417-5-4.622-1.94,1.147-4.88-3.8-3.274,2.6-4.286-2.6-4.287,3.8-3.273-1.147-4.879,4.622-1.941.417-5,5-.417,1.94-4.621,4.879,1.146,3.274-3.8,4.286,2.6" transform="translate(3222.332 -648.694)" fill="#db0000"/>
      <text id="_" data-name="%" transform="translate(3321 -1466.191)" fill="#fff" font-size="30" font-family="SegoeUI-Bold, Segoe UI" font-weight="700"><tspan x="0" y="0">%</tspan></text>
    </g>
  </g>
</svg>
