<svg width="30" height="30" viewBox="0 0 30 30" fill="none" xmlns="http://www.w3.org/2000/svg">
<path d="M10 2.5C10.6904 2.5 11.25 3.05965 11.25 3.75V5H18.75V3.75C18.75 3.05965 19.3096 2.5 20 2.5C20.6904 2.5 21.25 3.05965 21.25 3.75V5H22.5C24.5711 5 26.25 6.67894 26.25 8.75V10H3.75V8.75C3.75 6.67894 5.42894 5 7.5 5H8.75V3.75C8.75 3.05965 9.30965 2.5 10 2.5Z" fill="black"/>
<path d="M3.75 12.5V23.75C3.75 25.8211 5.42894 27.5 7.5 27.5H16.3497L16.3424 27.4779L14.3323 21.4475C12.8664 17.0501 17.0499 12.8665 21.4474 14.3324L26.25 15.9333V12.5H3.75Z" fill="black"/>
<path d="M20.6567 16.7041C18.2137 15.8898 15.8895 18.214 16.7039 20.6569L18.714 26.6874C19.712 29.6815 24.0139 29.477 24.7236 26.4018L24.9504 25.419C25.0041 25.1861 25.186 25.0044 25.4189 24.9506L26.4016 24.7239C29.4769 24.0141 29.6812 19.7123 26.6871 18.7143L20.6567 16.7041Z" fill="black"/>
</svg>
