<svg xmlns="http://www.w3.org/2000/svg" width="37.812" height="37.444" viewBox="0 0 37.812 37.444">
  <path id="Doctor" d="M109.592,15.469a18.893,18.893,0,0,0-29.727,22.8,5.456,5.456,0,1,0,1.4-1.117,17.122,17.122,0,1,1,22.85,6.883c-2.8,1.456-4.949,1.442-6.381-.043h0a5.822,5.822,0,0,1-1.384-2.807,4.852,4.852,0,0,1-.089-1.65A10.606,10.606,0,0,0,106.273,28.96V20a.886.886,0,0,0-.886-.886H99.373a.885.885,0,1,0,0,1.771H104.5v8.074a8.821,8.821,0,0,1-17.641,0V20.88h5.13a.886.886,0,0,0,0-1.771H85.978a.886.886,0,0,0-.886.886v8.959a10.606,10.606,0,0,0,9.4,10.524,7.779,7.779,0,0,0,1.97,5.738,5.285,5.285,0,0,0,3.426,1.635q.27.024.549.024a9.915,9.915,0,0,0,4.5-1.274A18.873,18.873,0,0,0,109.6,15.468Zm-22,26.442a3.686,3.686,0,1,1-1.079-2.6,3.686,3.686,0,0,1,1.079,2.6Z" transform="translate(-77.333 -9.929)" fill="#4dcc86"/>
</svg>
