<svg width="35" height="35" viewBox="0 0 35 35" fill="none" xmlns="http://www.w3.org/2000/svg">
<path fill-rule="evenodd" clip-rule="evenodd" d="M5.22928 15.4376C5.77625 14.8906 6.51812 14.5833 7.29167 14.5833C8.06521 14.5833 8.80708 14.8906 9.35406 15.4376C9.90105 15.9846 10.2083 16.7265 10.2083 17.5C10.2083 18.2735 9.90105 19.0153 9.35406 19.5624C8.80708 20.1094 8.06521 20.4167 7.29167 20.4167C6.51812 20.4167 5.77625 20.1094 5.22928 19.5624C4.68229 19.0153 4.375 18.2735 4.375 17.5C4.375 16.7265 4.68229 15.9846 5.22928 15.4376ZM15.4376 15.4376C15.9846 14.8906 16.7265 14.5833 17.5 14.5833C18.2735 14.5833 19.0154 14.8906 19.5624 15.4376C20.1094 15.9846 20.4167 16.7265 20.4167 17.5C20.4167 18.2735 20.1094 19.0153 19.5624 19.5624C19.0154 20.1094 18.2735 20.4167 17.5 20.4167C16.7265 20.4167 15.9846 20.1094 15.4376 19.5624C14.8906 19.0153 14.5833 18.2735 14.5833 17.5C14.5833 16.7265 14.8906 15.9846 15.4376 15.4376ZM25.646 15.4376C26.193 14.8906 26.9348 14.5833 27.7083 14.5833C28.4818 14.5833 29.2237 14.8906 29.7707 15.4376C30.3177 15.9846 30.625 16.7265 30.625 17.5C30.625 18.2735 30.3177 19.0153 29.7707 19.5624C29.2237 20.1094 28.4818 20.4167 27.7083 20.4167C26.9348 20.4167 26.193 20.1094 25.646 19.5624C25.0989 19.0153 24.7917 18.2735 24.7917 17.5C24.7917 16.7265 25.0989 15.9846 25.646 15.4376Z" fill="black"/>
</svg>
