<svg xmlns="http://www.w3.org/2000/svg" width="21.454" height="26.837" viewBox="0 0 21.454 26.837">
  <path id="trash" d="M165.135,60.685h.017a.777.777,0,0,0,.76-.793L165.6,45.043a.777.777,0,0,0-.776-.761h-.017a.777.777,0,0,0-.76.793l.311,14.848a.777.777,0,0,0,.777.762Zm4.545,0a.777.777,0,0,0,.776-.761l.311-14.848a.777.777,0,0,0-.76-.793h-.017a.777.777,0,0,0-.776.761L168.9,59.892a.777.777,0,0,0,.76.793Zm6.112-16.4a.781.781,0,0,0-.8.749l-.622,17.472a.955.955,0,0,1-.953.955H161.4a.963.963,0,0,1-.955-.983l-.621-17.445a.777.777,0,1,0-1.553.055l.621,17.417a2.511,2.511,0,0,0,2.508,2.508h12.01a2.5,2.5,0,0,0,2.506-2.481l.621-17.445a.776.776,0,0,0-.748-.8Zm1.565-3.107h-4.734V38.953a.777.777,0,0,0-.777-.777h-8.875a.777.777,0,0,0-.777.777v2.224h-4.737a.777.777,0,0,0,0,1.554h19.9a.777.777,0,0,0,0-1.554Zm-6.288,0h-7.321V39.73h7.321Z" transform="translate(-156.68 -38.176)" fill="#4dcc86"/>
</svg>
