<svg xmlns="http://www.w3.org/2000/svg" width="43.815" height="43.816" viewBox="0 0 43.815 43.816">
  <g id="School" transform="translate(-310.52 -131.828)">
    <path id="Path_73" data-name="Path 73" d="M285.842,210a5.85,5.85,0,1,0,4.129,1.714A5.85,5.85,0,0,0,285.842,210Zm0,10.224a4.381,4.381,0,1,1,3.1-1.283A4.381,4.381,0,0,1,285.842,220.224Z" transform="translate(46.584 -62.106)" fill="#4dcc86"/>
    <path id="Path_74" data-name="Path 74" d="M130.594,40.138H118.179v-2.19h1.461a.73.73,0,0,0,.73-.73V35.757a.729.729,0,0,0-.307-.591l-9.917-7.084V26.263h9.494a.731.731,0,0,0,.687-.489.718.718,0,0,0-.234-.81l-2.936-2.352,2.936-2.352a.718.718,0,0,0,.234-.81.731.731,0,0,0-.687-.489h-9.494v-.73a.73.73,0,1,0-1.461,0v9.852l-9.917,7.084a.729.729,0,0,0-.307.591v1.461a.73.73,0,0,0,.73.73h1.461V40.14H88.239a.73.73,0,0,0-.73.73v2.92a.73.73,0,0,0,.73.73h.73V60.586a.73.73,0,0,0,.73.73h39.435a.73.73,0,0,0,.73-.73V44.52h.73a.73.73,0,0,0,.73-.73V40.869a.73.73,0,0,0-.73-.73ZM110.146,20.421h7.412l-2.023,1.621a.724.724,0,0,0,0,1.139l2.023,1.621h-7.412Zm-9.494,39.435H90.429V44.52h10.224Zm0-16.8H88.968V41.6h11.684Zm10.954,16.8h-4.382V54.014a2.191,2.191,0,1,1,4.382,0Zm5.112-22.639V59.856h-3.651V54.014a3.651,3.651,0,0,0-7.3,0v5.842h-3.651V37.217a.73.73,0,0,0-.73-.73H99.922v-.358l9.494-6.777,9.494,6.777v.358h-1.461a.73.73,0,0,0-.73.73ZM128.4,59.856H118.179V44.52H128.4Zm1.461-16.8H118.179V41.6h11.684Z" transform="translate(223.011 114.328)" fill="#4dcc86"/>
    <path id="Path_75" data-name="Path 75" d="M331.587,245a.73.73,0,0,1,.73.73v2.191a.753.753,0,0,1-.212.518l-.943.942a.733.733,0,1,1-1.036-1.037l.73-.724v-1.89a.73.73,0,0,1,.73-.73Z" transform="translate(0.84 -94.184)" fill="#4dcc86"/>
  </g>
</svg>
