<svg width="30" height="30" viewBox="0 0 30 30" fill="none" xmlns="http://www.w3.org/2000/svg">
<path d="M27.5 27.5V26.25C27.5 23.4886 25.2614 21.25 22.5 21.25C21.8096 21.25 21.25 20.6904 21.25 20V15C21.25 13.6193 20.1307 12.5 18.75 12.5C17.3693 12.5 16.25 13.6193 16.25 15V23.2142L14.2541 20.6481C13.936 20.2392 13.4456 20 12.9275 20C12.0026 20 11.25 20.7498 11.25 21.6746C11.25 21.9809 11.334 22.2814 11.4929 22.5432L14.5 27.5M5 8.75L6.87139 4.07153C7.25105 3.12238 8.17033 2.5 9.19259 2.5H18.3074C19.3296 2.5 20.249 3.12238 20.6286 4.07153L22.5 8.75M5 8.75H22.5M5 8.75C3.61929 8.75 2.5 9.86929 2.5 11.25V16.25C2.5 17.6307 3.61929 18.75 5 18.75M22.5 8.75C23.8807 8.75 25 9.86929 25 11.25V13.75M5 18.75V20.625C5 20.9701 5.27982 21.25 5.625 21.25C5.97018 21.25 6.25 20.9701 6.25 20.625V18.75M5 18.75H6.25M6.25 18.75H8.125" stroke="black" stroke-width="2" stroke-linecap="round" stroke-linejoin="round"/>
</svg>
