<svg xmlns="http://www.w3.org/2000/svg" width="50.642" height="23.636" viewBox="0 0 50.642 23.636">
  <path id="Fitness" d="M118.954,307.108h-1.688a2.532,2.532,0,0,0-2.532-2.532h-1.688v-.844a2.532,2.532,0,0,0-2.532-2.532h-1.688a2.532,2.532,0,0,0-2.532-2.532h-.844a2.532,2.532,0,0,0-2.532,2.532v5.908H87.723V301.2a2.532,2.532,0,0,0-2.532-2.532h-.844a2.532,2.532,0,0,0-2.532,2.532H80.126a2.532,2.532,0,0,0-2.532,2.532v.844H75.9a2.532,2.532,0,0,0-2.532,2.532H71.685A1.689,1.689,0,0,0,70,308.8v3.376a1.689,1.689,0,0,0,1.688,1.688h1.688a2.533,2.533,0,0,0,2.532,2.532H77.6v.844a2.532,2.532,0,0,0,2.532,2.532h1.688a2.532,2.532,0,0,0,2.532,2.532h.844a2.532,2.532,0,0,0,2.532-2.532v-5.908h15.194v5.908a2.532,2.532,0,0,0,2.532,2.532h.844a2.532,2.532,0,0,0,2.532-2.532h1.688a2.532,2.532,0,0,0,2.532-2.532V316.4h1.688a2.533,2.533,0,0,0,2.532-2.532h1.688a1.689,1.689,0,0,0,1.688-1.688V308.8a1.689,1.689,0,0,0-1.688-1.688Zm-47.268,5.065V308.8h1.688v3.376Zm4.221,2.532h0a.844.844,0,0,1-.844-.844v-6.753a.844.844,0,0,1,.844-.844H77.6V314.7Zm4.221,3.376h0a.844.844,0,0,1-.844-.844V303.732a.844.844,0,0,1,.844-.844h1.688v15.194Zm5.908,1.688h0a.843.843,0,0,1-.844.844h-.844a.844.844,0,0,1-.844-.844V301.2a.844.844,0,0,1,.844-.844h.844a.844.844,0,0,1,.844.844v18.57Zm1.688-7.6V308.8h15.194v3.376Zm19.414,7.6h0a.844.844,0,0,1-.844.844h-.844a.844.844,0,0,1-.844-.844V301.2a.844.844,0,0,1,.844-.844h.844a.844.844,0,0,1,.844.844v18.57Zm4.221-2.532h0a.843.843,0,0,1-.844.844h-1.688V302.888h1.688a.844.844,0,0,1,.844.844Zm4.221-3.376h0a.844.844,0,0,1-.844.844h-1.688v-8.441h1.688a.844.844,0,0,1,.844.844v6.753Zm3.376-1.688h-1.689V308.8h1.688Z" transform="translate(-70 -298.668)" fill="#4dcc86"/>
</svg>
