<svg xmlns="http://www.w3.org/2000/svg" width="42.291" height="41.87" viewBox="0 0 42.291 41.87">
  <path id="Family" d="M119.372,21.583a7.209,7.209,0,0,0,2.369-5.323,7.485,7.485,0,0,0-14.966,0,7.211,7.211,0,0,0,2.369,5.323,4.073,4.073,0,0,0-3.659,4.006v.457a7.556,7.556,0,0,0-6.652.728,4.134,4.134,0,0,0-3.2-2.165A7.209,7.209,0,0,0,98,19.285a7.484,7.484,0,1,0-14.968,0A7.209,7.209,0,0,0,85.4,24.608a4.073,4.073,0,0,0-3.659,4.006v16.64a1.032,1.032,0,1,0,2.064,0V28.613A2.044,2.044,0,0,1,85.873,26.6h9.289a2.057,2.057,0,0,1,2.019,1.6,7.161,7.161,0,0,0,.608,10.025,4.073,4.073,0,0,0-3.659,4.006v6.555a1.032,1.032,0,1,0,2.064,0V42.227a2.044,2.044,0,0,1,2.065-2.017h9.289a2.044,2.044,0,0,1,2.065,2.017v6.555a1.032,1.032,0,1,0,2.064,0V42.227a4.073,4.073,0,0,0-3.659-4.006,7.175,7.175,0,0,0-.477-11.05c0-.024.008-.047.008-.071V25.587a2.044,2.044,0,0,1,2.065-2.017h9.29a2.044,2.044,0,0,1,2.064,2.017v16.64a1.032,1.032,0,1,0,2.064,0V25.588a4.072,4.072,0,0,0-3.659-4ZM85.1,19.285a5.421,5.421,0,1,1,5.419,5.3,5.364,5.364,0,0,1-5.419-5.3ZM108.323,32.9a5.421,5.421,0,0,1-10.838,0,5.2,5.2,0,0,1,1.284-3.414,1.018,1.018,0,0,0,.408-.42A5.464,5.464,0,0,1,102.9,27.6a5.364,5.364,0,0,1,5.419,5.294Zm.516-16.64a5.42,5.42,0,1,1,5.419,5.3,5.364,5.364,0,0,1-5.419-5.3Z" transform="translate(-81.241 -8.448)" fill="none" stroke="#4dcc86" stroke-width="1"/>
</svg>
