<svg width="30" height="30" viewBox="0 0 30 30" fill="none" xmlns="http://www.w3.org/2000/svg">
<path d="M27.5 26.25C27.5 26.9404 26.9404 27.5 26.25 27.5H15.2038C14.7668 27.5 14.3616 27.2719 14.135 26.8984L11.4929 22.5432C11.334 22.2814 11.25 21.9809 11.25 21.6746C11.25 20.7498 12.0026 20 12.9275 20C13.4456 20 13.936 20.2392 14.2541 20.6481L16.25 23.2142V15C16.25 13.6193 17.3693 12.5 18.75 12.5C20.1307 12.5 21.25 13.6193 21.25 15V20C21.25 20.6904 21.8096 21.25 22.5 21.25C25.2614 21.25 27.5 23.4886 27.5 26.25Z" fill="black"/>
<path d="M21.7893 3.60729L22.8963 6.37497H4.60373L5.7108 3.60729C6.28029 2.18356 7.65919 1.25 9.19259 1.25H18.3074C19.8408 1.25 21.2198 2.18356 21.7893 3.60729Z" fill="black"/>
<path fill-rule="evenodd" clip-rule="evenodd" d="M4.03636 7.62497H23.4636C25.0678 8.05027 26.25 9.51207 26.25 11.25V18.75C26.25 19.0689 26.1306 19.3599 25.9341 19.5806C25.2592 19.2325 24.5247 18.9836 23.75 18.8537V15C23.75 12.2386 21.5114 9.99999 18.75 9.99999C15.9886 9.99999 13.75 12.2386 13.75 15V17.5816C13.4814 17.5277 13.206 17.5 12.9275 17.5C11.2207 17.5 9.74656 18.5262 9.09971 20H7.5V20.625C7.5 21.6605 6.66054 22.5 5.625 22.5C4.58946 22.5 3.75 21.6605 3.75 20.625V19.7866C2.29351 19.2719 1.25 17.8827 1.25 16.25V11.25C1.25 9.51207 2.43224 8.05027 4.03636 7.62497ZM7.5 15C8.19035 15 8.75 14.4404 8.75 13.75C8.75 13.0596 8.19035 12.5 7.5 12.5C6.80965 12.5 6.25 13.0596 6.25 13.75C6.25 14.4404 6.80965 15 7.5 15Z" fill="black"/>
</svg>
