<svg xmlns="http://www.w3.org/2000/svg" width="20.283" height="27.679" viewBox="0 0 20.283 27.679">
  <path id="Path_8" data-name="Path 8" d="M200.531,63.921h-2.062V62.366a.945.945,0,0,0-.946-.946h-.642V57.635a1,1,0,0,0-1.014-1.014h-3.92V51.653a1.247,1.247,0,0,0-1.25-1.25h-3.075a1.247,1.247,0,0,0-1.25,1.25v4.934H182.45a1,1,0,0,0-1.014,1.014v18.25a1,1,0,0,0,1.014,1.014h.27a1.559,1.559,0,0,0,3.042,0h6.759a1.559,1.559,0,0,0,3.042,0h.237a1,1,0,0,0,1.014-1.014v-.2h.608a1.559,1.559,0,0,0,3.041,0,1.247,1.247,0,0,0,1.25-1.25V65.172a1.172,1.172,0,0,0-1.183-1.251ZM197.523,62.1a.267.267,0,0,1,.27.27v1.554h-.946V62.062h.676ZM187.046,51.653a.57.57,0,0,1,.575-.574H190.7a.57.57,0,0,1,.574.574v4.934h-4.224Zm-2.8,25.786a.9.9,0,0,1-.811-.541h1.656A.946.946,0,0,1,184.241,77.439Zm9.835,0a.9.9,0,0,1-.811-.541h1.656A.945.945,0,0,1,194.076,77.439Zm2.129-1.554a.319.319,0,0,1-.338.338H182.417a.319.319,0,0,1-.338-.338V57.635a.319.319,0,0,1,.338-.338h13.417a.319.319,0,0,1,.338.338v18.25Zm2.771.338a.9.9,0,0,1-.811-.541h1.656A.945.945,0,0,1,198.976,76.223Zm2.129-1.825a.57.57,0,0,1-.575.574h-3.65V64.6h3.684a.57.57,0,0,1,.575.575V74.4Z" transform="translate(-181.436 -50.403)" fill="#142741"/>
</svg>
