<svg xmlns="http://www.w3.org/2000/svg" xmlns:xlink="http://www.w3.org/1999/xlink" width="50.51" height="40.842" viewBox="0 0 50.51 40.842">
  <defs>
    <clipPath id="clip-path">
      <rect id="Rectangle_92" data-name="Rectangle 92" width="50.51" height="40.842" fill="#4dcc86"/>
    </clipPath>
  </defs>
  <g id="Pool" clip-path="url(#clip-path)">
    <path id="Path_141" data-name="Path 141" d="M49.735,206.789c-1.949,0-2.925,1.475-3.711,2.661-.7,1.055-1.3,1.966-2.416,1.966s-1.718-.911-2.416-1.966c-.827-1.249-1.761-2.661-3.71-2.661s-2.926,1.475-3.71,2.661c-.727,1.1-1.3,1.966-2.41,1.966s-1.718-.911-2.416-1.966c-.827-1.249-1.761-2.661-3.71-2.661s-2.924,1.474-3.7,2.659c-.728,1.1-1.3,1.968-2.412,1.968s-1.684-.868-2.41-1.966c-.827-1.249-1.761-2.661-3.7-2.661s-2.924,1.474-3.7,2.659c-.728,1.1-1.3,1.968-2.412,1.968s-1.684-.868-2.41-1.966c-.827-1.249-1.761-2.661-3.7-2.661a.776.776,0,0,0,0,1.551c1.11,0,1.684.868,2.41,1.966.827,1.249,1.761,2.66,3.7,2.66s2.924-1.474,3.7-2.659c.728-1.1,1.3-1.968,2.412-1.968s1.684.868,2.41,1.966c.827,1.249,1.761,2.66,3.7,2.66s2.924-1.474,3.7-2.659c.728-1.1,1.3-1.968,2.412-1.968s1.719.911,2.416,1.966c.827,1.249,1.761,2.66,3.71,2.66s2.924-1.474,3.7-2.659c.728-1.1,1.3-1.968,2.418-1.968s1.718.911,2.416,1.966c.827,1.249,1.761,2.661,3.71,2.661s2.926-1.475,3.711-2.661c.7-1.055,1.3-1.966,2.416-1.966a.776.776,0,0,0,0-1.551" transform="translate(-0.001 -172.125)" fill="#4dcc86"/>
    <path id="Path_142" data-name="Path 142" d="M116.872,1.552A3.753,3.753,0,0,1,120.6,5.244a.815.815,0,0,0,.708.829.756.756,0,0,0,.577-.2.772.772,0,0,0,.249-.571,5.283,5.283,0,0,0-4.968-5.29A5.153,5.153,0,0,0,113.3,1.436a5.443,5.443,0,0,0-1.7,3.938v5.22H93.837V5.3a3.729,3.729,0,0,1,7.458-.055.815.815,0,0,0,.708.829.761.761,0,0,0,.577-.2.771.771,0,0,0,.249-.571A5.283,5.283,0,0,0,97.86.009,5.156,5.156,0,0,0,94,1.436a5.443,5.443,0,0,0-1.7,3.938V30.91a.8.8,0,0,0,.731.815.758.758,0,0,0,.562-.211.773.773,0,0,0,.24-.564V28.287H111.6V30.95a.749.749,0,0,0,.715.776h.029a.751.751,0,0,0,.685-.775v-3.4l.1-8.082V5.3a3.743,3.743,0,0,1,3.729-3.747m-5.263,25.2H93.942V20.208h17.666Zm0-8.079H93.942V12.129h17.666Z" transform="translate(-76.83)" fill="#4dcc86"/>
  </g>
</svg>
