<svg xmlns="http://www.w3.org/2000/svg" width="35.01" height="24.55" viewBox="0 0 35.01 24.55">
  <g id="card" transform="translate(-96.248 -102.054)">
    <path id="Path_31" data-name="Path 31" d="M131.258,105.992a3.938,3.938,0,0,0-3.938-3.938H100.186a3.938,3.938,0,0,0-3.938,3.938v16.674a3.938,3.938,0,0,0,3.938,3.938H127.32a3.938,3.938,0,0,0,3.938-3.938Zm-1.207,0v16.674a2.731,2.731,0,0,1-2.731,2.731H100.186a2.731,2.731,0,0,1-2.731-2.731V105.992a2.731,2.731,0,0,1,2.731-2.731H127.32A2.731,2.731,0,0,1,130.051,105.992Z" fill="#4dcc86" fill-rule="evenodd"/>
    <path id="Path_32" data-name="Path 32" d="M131.26,175.164a.6.6,0,0,0-.6-.6H96.86a.6.6,0,0,0-.6.6v4.168a.6.6,0,0,0,.6.6h33.8a.6.6,0,0,0,.6-.6Zm-1.207.6v2.961h-32.6v-2.961Z" transform="translate(-0.002 -67.504)" fill="#4dcc86" fill-rule="evenodd"/>
    <path id="Path_33" data-name="Path 33" d="M403.592,310.681v-.9a2.271,2.271,0,0,0-2.271-2.271h-5.836a2.271,2.271,0,0,0-2.272,2.271v.9a2.272,2.272,0,0,0,2.272,2.271h5.836A2.271,2.271,0,0,0,403.592,310.681Zm-1.207-.9v.9a1.064,1.064,0,0,1-1.064,1.064h-5.836a1.064,1.064,0,0,1-1.065-1.064v-.9a1.064,1.064,0,0,1,1.065-1.064h5.836a1.064,1.064,0,0,1,1.064,1.066Z" transform="translate(-276.48 -191.285)" fill="#4dcc86" fill-rule="evenodd"/>
  </g>
</svg>
