<svg xmlns="http://www.w3.org/2000/svg" width="29.413" height="36.759" viewBox="0 0 29.413 36.759">
  <path id="office" d="M220.648,140.14a.918.918,0,0,0-.919.919V142.6a2.136,2.136,0,0,0,2.133,2.132h8.9v5.515h-6.434a.919.919,0,0,0-.919.919V153a.919.919,0,1,0,1.838,0v-.919H243.63V153a.919.919,0,0,0,1.837,0v-1.838a.918.918,0,0,0-.918-.919H238.11v-5.515h8.9a2.135,2.135,0,0,0,2.132-2.132V131.577a3.389,3.389,0,0,0-3.385-3.385h-.582a3.351,3.351,0,0,0-1.547.379v-7.927a3.486,3.486,0,0,0-3.481-3.48h-11.42a3.485,3.485,0,0,0-3.481,3.48v7.926a3.354,3.354,0,0,0-1.547-.379h-.582a3.389,3.389,0,0,0-3.385,3.385v5.144a.919.919,0,1,0,1.838,0v-5.144a1.548,1.548,0,0,1,1.547-1.547h.582a1.549,1.549,0,0,1,1.547,1.547V142.9h-3.382a.3.3,0,0,1-.3-.295v-1.544a.917.917,0,0,0-.918-.919Zm6.434-.92h14.7v3.68h-14.7Zm9.19,11.03H232.6v-5.515h3.677Zm8.9-20.22h.582a1.549,1.549,0,0,1,1.547,1.547V142.6a.3.3,0,0,1-.295.3h-3.382v-11.32a1.551,1.551,0,0,1,1.548-1.548Zm-18.09-9.386A1.644,1.644,0,0,1,228.725,119h11.419a1.644,1.644,0,0,1,1.642,1.643v16.739h-14.7Z" transform="translate(-219.729 -117.164)" fill="#4dcc86"/>
</svg>
