<svg id="MagnifyingGlass" xmlns="http://www.w3.org/2000/svg" width="20.542" height="20.596" viewBox="0 0 20.542 20.596">
  <path id="Path_12" data-name="Path 12" d="M256.855,74.169a5.434,5.434,0,1,1,5.434-5.434A5.434,5.434,0,0,1,256.855,74.169Zm0,2.051a7.485,7.485,0,1,1,7.485-7.485A7.485,7.485,0,0,1,256.855,76.22Z" transform="translate(-249.37 -61.25)" fill="#4dcc86" fill-rule="evenodd"/>
  <path id="Path_13" data-name="Path 13" d="M137.23,357.467a1.025,1.025,0,0,0,0-1.45l-4.977-4.978a1.025,1.025,0,1,0-1.45,1.45l4.977,4.977a1.025,1.025,0,0,0,1.45,0Z" transform="translate(-116.989 -337.17)" fill="#4dcc86" fill-rule="evenodd"/>
</svg>
