<svg xmlns="http://www.w3.org/2000/svg" width="35.158" height="35.154" viewBox="0 0 35.158 35.154">
  <path id="airport" d="M236.17,146.13l-.407.07a6.221,6.221,0,0,0-3.368,1.743l-2.144,2.145c-1.54,1.54-3.219,3.218-4.617,4.622-1.793-.436-9.371-2.674-15.718-4.589a3.225,3.225,0,0,0-3.211.809l-2.018,2.018a.7.7,0,0,0,.091,1.072l12.27,8.687a48.053,48.053,0,0,1-3.894,4.481l-3.8-1.426a2.451,2.451,0,0,0-2.583.56l-2.045,2.046a.7.7,0,0,0,.088,1.07l6.692,4.782,4.78,6.688a.7.7,0,0,0,.514.292.717.717,0,0,0,.556-.2l2.047-2.047a2.444,2.444,0,0,0,.557-2.591l-1.433-3.787a50.543,50.543,0,0,1,4.486-3.915l8.7,12.285a.7.7,0,0,0,.515.294h.059a.7.7,0,0,0,.5-.206l2.012-2.011a3.219,3.219,0,0,0,.806-3.222l-4.579-15.718c2.1-2.085,4.819-4.807,6.763-6.752a6.216,6.216,0,0,0,1.737-3.346l.066-.377a2.988,2.988,0,0,0-.825-2.656,2.916,2.916,0,0,0-2.582-.821Zm2.019,3.235-.066.377a4.815,4.815,0,0,1-1.346,2.593c-1.944,1.944-4.668,4.668-6.764,6.752a1.326,1.326,0,0,0-.371,1.346l4.6,15.772a1.819,1.819,0,0,1-.452,1.824l-1.422,1.421-8.639-12.208a.714.714,0,0,0-.5-.285.649.649,0,0,0-.081,0,.735.735,0,0,0-.47.175c-.036.031-.125.1-.256.2a53,53,0,0,0-4.912,4.263,1.4,1.4,0,0,0-.4,1.2.69.69,0,0,0,.038.143l1.484,3.922a1.036,1.036,0,0,1-.236,1.1l-1.459,1.459-4.365-6.108a.706.706,0,0,0-.163-.163L206.3,168.78l1.458-1.459a1.039,1.039,0,0,1,1.095-.237l3.979,1.491a.752.752,0,0,0,.143.037,1.31,1.31,0,0,0,1.116-.37,49.92,49.92,0,0,0,4.394-5.1l.091-.122a.7.7,0,0,0-.123-1.037l-12.185-8.627,1.428-1.429a1.818,1.818,0,0,1,1.81-.457c6.433,1.941,14.138,4.215,15.854,4.624a1.314,1.314,0,0,0,1.228-.351c1.406-1.411,3.1-3.1,4.653-4.658l2.145-2.145A4.827,4.827,0,0,1,236,147.587l.407-.07a1.523,1.523,0,0,1,1.346.428,1.6,1.6,0,0,1,.434,1.421Z" transform="translate(-204.479 -146.085)" fill="#4dcc86"/>
</svg>
