<svg width="32" height="32" viewBox="0 0 32 32" fill="none" xmlns="http://www.w3.org/2000/svg">
<path d="M23.9999 28L19.9999 24M23.9999 28L27.9999 24M23.9999 28V20M26.6666 12V11.7712C26.6666 11.064 26.3857 10.3857 25.8855 9.88561L20.781 4.78105C20.2809 4.28095 19.6026 4 18.8954 4H18.6666M26.6666 12H21.3333C19.8605 12 18.6666 10.8061 18.6666 9.33333V4M26.6666 12V14.6667M18.6666 4H7.99992C6.52716 4 5.33325 5.19391 5.33325 6.66667V25.3333C5.33325 26.8061 6.52716 28 7.99992 28H15.9999" stroke="white" stroke-width="2" stroke-linecap="round" stroke-linejoin="round"/>
</svg>
