<svg width="24" height="24" viewBox="0 0 24 24" fill="none" xmlns="http://www.w3.org/2000/svg">
<path d="M20 9V19C20 20.1046 19.1046 21 18 21H12M20 9V8.82843C20 8.29799 19.7893 7.78929 19.4142 7.41421L15.5858 3.58579C15.2107 3.21071 14.702 3 14.1716 3H14M20 9H16C14.8954 9 14 8.10457 14 7V3M14 3H6C4.89543 3 4 3.89543 4 5V8M6 20H7C8.10457 20 9 19.1046 9 18C9 16.8954 8.10457 16 7 16H5C3.89543 16 3 15.1046 3 14C3 12.8954 3.89543 12 5 12H6M6 20H3M6 20V21M9 12H6M6 12V11" stroke="black" stroke-width="2" stroke-linecap="round" stroke-linejoin="round"/>
</svg>
